<svg width="129" height="110" viewBox="0 0 129 110" fill="none" xmlns="http://www.w3.org/2000/svg">
<path d="M-3.93987e-05 88.92L0.23996 88.68C0.399961 88.52 0.559961 88.44 0.71996 88.44C0.71996 88.12 1.39996 87.72 2.75996 87.24C4.11996 86.84 5.51996 86.44 6.95996 86.04C8.31996 85.72 9.11996 85.56 9.35996 85.56C9.43996 85.48 9.55996 85.44 9.71996 85.44C9.79996 85.44 9.91996 85.4 10.08 85.32C10.32 85.32 10.64 85.28 11.04 85.2C11.44 85.12 11.88 85.04 12.36 84.96C12.68 84.96 12.88 84.92 12.96 84.84C13.04 84.84 13.16 84.84 13.32 84.84C13.48 84.84 13.64 84.8 13.8 84.72L14.52 84.6H13.92C13.44 84.6 13.2 84.52 13.2 84.36C13.2 84.36 13.08 84.28 12.84 84.12C12.84 84.12 12.64 84.12 12.24 84.12C11.76 84.12 11.24 84.16 10.68 84.24C9.95996 84.32 9.55996 84.36 9.47996 84.36C9.31996 84.44 9.23996 84.48 9.23996 84.48C9.15996 84.48 9.11996 84.44 9.11996 84.36C9.19996 84.28 9.39996 84.08 9.71996 83.76C9.95996 83.52 10.12 83.4 10.2 83.4C10.28 83.4 10.36 83.36 10.44 83.28C10.52 83.28 10.56 83.28 10.56 83.28C10.56 83.2 10.72 83.08 11.04 82.92C11.28 82.84 11.44 82.8 11.52 82.8C11.6 82.8 11.68 82.76 11.76 82.68C11.76 82.6 11.88 82.56 12.12 82.56C12.2 82.48 12.32 82.44 12.48 82.44H12.96C12.96 82.36 13.12 82.24 13.44 82.08C14 82.08 14.36 82.04 14.52 81.96C14.6 82.04 14.64 82.08 14.64 82.08C14.72 82.08 14.8 82.04 14.88 81.96C14.96 81.88 15.56 81.84 16.68 81.84C17.72 81.84 18.24 81.8 18.24 81.72C18.4 81.72 18.56 81.72 18.72 81.72C18.88 81.8 19.12 81.84 19.44 81.84C20.24 81.92 20.8 81.96 21.12 81.96C21.44 81.96 21.8 82 22.2 82.08C22.28 82.08 22.44 82.08 22.68 82.08C22.92 82.16 23.12 82.2 23.28 82.2C23.44 82.2 23.56 82.24 23.64 82.32C23.72 82.4 23.8 82.44 23.88 82.44C23.88 82.52 24.08 82.56 24.48 82.56C24.8 82.64 25 82.68 25.08 82.68C25.24 82.68 25.32 82.68 25.32 82.68C25.4 82.76 25.48 82.8 25.56 82.8C25.64 82.8 25.76 82.84 25.92 82.92C26.08 82.92 26.16 82.88 26.16 82.8C26.16 82.8 26.12 82.76 26.04 82.68C25.8 82.52 25.48 82.2 25.08 81.72C24.76 81.24 24.6 81 24.6 81C24.6 81 24.56 80.96 24.48 80.88C24.48 80.72 24.44 80.6 24.36 80.52C24.2 80.36 24.08 80.24 24 80.16C23.92 80 23.88 79.92 23.88 79.92C23.88 79.92 23.84 79.88 23.76 79.8C23.76 79.64 23.68 79.48 23.52 79.32C23.36 79.16 23.24 79 23.16 78.84C23.08 78.68 23 78.52 22.92 78.36C22.92 78.2 22.84 78.04 22.68 77.88C22.6 77.72 22.56 77.6 22.56 77.52C22.32 77.12 22.2 76.64 22.2 76.08C22.2 75.84 22.2 75.64 22.2 75.48C22.28 75.32 22.32 75.16 22.32 75C22.48 74.68 22.84 74 23.4 72.96C23.96 71.84 24.32 71.28 24.48 71.28C24.56 71.28 24.96 70.72 25.68 69.6C25.84 69.04 26 68.64 26.16 68.4C26.16 68.32 26.2 68.28 26.28 68.28C26.36 68.28 26.4 68.24 26.4 68.16C26.32 68.08 26.28 68 26.28 67.92C26.28 67.84 26.32 67.68 26.4 67.44C26.56 67.2 26.68 67.08 26.76 67.08C26.84 67 26.88 66.88 26.88 66.72C26.88 66.64 26.92 66.4 27 66C27.16 65.6 27.28 65.32 27.36 65.16C27.44 65 27.48 64.84 27.48 64.68C27.48 64.52 27.48 64.32 27.48 64.08C27.56 63.84 27.68 63.72 27.84 63.72C27.84 63.56 27.84 63.48 27.84 63.48C27.92 63.4 27.96 63.32 27.96 63.24C27.96 63 28 62.64 28.08 62.16C28.16 61.6 28.2 61.32 28.2 61.32C28.2 61.24 28.2 61.2 28.2 61.2C28.28 61.12 28.32 61.04 28.32 60.96C28.32 60.8 28.36 60.68 28.44 60.6C28.52 60.52 28.56 60.44 28.56 60.36C28.64 60.28 28.72 59.88 28.8 59.16V58.68C28.88 58.12 29.04 57.64 29.28 57.24C29.28 57.16 29.28 57.08 29.28 57L29.4 56.52C29.4 56.44 29.4 56.36 29.4 56.28C29.48 56.2 29.52 56.08 29.52 55.92C29.52 55.76 29.56 55.6 29.64 55.44C29.64 55.04 29.68 54.8 29.76 54.72C29.92 54.56 30.04 54.24 30.12 53.76C30.2 53.2 30.24 52.84 30.24 52.68L30.48 51.24V50.88C30.48 50.88 30.52 50.8 30.6 50.64C30.68 50.4 30.72 50.12 30.72 49.8C30.88 49.24 30.96 48.96 30.96 48.96C30.96 48.96 30.96 48.84 30.96 48.6C30.96 48.36 31 48.16 31.08 48C31.08 47.68 31.08 47.44 31.08 47.28C31.16 47.04 31.2 46.88 31.2 46.8C31.2 46.72 31.2 46.68 31.2 46.68C31.28 46.68 31.32 46.68 31.32 46.68C31.32 46.68 31.28 46.64 31.2 46.56C31.36 46.4 31.44 46.28 31.44 46.2V45.84C31.44 45.68 31.48 45.52 31.56 45.36C31.72 44.88 31.8 44.52 31.8 44.28C31.8 44.2 31.76 44.12 31.68 44.04C31.68 43.96 31.68 43.88 31.68 43.8C31.68 43.56 31.72 43.28 31.8 42.96C31.8 42.24 31.84 41.84 31.92 41.76C31.92 41.76 31.92 41.68 31.92 41.52C31.92 41.36 32 41.12 32.16 40.8V38.88C32.24 38.56 32.28 38.32 32.28 38.16C32.28 37.92 32.28 37.72 32.28 37.56C32.36 37.24 32.4 36.48 32.4 35.28C32.4 34.08 32.4 32.92 32.4 31.8C32.48 30.68 32.56 30.04 32.64 29.88C32.8 29.72 32.88 29.16 32.88 28.2C32.88 27.96 32.84 27.4 32.76 26.52C32.76 25.64 32.72 24.12 32.64 21.96C32.56 20.36 32.52 19.32 32.52 18.84C32.52 18.36 32.48 17.88 32.4 17.4C32.4 17.32 32.4 17.24 32.4 17.16L32.28 16.44C32.28 16.36 32.28 16.28 32.28 16.2C32.28 15.72 32.2 15 32.04 14.04C31.96 13.08 31.84 12.2 31.68 11.4C31.52 10.6 31.32 10.2 31.08 10.2V10.92L30.84 12.72C30.76 12.8 30.72 12.96 30.72 13.2C30.72 13.36 30.72 13.48 30.72 13.56C30.72 13.72 30.68 13.84 30.6 13.92C30.52 14 30.48 14.04 30.48 14.04C30.4 14.04 30.36 13.72 30.36 13.08C30.44 12.84 30.48 12.56 30.48 12.24C30.48 11.92 30.48 11.68 30.48 11.52C30.56 11.36 30.6 11.2 30.6 11.04C30.6 10.88 30.52 10.76 30.36 10.68C30.2 10.52 30.12 10.32 30.12 10.08V9.72L30.36 9.96C30.52 10.12 30.64 10.2 30.72 10.2C30.72 10.2 30.72 10.16 30.72 10.08V7.2C30.64 7.2 30.56 7.24 30.48 7.32C30.48 7.4 30.48 7.48 30.48 7.56L30.36 8.04C30.36 8.12 30.36 8.2 30.36 8.28C30.36 8.36 30.32 8.48 30.24 8.64C30.24 8.72 30.24 8.84 30.24 9C30.08 9.24 29.8 10.28 29.4 12.12C29.32 12.6 29.24 13 29.16 13.32C29.08 13.64 29 13.88 28.92 14.04V13.08C28.92 12.92 28.92 12.68 28.92 12.36C29 11.96 29.04 11.64 29.04 11.4C29.04 11.08 29.08 10.76 29.16 10.44C29.24 10.12 29.28 9.92 29.28 9.84C29.36 9.6 29.4 9.44 29.4 9.36C29.4 9.28 29.36 9.24 29.28 9.24C29.28 9.24 29.24 9.32 29.16 9.48C29.08 9.56 29 9.8 28.92 10.2C28.92 10.36 28.88 10.56 28.8 10.8C28.72 11.04 28.68 11.16 28.68 11.16C28.68 11.4 28.64 11.56 28.56 11.64V12C28.56 12 28.52 12.04 28.44 12.12C28.36 12.12 28.32 12.16 28.32 12.24C28.32 12.32 28.32 12.48 28.32 12.72C28.32 12.88 28.24 13.12 28.08 13.44C27.92 13.92 27.84 14.4 27.84 14.88C27.68 15.04 27.52 15.32 27.36 15.72C27.28 16.04 27.12 16.76 26.88 17.88C26.8 18.2 26.72 18.44 26.64 18.6C26.56 18.76 26.52 18.84 26.52 18.84V18.48C26.52 18.4 26.52 18.28 26.52 18.12C26.6 17.96 26.64 17.8 26.64 17.64C26.96 16.28 27.16 15.24 27.24 14.52C27.32 13.72 27.4 13.12 27.48 12.72C27.48 12.4 27.48 12.16 27.48 12C27.56 11.76 27.6 11.64 27.6 11.64C27.6 11.56 27.64 11.24 27.72 10.68C27.88 10.12 27.96 9.44 27.96 8.64C27.96 8.24 28 7.88 28.08 7.56C28.16 7.16 28.2 6.84 28.2 6.6C28.2 6.52 28.2 6.36 28.2 6.12C28.28 5.88 28.32 5.64 28.32 5.4C28.48 5.08 28.56 4.8 28.56 4.56C28.56 4.32 28.6 4.12 28.68 3.96C28.68 3.8 28.68 3.64 28.68 3.48001C28.68 3.24 28.72 3 28.8 2.76V1.8C28.88 1.64 28.92 1.52 28.92 1.44C29.48 0.880001 29.96 0.52 30.36 0.360003C30.76 0.120001 31.36 0 32.16 0C32.32 0.079999 32.44 0.16 32.52 0.240004C32.68 0.320003 32.84 0.360003 33 0.360003C33.08 0.360003 33.24 0.320003 33.48 0.240004C33.64 0.16 33.8 0.119998 33.96 0.119998H34.32C34.4 0.119998 34.52 0.079999 34.68 0C34.84 0 35.08 0 35.4 0H36C36.48 0 36.72 0.36 36.72 1.08V1.8L37.32 2.04C37.48 2.12 37.6 2.24 37.68 2.4C37.84 2.48 37.92 2.52 37.92 2.52L38.64 2.88H39.84C40.72 2.88 41.36 2.92 41.76 3C42.32 3.4 42.6 3.72 42.6 3.96C42.84 4.2 42.96 4.52 42.96 4.92C43.12 5.24 43.2 5.56 43.2 5.88C43.28 5.96 43.32 6 43.32 6C43.4 6 43.44 5.96 43.44 5.88C43.68 5.88 43.84 5.96 43.92 6.12C43.92 6.2 44.4 6.24001 45.36 6.24001C46.8 6.24001 47.52 6.84 47.52 8.04C47.52 8.28 47.56 8.4 47.64 8.4C48.04 8.48 48.28 8.56 48.36 8.64C48.68 8.64 49.08 8.76 49.56 9C49.64 9 49.72 9.04 49.8 9.12C49.96 9.12 50.12 9.12 50.28 9.12C50.76 9.28 51 9.4 51 9.48L51.36 9.96C51.44 10.12 51.48 10.2 51.48 10.2C51.56 10.2 51.6 10.28 51.6 10.44C51.6 10.52 51.68 10.56 51.84 10.56C52.16 10.56 52.36 10.68 52.44 10.92C52.52 11.24 52.56 11.48 52.56 11.64C52.64 11.72 52.68 11.8 52.68 11.88C52.68 11.96 52.64 12.12 52.56 12.36C52.4 12.6 52.2 12.84 51.96 13.08C51.8 13.24 51.52 13.44 51.12 13.68C50.8 13.84 50.48 14.08 50.16 14.4C49.84 14.64 49.68 14.84 49.68 15L49.44 15.24C49.2 15.48 49.08 15.68 49.08 15.84C49.08 15.84 48.96 16 48.72 16.32C48.56 16.56 48.32 16.88 48 17.28C48 17.36 47.96 17.44 47.88 17.52C47.8 17.6 47.76 17.64 47.76 17.64C47.76 17.8 47.6 18.24 47.28 18.96C46.96 19.68 46.76 20.08 46.68 20.16C46.6 20.4 46.56 20.64 46.56 20.88C46.32 21.28 46.04 21.92 45.72 22.8C45.4 23.6 45.24 24.16 45.24 24.48L45.12 24.84V23.76C45.2 23.68 45.24 23.6 45.24 23.52C45.24 23.36 45.32 22.8 45.48 21.84C45.64 20.88 45.76 20.36 45.84 20.28C45.68 20.28 45.52 20.48 45.36 20.88C45.36 21.12 45.32 21.28 45.24 21.36C45.24 21.44 45.2 21.52 45.12 21.6C45.12 21.68 45.12 21.72 45.12 21.72V22.2C44.8 22.36 44.64 22.76 44.64 23.4C44.48 23.56 44.32 23.88 44.16 24.36C44 24.84 43.92 25.24 43.92 25.56C43.84 25.56 43.72 25.76 43.56 26.16C43.4 26.48 43.32 26.68 43.32 26.76C43.24 27 43.2 27.24 43.2 27.48L42.96 28.44C42.88 28.6 42.76 28.8 42.6 29.04C42.52 29.28 42.48 29.48 42.48 29.64C42.48 29.8 42.44 29.96 42.36 30.12C42.36 30.2 42.36 30.24 42.36 30.24C42.28 30.24 42.16 30.48 42 30.96C41.84 31.36 41.76 31.6 41.76 31.68C41.76 32 41.72 32.2 41.64 32.28C41.56 32.44 41.48 32.6 41.4 32.76C41.32 32.84 41.28 32.92 41.28 33C41.44 33.08 41.52 33.12 41.52 33.12C41.52 33.2 41.44 33.24 41.28 33.24C41.28 33.24 41.24 33.28 41.16 33.36C41.16 33.44 41.16 33.56 41.16 33.72C41.08 34.36 40.96 34.76 40.8 34.92C40.8 34.92 40.8 34.96 40.8 35.04L40.56 35.28C40.56 35.28 40.56 35.32 40.56 35.4V35.88C40.32 36.44 40.08 37.16 39.84 38.04C39.68 38.84 39.56 39.56 39.48 40.2C39.4 40.28 39.36 40.32 39.36 40.32V40.56C39.36 40.72 39.28 40.84 39.12 40.92C39.12 41 39.08 41.12 39 41.28C39 41.36 39 41.48 39 41.64C39 41.72 38.96 41.8 38.88 41.88C38.88 41.88 38.88 41.96 38.88 42.12C38.8 42.12 38.76 42.2 38.76 42.36V42.84C38.76 43 38.72 43.08 38.64 43.08L38.28 43.92C38.28 44.48 38.2 44.92 38.04 45.24C38.04 45.56 38 45.76 37.92 45.84C37.92 45.92 37.92 46 37.92 46.08C37.92 46.16 37.84 46.4 37.68 46.8C37.68 46.96 37.64 47.12 37.56 47.28C37.56 47.36 37.56 47.44 37.56 47.52C37.56 47.52 37.52 47.6 37.44 47.76C37.44 47.84 37.44 47.96 37.44 48.12C37.36 48.44 37.32 48.68 37.32 48.84C37.32 49 37.28 49.16 37.2 49.32C37.2 49.4 37.2 49.44 37.2 49.44C37.2 49.52 37.2 49.56 37.2 49.56V49.8C37.2 49.8 37.16 49.92 37.08 50.16C37 50.4 36.96 50.64 36.96 50.88C36.8 51.44 36.72 51.72 36.72 51.72C36.72 51.96 36.68 52.4 36.6 53.04C36.52 53.6 36.4 53.92 36.24 54C36.24 54 36.24 54.08 36.24 54.24C36.24 54.4 36.2 54.56 36.12 54.72C36.12 55.2 36.08 55.48 36 55.56V55.92C35.92 56.32 35.84 56.64 35.76 56.88C35.76 57.04 35.76 57.2 35.76 57.36V57.96C35.76 57.96 35.72 58 35.64 58.08C35.56 58.16 35.52 58.24 35.52 58.32C35.52 58.64 35.48 58.84 35.4 58.92V59.64C35.4 59.72 35.36 59.88 35.28 60.12C35.28 60.28 35.28 60.44 35.28 60.6C35.12 61.24 35.04 61.72 35.04 62.04C35.04 62.44 34.96 62.64 34.8 62.64V63.6C34.8 63.84 34.76 64 34.68 64.08C34.6 65.12 34.52 65.88 34.44 66.36C34.44 66.76 34.44 67.12 34.44 67.44C34.36 67.92 34.32 68.44 34.32 69C34.32 69.56 34.24 69.96 34.08 70.2C34.08 70.36 34.04 70.56 33.96 70.8C33.96 71.04 33.96 71.32 33.96 71.64V72.6C33.96 72.6 33.92 72.8 33.84 73.2C33.84 73.52 33.84 73.88 33.84 74.28C33.84 74.84 33.84 75.36 33.84 75.84C33.84 76.24 33.8 76.52 33.72 76.68V78.84C33.64 79.32 33.6 79.84 33.6 80.4C33.6 80.96 33.6 81.4 33.6 81.72C33.44 81.96 33.36 82.16 33.36 82.32C33.36 82.56 33.36 82.72 33.36 82.8C33.36 83.68 33.48 84.36 33.72 84.84C33.8 85 33.84 85.12 33.84 85.2V85.32C33.84 85.48 33.88 85.56 33.96 85.56C34.04 85.48 34.08 85.44 34.08 85.44C34.16 85.44 34.2 85.44 34.2 85.44C34.28 85.52 34.36 85.56 34.44 85.56C34.6 85.72 34.84 85.8 35.16 85.8C35.16 85.96 35.44 86.12 36 86.28C36.32 86.28 36.48 86.32 36.48 86.4C36.56 86.4 36.72 86.44 36.96 86.52C37.28 86.68 37.44 86.8 37.44 86.88C37.6 86.88 37.76 86.92 37.92 87C38 87 38.04 87 38.04 87C38.12 87.08 38.2 87.12 38.28 87.12C38.36 87.12 38.4 87.12 38.4 87.12L38.64 87.24C38.72 87.24 38.76 87.24 38.76 87.24C38.76 87.32 38.84 87.4 39 87.48C39.24 87.56 39.4 87.6 39.48 87.6L40.44 87.96C40.76 87.96 41.04 88.08 41.28 88.32C41.28 88.32 41.4 88.36 41.64 88.44C41.88 88.52 42.08 88.56 42.24 88.56C42.48 88.72 42.72 88.84 42.96 88.92C43.2 89.08 43.4 89.16 43.56 89.16C43.56 89.16 43.6 89.16 43.68 89.16C43.76 89.16 43.84 89.2 43.92 89.28C44.08 89.36 44.16 89.4 44.16 89.4C44.16 89.56 44.32 89.64 44.64 89.64C44.96 89.8 45.12 89.88 45.12 89.88C45.2 89.96 45.28 90 45.36 90C45.44 90 45.56 90 45.72 90C45.96 90 46.12 90.04 46.2 90.12C46.92 90.52 47.44 90.76 47.76 90.84C48.16 90.84 48.36 90.96 48.36 91.2C48.6 91.2 48.76 91.24 48.84 91.32C48.92 91.32 49 91.32 49.08 91.32C49.16 91.4 49.28 91.44 49.44 91.44L51.12 92.04C51.44 92.04 51.6 92.08 51.6 92.16C51.6 92.16 51.68 92.16 51.84 92.16C52 92.24 52.16 92.36 52.32 92.52C52.48 92.68 52.64 92.76 52.8 92.76C53.04 92.76 53.2 92.76 53.28 92.76C53.36 92.84 53.52 92.88 53.76 92.88C53.92 92.88 54 92.92 54 93C54.08 93.16 54.16 93.24 54.24 93.24C54.4 93.24 54.56 93.28 54.72 93.36C55.2 93.36 55.52 93.44 55.68 93.6C55.84 93.68 55.96 93.72 56.04 93.72H56.4C56.56 93.88 56.68 93.96 56.76 93.96H57C57 93.96 57.04 94 57.12 94.08C57.36 94.16 57.52 94.2 57.6 94.2L58.92 94.8C58.68 94.72 58.36 94.6 57.96 94.44C57.56 94.36 57.28 94.32 57.12 94.32C57.04 94.24 56.84 94.16 56.52 94.08C56.2 94.08 56 94.08 55.92 94.08C55.76 94 55.52 93.92 55.2 93.84C54.88 93.76 54.56 93.68 54.24 93.6C54 93.52 53.68 93.44 53.28 93.36C52.96 93.28 52.72 93.16 52.56 93C52.24 93 51.56 92.84 50.52 92.52C49.56 92.2 48.96 92 48.72 91.92C48.56 91.92 48.4 91.88 48.24 91.8C48.16 91.8 48.08 91.8 48 91.8C47.68 91.64 47.16 91.44 46.44 91.2C45.8 90.96 45.36 90.76 45.12 90.6C44.4 90.28 43.88 90.08 43.56 90C43.32 89.92 43.2 89.88 43.2 89.88C43.2 89.96 43.2 90 43.2 90C43.28 90.08 43.6 90.28 44.16 90.6C44.64 90.92 45.6 91.32 47.04 91.8C48.48 92.28 49.92 92.76 51.36 93.24C52.88 93.72 53.92 94.04 54.48 94.2C55.2 94.44 55.8 94.68 56.28 94.92C56.44 94.92 56.6 94.92 56.76 94.92C56.92 95 57.04 95.04 57.12 95.04C57.2 95.04 57.28 95.04 57.36 95.04L57.6 95.16C57.68 95.16 57.76 95.16 57.84 95.16C58 95.32 58.24 95.44 58.56 95.52C58.88 95.6 59.08 95.64 59.16 95.64C59.4 95.72 59.88 95.84 60.6 96C61.32 96.24 61.76 96.36 61.92 96.36C61.92 96.44 61.96 96.48 62.04 96.48C62.04 96.48 62.08 96.44 62.16 96.36C62.16 96.36 62.2 96.36 62.28 96.36C62.36 96.44 62.44 96.48 62.52 96.48C62.6 96.56 62.68 96.6 62.76 96.6H63.12C63.28 96.6 63.4 96.68 63.48 96.84C63.64 96.84 63.76 96.84 63.84 96.84C63.92 96.92 64 96.96 64.08 96.96C64.4 97.04 64.64 97.08 64.8 97.08C64.96 97.08 65.12 97.12 65.28 97.2C65.36 97.2 65.56 97.2 65.88 97.2C66.28 97.28 66.64 97.4 66.96 97.56C67.68 97.8 68.44 98 69.24 98.16C70.12 98.32 70.96 98.4 71.76 98.4C71.92 98.48 72.2 98.52 72.6 98.52C73.08 98.52 73.44 98.56 73.68 98.64H74.88C75.04 98.72 75.28 98.76 75.6 98.76C76 98.76 76.32 98.76 76.56 98.76C76.88 98.92 77.2 99 77.52 99H78.36C78.44 98.84 78.52 98.76 78.6 98.76C78.6 98.76 78.6 98.84 78.6 99H81.72C82.6 99 83.28 98.92 83.76 98.76H85.44C85.68 98.68 85.92 98.64 86.16 98.64C86.4 98.64 86.52 98.6 86.52 98.52H87.12C87.28 98.52 87.6 98.44 88.08 98.28C88.64 98.2 89 98.12 89.16 98.04C89.48 97.88 89.72 97.8 89.88 97.8C90.04 97.8 90.12 97.8 90.12 97.8C90.28 97.72 90.36 97.68 90.36 97.68C90.44 97.68 90.48 97.72 90.48 97.8C90.64 97.8 90.72 97.76 90.72 97.68C90.72 97.68 91.04 97.56 91.68 97.32C92.4 97.08 92.84 96.96 93 96.96C93.08 96.88 93.48 96.68 94.2 96.36C94.92 96.04 95.4 95.88 95.64 95.88C95.64 95.88 95.64 95.84 95.64 95.76C95.72 95.76 95.76 95.72 95.76 95.64C96.16 95.64 96.44 95.48 96.6 95.16L97.32 94.92L98.4 94.32C98.48 94.24 98.56 94.2 98.64 94.2C98.72 94.2 98.92 94.04 99.24 93.72C99.4 93.56 99.6 93.48 99.84 93.48C99.92 93.48 100.04 93.4 100.2 93.24C100.44 93.08 100.6 92.96 100.68 92.88C100.76 92.88 100.84 92.84 100.92 92.76C101 92.68 101.04 92.64 101.04 92.64C101.04 92.4 101.16 92.28 101.4 92.28C101.48 92.28 101.56 92.28 101.64 92.28C101.64 92.2 101.64 92.16 101.64 92.16C101.64 92.16 101.64 92.12 101.64 92.04C101.72 92.04 101.84 92.04 102 92.04C102 92.04 102.04 92 102.12 91.92C102.2 91.84 102.28 91.72 102.36 91.56C102.68 91.48 102.84 91.4 102.84 91.32C102.92 91.32 103.12 91.16 103.44 90.84L103.8 90.48C103.88 90.48 104 90.36 104.16 90.12C104.32 89.96 104.6 89.72 105 89.4C105.32 89.16 105.56 88.92 105.72 88.68C105.96 88.52 106.16 88.44 106.32 88.44C106.48 88.44 106.56 88.36 106.56 88.2C106.64 88.12 106.68 88.08 106.68 88.08C106.68 87.92 106.64 87.8 106.56 87.72C106.56 87.56 106.6 87.48 106.68 87.48C106.68 87.64 106.84 87.72 107.16 87.72C107.4 87.72 107.72 87.4 108.12 86.76C108.28 86.44 108.4 86.12 108.48 85.8C108.64 85.56 108.76 85.4 108.84 85.32C108.84 85 108.88 84.84 108.96 84.84C109.12 84.84 109.2 84.92 109.2 85.08C109.2 85.24 109.12 85.36 108.96 85.44C108.88 85.44 108.84 85.52 108.84 85.68C108.84 85.76 108.72 86 108.48 86.4C108.32 86.8 108.16 87.16 108 87.48C108 87.56 108 87.64 108 87.72C108 87.88 108.04 88.04 108.12 88.2C108.2 88.36 108.24 88.52 108.24 88.68C108.24 88.84 108.24 88.96 108.24 89.04C108.24 89.04 107.92 89.36 107.28 90C106.72 90.64 106.08 91.32 105.36 92.04C104.72 92.84 104.32 93.32 104.16 93.48C104.16 93.56 104.04 93.6 103.8 93.6L103.56 93.96C103.56 94.04 103.56 94.12 103.56 94.2C103.48 94.2 103.44 94.2 103.44 94.2C103.28 94.2 103.2 94.28 103.2 94.44C103.2 94.44 103.16 94.48 103.08 94.56C103.08 94.64 103.04 94.68 102.96 94.68C102.96 94.76 102.68 95.08 102.12 95.64C101.56 96.2 101.2 96.6 101.04 96.84C100.72 97.32 100.12 98 99.24 98.88C98.44 99.76 97.96 100.2 97.8 100.2C97.72 100.2 97.68 100.2 97.68 100.2C97.36 100.68 97 101.12 96.6 101.52C96.28 101.84 96.04 102.12 95.88 102.36C95.72 102.6 95.64 102.72 95.64 102.72C95.64 102.8 95.52 102.88 95.28 102.96C95.12 103.04 95.04 103.12 95.04 103.2V103.32C95.04 103.48 94.96 103.56 94.8 103.56C94.48 103.64 94.28 103.8 94.2 104.04C94.2 104.12 94.2 104.2 94.2 104.28C94.12 104.28 94.08 104.28 94.08 104.28C93.92 104.28 93.76 104.36 93.6 104.52C93.52 104.68 93.04 105.08 92.16 105.72C91.36 106.44 90.88 106.84 90.72 106.92C90.56 107 90.4 107.08 90.24 107.16C90.08 107.24 90 107.32 90 107.4C90 107.4 89.96 107.44 89.88 107.52C89.88 107.6 89.84 107.64 89.76 107.64C89.52 107.64 89.36 107.68 89.28 107.76C89.12 107.92 88.56 108.08 87.6 108.24C86.64 108.4 86 108.48 85.68 108.48C85.44 108.48 84.88 108.44 84 108.36C83.2 108.36 82.72 108.28 82.56 108.12C81.68 108.04 81.04 108 80.64 108C80.32 108 80.08 108 79.92 108C79.76 108 79.64 108 79.56 108L79.32 107.88C79.24 107.8 79.16 107.76 79.08 107.76C78.76 107.76 78.36 107.64 77.88 107.4C77.8 107.4 77.52 107.36 77.04 107.28C76.64 107.28 76.4 107.24 76.32 107.16H75.84C75.6 107 75.08 106.8 74.28 106.56C73.48 106.32 73 106.2 72.84 106.2C72.44 106.04 72.16 105.92 72 105.84C71.84 105.84 71.68 105.8 71.52 105.72C71.2 105.72 70.92 105.64 70.68 105.48L70.08 105.12C69.92 105.12 69.76 105.08 69.6 105C69.12 104.84 68.8 104.76 68.64 104.76C68.56 104.6 68.48 104.52 68.4 104.52C68.4 104.52 68.36 104.48 68.28 104.4C67.96 104.32 67.64 104.2 67.32 104.04C67 103.88 66.84 103.8 66.84 103.8C66.6 103.8 66.24 103.68 65.76 103.44C65.52 103.36 65.24 103.24 64.92 103.08C64.68 102.92 64.48 102.84 64.32 102.84C64 102.68 63.84 102.52 63.84 102.36C63.68 102.36 63.28 102.2 62.64 101.88C61.84 101.56 61.4 101.4 61.32 101.4C61.08 101.24 60.96 101.16 60.96 101.16C60.8 101 60.48 100.84 60 100.68C59.52 100.52 59.24 100.44 59.16 100.44C59.08 100.28 58.72 100.04 58.08 99.72C57.44 99.4 57.04 99.24 56.88 99.24C56.72 99.24 56.52 99.16 56.28 99L55.68 98.64C55.68 98.64 55.6 98.6 55.44 98.52C55.28 98.52 55.04 98.44 54.72 98.28C54.08 97.96 53.64 97.76 53.4 97.68C53.32 97.6 53.2 97.52 53.04 97.44C52.88 97.36 52.76 97.32 52.68 97.32C52.6 97.24 52.44 97.16 52.2 97.08C52.04 97.08 51.88 97.04 51.72 96.96C51.4 96.88 51.2 96.76 51.12 96.6C51.04 96.52 50.96 96.48 50.88 96.48L50.28 96.24C49.56 96 48.72 95.64 47.76 95.16L47.28 94.92C47.28 94.92 47.16 94.84 46.92 94.68C46.76 94.6 46.56 94.52 46.32 94.44L45.48 94.2C45.16 93.96 44.76 93.76 44.28 93.6C43.88 93.52 43.52 93.4 43.2 93.24L41.04 92.16C40.8 92.08 40.56 92 40.32 91.92C40.16 91.92 40 91.88 39.84 91.8C39.68 91.72 39.48 91.64 39.24 91.56C39 91.48 38.84 91.4 38.76 91.32C37.8 90.84 36.96 90.44 36.24 90.12C35.6 89.88 35.2 89.76 35.04 89.76C35.04 89.76 35.16 89.84 35.4 90C35.64 90.16 36 90.36 36.48 90.6C36.88 90.84 37.24 91 37.56 91.08C37.96 91.24 38.2 91.36 38.28 91.44C38.28 91.44 38.32 91.44 38.4 91.44C38.56 91.52 38.68 91.64 38.76 91.8C39 91.8 39.68 92.08 40.8 92.64C41.92 93.2 42.52 93.48 42.6 93.48C42.68 93.64 42.84 93.72 43.08 93.72C43.08 93.8 43.36 93.96 43.92 94.2L44.52 94.44C44.52 94.36 44.52 94.32 44.52 94.32C44.6 94.32 44.68 94.44 44.76 94.68L46.56 95.4C46.72 95.48 46.88 95.56 47.04 95.64C47.2 95.72 47.32 95.76 47.4 95.76C47.48 95.84 47.64 95.92 47.88 96C48.12 96.16 48.4 96.28 48.72 96.36C48.88 96.52 49.12 96.68 49.44 96.84C49.84 97 50.2 97.16 50.52 97.32C50.84 97.48 51.32 97.72 51.96 98.04C52.68 98.36 53.32 98.68 53.88 99L57.36 100.68C57.44 100.76 57.52 100.8 57.6 100.8C57.76 100.88 57.92 101 58.08 101.16C58.08 101.16 58.2 101.16 58.44 101.16C58.68 101.24 58.8 101.32 58.8 101.4L59.28 101.64C59.92 101.96 60.28 102.16 60.36 102.24C60.44 102.32 60.52 102.36 60.6 102.36H60.72C60.96 102.52 61.56 102.84 62.52 103.32C63.48 103.88 64 104.16 64.08 104.16C64.32 104.16 64.52 104.24 64.68 104.4C64.92 104.64 65.12 104.76 65.28 104.76C65.44 104.76 65.56 104.8 65.64 104.88C65.88 104.96 66.44 105.2 67.32 105.6C68.2 106.08 68.72 106.32 68.88 106.32L70.32 107.04C70.48 107.04 70.88 107.12 71.52 107.28C72.16 107.52 72.52 107.68 72.6 107.76C72.6 107.84 72.72 107.88 72.96 107.88C73.28 107.96 73.48 108 73.56 108C73.72 108.08 73.84 108.16 73.92 108.24C74.08 108.32 74.24 108.36 74.4 108.36C74.72 108.36 74.88 108.4 74.88 108.48C74.88 108.48 74.92 108.48 75 108.48C75.16 108.56 75.4 108.6 75.72 108.6L76.56 108.84C76.72 109 77.04 109.08 77.52 109.08C77.68 109.16 77.8 109.2 77.88 109.2H78.24C78.4 109.2 78.52 109.24 78.6 109.32L79.2 109.44H78.72C78.4 109.44 78.16 109.4 78 109.32H77.52C77.36 109.32 77.2 109.28 77.04 109.2C76.8 109.12 76.6 109.08 76.44 109.08C76.28 109.08 76.16 109.08 76.08 109.08C75.92 109.08 75.8 109.04 75.72 108.96C75.72 108.88 75.72 108.84 75.72 108.84C75.64 108.76 75.4 108.68 75 108.6C74.6 108.6 74.36 108.6 74.28 108.6C74.2 108.52 74 108.48 73.68 108.48C72.72 107.92 71.76 107.64 70.8 107.64C70.8 107.64 70.68 107.52 70.44 107.28C70.36 107.28 69.8 107.08 68.76 106.68C67.72 106.36 67.16 106.12 67.08 105.96C67 105.88 66.8 105.84 66.48 105.84C66.48 105.84 66.36 105.8 66.12 105.72C65.96 105.64 65.76 105.56 65.52 105.48C65.2 105.4 64.96 105.28 64.8 105.12C64.64 105.04 64.56 105 64.56 105C64.4 105 64.32 105 64.32 105L63.84 104.52C63.52 104.52 63.28 104.44 63.12 104.28C62.8 104.12 62.6 104.04 62.52 104.04C62.36 103.88 62.16 103.76 61.92 103.68C61.68 103.6 61.48 103.52 61.32 103.44C61.24 103.36 60.76 103.12 59.88 102.72C59 102.32 58.56 102.12 58.56 102.12C58.4 102.04 57.88 101.8 57 101.4C56.12 101 55.68 100.8 55.68 100.8C55.68 100.8 55.6 100.72 55.44 100.56C55.36 100.56 55.16 100.48 54.84 100.32C54.6 100.16 54.32 100 54 99.84L52.8 99.24C52.8 99.08 52.56 99 52.08 99C52.08 98.84 51.56 98.44 50.52 97.8C49.48 97.24 48.36 96.68 47.16 96.12C45.96 95.64 45.16 95.4 44.76 95.4C44.44 95.24 44.04 95 43.56 94.68C43.16 94.44 42.88 94.32 42.72 94.32C42.56 94.32 42.48 94.32 42.48 94.32V94.2C42.48 94.12 42.4 94.08 42.24 94.08L41.04 93.48C40.8 93.32 40.52 93.16 40.2 93C39.96 92.92 39.76 92.88 39.6 92.88C39.44 92.8 39.28 92.72 39.12 92.64C39.04 92.64 38.96 92.6 38.88 92.52C38.72 92.2 38 91.8 36.72 91.32C35.44 90.84 34.56 90.52 34.08 90.36C33.68 90.04 33.2 89.8 32.64 89.64C32.16 89.48 31.68 89.28 31.2 89.04C31.04 88.96 30.88 88.84 30.72 88.68C30.56 88.6 30.44 88.56 30.36 88.56C30.28 88.48 30 88.32 29.52 88.08C29.04 87.92 28.72 87.84 28.56 87.84L27.96 87.6C27.64 87.6 27.4 87.56 27.24 87.48C26.84 87.24 26.64 87.12 26.64 87.12H26.16C26.08 87.12 26 87.08 25.92 87H25.68C25.6 87 25.52 86.96 25.44 86.88C25.44 86.88 25.4 86.84 25.32 86.76C25.24 86.76 25.12 86.76 24.96 86.76C24.56 86.76 24.36 86.68 24.36 86.52C24.28 86.52 24.16 86.52 24 86.52C23.84 86.52 23.68 86.48 23.52 86.4C23.04 86.24 22.72 86.16 22.56 86.16C22.56 86.16 22.52 86.16 22.44 86.16C22.36 86.24 22.28 86.28 22.2 86.28C22.2 86.2 21.84 86.16 21.12 86.16C20.88 86.08 20.6 86.04 20.28 86.04H12.72C12.56 86.04 12.44 86.08 12.36 86.16C12.2 86.24 11.92 86.28 11.52 86.28C11.04 86.36 10.72 86.4 10.56 86.4C10.4 86.4 9.91996 86.44 9.11996 86.52C8.31996 86.68 7.87996 86.76 7.79996 86.76C7.55996 86.84 7.19996 86.92 6.71996 87C6.23996 87.08 5.43996 87.24 4.31996 87.48C4.15996 87.48 3.99996 87.48 3.83996 87.48C3.67996 87.56 3.59996 87.6 3.59996 87.6C3.51996 87.68 3.43996 87.72 3.35996 87.72H2.99996C2.91996 87.72 2.83996 87.76 2.75996 87.84C2.67996 87.92 2.23996 88.12 1.43996 88.44C0.55996 88.76 0.0799602 88.92 -3.93987e-05 88.92ZM29.04 65.64L29.4 64.92C29.48 64.84 29.52 64.76 29.52 64.68L29.64 63.96C29.72 63.88 29.76 63.8 29.76 63.72C29.84 63.56 29.88 63.44 29.88 63.36L30.12 62.4C30.2 62.24 30.24 62.12 30.24 62.04C30.24 61.88 30.28 61.68 30.36 61.44C30.44 61.12 30.48 60.84 30.48 60.6C30.64 60.2 30.8 59.72 30.96 59.16C31.12 58.52 31.2 57.96 31.2 57.48C31.36 57 31.48 56.48 31.56 55.92C31.72 55.36 31.84 55 31.92 54.84C31.92 54.76 31.96 54.6 32.04 54.36C32.12 54.12 32.2 53.88 32.28 53.64C32.44 53 32.52 52.56 32.52 52.32C32.52 52.08 32.56 51.8 32.64 51.48C32.8 51.24 32.96 50.64 33.12 49.68C33.28 48.64 33.36 47.96 33.36 47.64C33.52 47.24 33.6 47 33.6 46.92C33.68 46.76 33.72 46.6 33.72 46.44C33.8 46.28 33.84 46.04 33.84 45.72C33.92 45.16 33.96 44.8 33.96 44.64C34.04 44.4 34.16 43.96 34.32 43.32C34.4 43 34.48 42.6 34.56 42.12C34.64 41.64 34.68 41.2 34.68 40.8C34.76 40.64 34.84 40.36 34.92 39.96C35 39.56 35.04 39.24 35.04 39L35.4 36.36V35.4C35.48 35.32 35.56 34.92 35.64 34.2C35.72 33.4 35.76 32.96 35.76 32.88C35.84 32.64 35.88 32.48 35.88 32.4C35.88 32.32 35.84 32.28 35.76 32.28C35.92 32.12 36 31.44 36 30.24C36.08 28.96 36.12 27.72 36.12 26.52C36.12 25.24 36.12 24.56 36.12 24.48C36.2 24.48 36.24 24.4 36.24 24.24C36.24 24 36.2 23.8 36.12 23.64V23.16C36.2 23.16 36.24 23.04 36.24 22.8C36.24 22.48 36.2 21.76 36.12 20.64C35.96 19.12 35.76 18.24 35.52 18C35.52 18 35.48 18 35.4 18C35.4 17.92 35.36 17.88 35.28 17.88C35.12 17.88 35 18.16 34.92 18.72C34.84 19.28 34.8 19.92 34.8 20.64C34.8 21.04 34.76 21.76 34.68 22.8C34.68 23.76 34.68 24.24 34.68 24.24C34.68 24.32 34.68 24.52 34.68 24.84C34.68 25.16 34.64 25.56 34.56 26.04V29.16C34.48 30.36 34.4 31.24 34.32 31.8C34.32 32.28 34.32 32.64 34.32 32.88C34.32 34.24 34.16 35.64 33.84 37.08C33.84 37.32 33.68 38.6 33.36 40.92C33.28 41.08 33.24 41.24 33.24 41.4C33.24 41.56 33.24 41.68 33.24 41.76C33.24 42 33.2 42.16 33.12 42.24C33.12 42.32 33.12 42.48 33.12 42.72C33.12 42.96 33.08 43.16 33 43.32C33 43.64 32.96 43.92 32.88 44.16C32.88 44.32 32.88 44.4 32.88 44.4V44.64C32.88 44.64 32.88 44.68 32.88 44.76L32.64 45.24C32.64 45.24 32.64 45.28 32.64 45.36C32.56 45.76 32.48 46.32 32.4 47.04C32.4 47.76 32.32 48.28 32.16 48.6V49.44C32 49.6 31.92 49.88 31.92 50.28C31.84 50.68 31.76 51.16 31.68 51.72C31.6 52.2 31.56 52.48 31.56 52.56C31.56 52.56 31.52 52.68 31.44 52.92C31.44 53.16 31.44 53.44 31.44 53.76C31.28 53.92 31.2 54.12 31.2 54.36C31.2 54.6 31.2 54.76 31.2 54.84C31.12 55 31.08 55.2 31.08 55.44C31.08 55.6 31.04 55.8 30.96 56.04C30.96 56.36 30.96 56.6 30.96 56.76L30.84 57.24C30.76 57.4 30.72 57.56 30.72 57.72C30.72 57.88 30.68 58.12 30.6 58.44C30.52 58.68 30.44 58.88 30.36 59.04C30.36 59.28 30.32 59.6 30.24 60C30.16 60.4 30.12 60.8 30.12 61.2C29.88 62.08 29.72 62.8 29.64 63.36C29.56 63.92 29.44 64.32 29.28 64.56C29.28 64.64 29.24 64.76 29.16 64.92C29.08 65.08 29.04 65.24 29.04 65.4V65.64ZM33.36 66.12C33.36 66.2 33.36 66.36 33.36 66.6C33.36 66.76 33.32 66.92 33.24 67.08V67.8C33.32 67.8 33.36 67.68 33.36 67.44C33.36 67.2 33.4 66.72 33.48 66C33.56 65.28 33.72 64.16 33.96 62.64C34.04 62.24 34.12 61.84 34.2 61.44C34.28 61.04 34.32 60.68 34.32 60.36C34.48 59.24 34.72 58 35.04 56.64C35.04 56.4 35.04 56.2 35.04 56.04C35.12 55.88 35.16 55.72 35.16 55.56C35.24 54.84 35.32 54.24 35.4 53.76C35.48 53.2 35.6 52.72 35.76 52.32C35.84 52.08 35.88 51.88 35.88 51.72C35.96 51.48 36 51.28 36 51.12C36 50.8 36.08 50.48 36.24 50.16C36.24 49.6 36.36 49.08 36.6 48.6C36.6 48.52 36.6 48.44 36.6 48.36L36.72 47.88C36.72 47.8 36.72 47.72 36.72 47.64C36.8 47.32 36.88 46.92 36.96 46.44C37.12 45.96 37.24 45.52 37.32 45.12C37.4 44.88 37.44 44.6 37.44 44.28C37.52 43.96 37.6 43.52 37.68 42.96C37.76 42.72 37.96 42.08 38.28 41.04C38.6 39.92 38.88 38.84 39.12 37.8C39.44 36.68 39.6 36.04 39.6 35.88C39.76 35.56 39.84 35.32 39.84 35.16C39.84 34.92 39.76 34.76 39.6 34.68C39.52 34.68 39.4 34.76 39.24 34.92C39.08 35.08 38.96 35.24 38.88 35.4C38.88 35.56 38.84 35.68 38.76 35.76C38.76 35.76 38.76 35.8 38.76 35.88C38.6 36.2 38.32 36.96 37.92 38.16C37.6 39.36 37.4 40.12 37.32 40.44C37.32 40.84 37.28 41.04 37.2 41.04C37.2 41.2 37.16 41.4 37.08 41.64C37 41.88 36.92 42.2 36.84 42.6C36.84 42.84 36.8 43.04 36.72 43.2C36.72 43.28 36.72 43.4 36.72 43.56C36.64 43.56 36.6 43.68 36.6 43.92C36.52 44.4 36.48 44.8 36.48 45.12C36.32 45.2 36.2 45.52 36.12 46.08C36.04 46.64 36 47.04 36 47.28C35.92 47.44 35.84 47.8 35.76 48.36C35.68 48.84 35.56 49.64 35.4 50.76C35.32 50.84 35.28 50.88 35.28 50.88V51C35.28 51.08 35.24 51.2 35.16 51.36C35.16 51.52 35.16 51.68 35.16 51.84C35.08 52.24 35.04 52.6 35.04 52.92C35.04 53.16 34.96 53.4 34.8 53.64C34.8 53.72 34.76 53.92 34.68 54.24C34.68 54.48 34.64 54.84 34.56 55.32C34.56 56.76 34.36 58.2 33.96 59.64C33.96 59.96 33.92 60.44 33.84 61.08C33.84 61.64 33.76 62.68 33.6 64.2C33.52 64.68 33.44 65.12 33.36 65.52C33.36 65.84 33.36 66.04 33.36 66.12ZM41.04 89.88C40.96 89.88 40.92 89.92 40.92 90C40.92 90.08 41.08 90.2 41.4 90.36C41.8 90.52 42.88 91.12 44.64 92.16C45.6 92.72 46.16 93 46.32 93C46.8 93.24 47.52 93.6 48.48 94.08C49.52 94.56 50.44 95 51.24 95.4C52.12 95.88 52.6 96.12 52.68 96.12C52.76 96.12 52.96 96.2 53.28 96.36C53.6 96.52 53.88 96.68 54.12 96.84C54.28 97 54.4 97.08 54.48 97.08C54.56 97.08 54.6 97 54.6 96.84C54.6 96.68 54.48 96.56 54.24 96.48C54.08 96.48 53.92 96.48 53.76 96.48C53.52 96.24 53.36 96.12 53.28 96.12C53.12 96.12 52.44 95.84 51.24 95.28C50.12 94.72 48.92 94.12 47.64 93.48C46.44 92.84 45.68 92.4 45.36 92.16L44.52 91.56C43.8 91 43.24 90.68 42.84 90.6C42.44 90.52 42.24 90.44 42.24 90.36C42.24 90.36 42.2 90.32 42.12 90.24C42.04 90.16 41.96 90.12 41.88 90.12C41.72 90.12 41.6 90.08 41.52 90C41.36 89.92 41.24 89.88 41.16 89.88H41.04ZM71.8725 21.24C72.9925 20.52 74.0325 20.16 74.9925 20.16C75.7925 20.16 76.4725 20.48 77.0325 21.12C77.5125 21.68 77.7925 22.32 77.8725 23.04C77.9525 23.68 77.8725 24.32 77.6325 24.96C77.3925 25.52 77.0325 26.08 76.5525 26.64C76.0725 27.12 75.5125 27.48 74.8725 27.72L74.1525 30C74.4725 30.64 74.7125 31.28 74.8725 31.92C76.0725 33.2 77.4725 34.08 79.0725 34.56C80.7525 35.04 82.4725 35.28 84.2325 35.28C85.0325 35.28 85.8325 35.24 86.6325 35.16C87.4325 35.08 88.2325 34.96 89.0325 34.8C89.9125 34.72 90.4725 34.36 90.7125 33.72C91.0325 33.08 91.2725 32.4 91.4325 31.68C92.0725 31.76 92.6725 31.8 93.2325 31.8C93.7925 31.8 94.3925 31.6 95.0325 31.2C96.3925 31.12 97.7525 31.4 99.1125 32.04C100.472 32.68 101.712 33.44 102.832 34.32C103.232 35.44 103.072 36.52 102.352 37.56C101.712 38.52 100.872 39.2 99.8325 39.6C98.3925 40.16 96.9125 40.56 95.3925 40.8C93.9525 40.96 92.4725 41.04 90.9525 41.04C89.3525 41.04 87.7125 40.96 86.0325 40.8C84.4325 40.56 82.8325 40.28 81.2325 39.96C78.9125 39.64 76.8725 38.76 75.1125 37.32C73.3525 35.8 71.8725 34.08 70.6725 32.16C69.9525 33.12 69.0725 34.16 68.0325 35.28C66.9925 36.4 65.8725 37.44 64.6725 38.4C63.4725 39.36 62.1925 40.16 60.8325 40.8C59.5525 41.44 58.2325 41.76 56.8725 41.76C55.5925 41.76 54.3925 41.32 53.2725 40.44C53.3525 39.8 53.4325 39.16 53.5125 38.52C53.6725 37.88 54.1525 37.64 54.9525 37.8C56.7125 38.12 58.2725 37.8 59.6325 36.84C61.0725 35.88 62.3525 34.88 63.4725 33.84C64.4325 32.96 65.2325 32 65.8725 30.96C66.5125 29.84 67.1125 28.72 67.6725 27.6C68.2325 26.4 68.8325 25.28 69.4725 24.24C70.1125 23.12 70.9125 22.12 71.8725 21.24ZM65.8725 34.92C66.1925 34.68 66.4725 34.44 66.7125 34.2C66.9525 33.96 67.1125 33.8 67.1925 33.72C67.5125 33.32 67.8325 32.88 68.1525 32.4C68.4725 31.84 68.6325 31.48 68.6325 31.32C68.6325 31.24 68.5925 31.16 68.5125 31.08C68.4325 31 68.3925 30.96 68.3925 30.96C68.2325 30.96 67.9925 31.16 67.6725 31.56C67.5125 31.8 67.3125 32.04 67.0725 32.28C67.0725 32.28 67.0325 32.32 66.9525 32.4C66.9525 32.48 66.9125 32.6 66.8325 32.76C66.5925 33.16 66.0725 33.68 65.2725 34.32C64.4725 34.96 63.9925 35.32 63.8325 35.4L63.3525 35.76C63.3525 36.08 62.9925 36.48 62.2725 36.96C61.5525 37.44 60.8325 37.88 60.1125 38.28C59.3925 38.6 58.8725 38.76 58.5525 38.76C58.5525 38.76 58.5125 38.76 58.4325 38.76C58.3525 38.76 58.2325 38.8 58.0725 38.88C58.1525 39.12 58.4325 39.24 58.9125 39.24C59.2325 39.24 59.7125 39.16 60.3525 39C60.9925 38.84 61.8325 38.36 62.8725 37.56C63.9125 36.76 64.9125 35.88 65.8725 34.92ZM84.3525 37.44C84.8325 37.76 85.3925 37.84 86.0325 37.68C86.6725 37.52 87.3125 37.4 87.9525 37.32C88.1125 37.24 88.2325 37.24 88.3125 37.32C88.4725 37.32 88.5925 37.32 88.6725 37.32C88.9125 37.4 89.2325 37.44 89.6325 37.44C90.1925 37.44 90.6725 37.24 91.0725 36.84C91.3925 37.24 91.9525 37.36 92.7525 37.2C93.5525 37.2 94.4325 37.08 95.3925 36.84C95.7925 36.76 96.1925 36.68 96.5925 36.6C97.0725 36.52 97.5125 36.28 97.9125 35.88C98.0725 35.72 98.2725 35.52 98.5125 35.28C98.7525 35.04 98.9125 34.84 98.9925 34.68C99.1525 34.52 99.1925 34.44 99.1125 34.44C99.1125 34.36 98.9125 34.48 98.5125 34.8L98.2725 34.92L97.9125 35.04C95.8325 35.68 93.8325 36.04 91.9125 36.12C90.0725 36.2 88.1925 36.36 86.2725 36.6C85.9525 36.68 85.6725 36.72 85.4325 36.72C85.1925 36.72 84.8725 36.76 84.4725 36.84C84.1525 36.84 83.7925 36.88 83.3925 36.96C83.0725 36.96 82.7125 37.04 82.3125 37.2C82.6325 37.52 83.0725 37.56 83.6325 37.32C83.7125 37.4 83.9525 37.44 84.3525 37.44ZM86.2725 39.24C86.4325 39.64 86.7525 39.72 87.2325 39.48C87.7925 39.24 88.2725 39.12 88.6725 39.12C89.5525 39.12 90.4325 39.08 91.3125 39C92.1925 38.84 93.0725 38.8 93.9525 38.88C94.8325 38.88 95.8725 38.72 97.0725 38.4C98.3525 38 99.3525 37.12 100.072 35.76C100.232 35.36 100.272 35.16 100.192 35.16C100.192 35.16 100.072 35.24 99.8325 35.4C99.6725 35.56 99.4725 35.76 99.2325 36C99.0725 36.24 98.9125 36.44 98.7525 36.6C97.0725 37.48 95.4725 37.96 93.9525 38.04C92.5125 38.12 90.9925 38.32 89.3925 38.64L89.6325 38.4C89.3125 38.56 88.9925 38.68 88.6725 38.76C88.4325 38.76 88.1925 38.8 87.9525 38.88L86.2725 39.24ZM75.5925 35.64C75.5925 35.64 75.5925 35.68 75.5925 35.76C75.5925 35.76 75.6325 35.8 75.7125 35.88C75.7925 35.96 75.9125 36 76.0725 36C76.0725 36 76.1125 36 76.1925 36C76.1925 35.92 76.1525 35.84 76.0725 35.76C75.8325 35.68 75.6725 35.64 75.5925 35.64ZM78.1125 36.6C77.3925 36.36 76.9925 36.24 76.9125 36.24C76.8325 36.24 76.7925 36.24 76.7925 36.24C76.7925 36.32 76.8725 36.4 77.0325 36.48L77.3925 36.72C77.9525 37.04 78.3925 37.2 78.7125 37.2C78.7125 37.2 78.7525 37.2 78.8325 37.2C78.9925 37.2 79.0725 37.16 79.0725 37.08C79.0725 37 78.7525 36.84 78.1125 36.6ZM82.1925 38.64C81.2325 38.56 80.5125 38.52 80.0325 38.52C79.7925 38.52 79.6725 38.52 79.6725 38.52C79.6725 38.6 79.9125 38.72 80.3925 38.88C80.8725 38.96 81.1925 39 81.3525 39C81.4325 39 81.4725 39 81.4725 39C81.4725 39 81.5525 39 81.7125 39C81.8725 39 82.1125 39.04 82.4325 39.12C83.3925 39.36 84.1125 39.48 84.5925 39.48C84.9125 39.48 85.1125 39.44 85.1925 39.36C85.2725 39.28 85.3125 39.24 85.3125 39.24C85.3125 39.16 85.3125 39.12 85.3125 39.12C85.3125 39.12 85.2325 39.12 85.0725 39.12C84.9125 39.12 84.5525 39.08 83.9925 39C83.4325 38.84 82.8325 38.72 82.1925 38.64ZM70.4325 42.36C70.4325 42.44 70.6725 42.56 71.1525 42.72C71.6325 42.88 71.9525 42.96 72.1125 42.96C72.1925 42.96 72.2725 43 72.3525 43.08H72.9525C73.1125 43.08 73.2725 43.16 73.4325 43.32C73.5125 43.56 73.6325 43.68 73.7925 43.68C73.9525 43.68 74.3525 43.96 74.9925 44.52C75.6325 45.08 76.0325 45.48 76.1925 45.72C76.1925 45.88 76.2725 45.96 76.4325 45.96C76.5925 45.96 76.9125 46.2 77.3925 46.68C77.8725 47.16 78.1125 47.44 78.1125 47.52C78.1125 47.52 78.1525 47.64 78.2325 47.88C78.3125 48.04 78.4325 48.16 78.5925 48.24C78.6725 48.48 78.7125 48.68 78.7125 48.84C78.7925 48.92 78.8325 49 78.8325 49.08C79.0725 49.32 79.1925 49.64 79.1925 50.04C79.2725 50.36 79.3125 50.6 79.3125 50.76C79.3125 51.16 79.2725 51.48 79.1925 51.72C79.1925 51.88 79.1925 52.04 79.1925 52.2C79.1925 52.76 79.4325 53.08 79.9125 53.16C80.1525 53.16 80.3925 53.2 80.6325 53.28H82.1925C84.2725 53.44 85.5525 54.08 86.0325 55.2C86.0325 55.36 86.1525 55.44 86.3925 55.44C86.3925 55.44 86.3925 55.52 86.3925 55.68C86.4725 55.76 86.5125 55.88 86.5125 56.04C86.5925 56.2 86.6325 56.36 86.6325 56.52C86.7125 56.68 86.8325 56.8 86.9925 56.88C87.2325 56.88 87.3525 57.04 87.3525 57.36C87.3525 57.36 87.3525 57.4 87.3525 57.48C87.3525 57.64 87.2325 58.08 86.9925 58.8C86.8325 59.44 86.6725 59.76 86.5125 59.76C86.4325 59.84 86.3925 60 86.3925 60.24C86.3925 60.32 86.3125 60.48 86.1525 60.72C86.0725 60.96 85.9925 61.28 85.9125 61.68C85.1925 63.68 84.7125 65.08 84.4725 65.88C84.3125 66.6 84.2325 67.12 84.2325 67.44C84.3125 67.52 84.3525 67.6 84.3525 67.68C84.4325 67.76 84.4725 67.8 84.4725 67.8C84.6325 67.8 84.7125 67.84 84.7125 67.92C84.7925 67.92 84.8325 67.92 84.8325 67.92C84.8325 68 84.7525 68.08 84.5925 68.16C84.5125 68.16 84.4725 68.16 84.4725 68.16C84.3125 68.16 84.1925 68.12 84.1125 68.04C83.7925 67.72 83.6325 67.16 83.6325 66.36C83.6325 65.96 83.6325 65.56 83.6325 65.16C83.6325 64.84 83.6325 64.44 83.6325 63.96C83.7125 63.4 83.7925 63.08 83.8725 63L84.1125 62.76C84.0325 62.76 83.9925 62.68 83.9925 62.52C83.9925 62.28 84.0325 61.88 84.1125 61.32C84.2725 60.76 84.3925 60.4 84.4725 60.24C84.4725 60.24 84.4725 60.2 84.4725 60.12C84.4725 60.12 84.4325 60.12 84.3525 60.12C84.2725 60.12 84.2325 60.12 84.2325 60.12C84.2325 60.2 84.2325 60.24 84.2325 60.24V60.48C84.0725 60.56 83.8725 60.84 83.6325 61.32C83.4725 61.8 83.3925 62.16 83.3925 62.4C83.3925 62.48 83.3525 62.64 83.2725 62.88C83.1925 63.04 83.1125 63.2 83.0325 63.36C82.9525 63.52 82.9125 63.72 82.9125 63.96C82.9125 64.12 82.9125 64.28 82.9125 64.44C82.9125 64.68 82.8725 64.8 82.7925 64.8C82.7925 64.96 82.7125 65.36 82.5525 66C82.4725 66.56 82.3525 66.92 82.1925 67.08C82.1925 67.24 82.1525 67.36 82.0725 67.44C82.0725 67.52 82.0725 67.6 82.0725 67.68V68.16C82.0725 68.16 82.0325 68.36 81.9525 68.76C81.9525 69.16 81.8725 70 81.7125 71.28C81.7125 71.44 81.7125 71.64 81.7125 71.88C81.7125 72.12 81.6725 72.32 81.5925 72.48C81.5925 72.88 81.6325 73.44 81.7125 74.16C81.8725 74.88 82.0325 75.56 82.1925 76.2C82.5125 75.88 82.8725 75.56 83.2725 75.24C83.6725 74.84 83.8725 74.6 83.8725 74.52C83.8725 74.28 84.1925 73.92 84.8325 73.44C84.9925 73.12 85.2725 72.76 85.6725 72.36C86.0725 71.88 86.4325 71.44 86.7525 71.04C87.0725 70.64 87.4325 70.24 87.8325 69.84C88.2325 69.44 88.4725 69.16 88.5525 69C89.5125 67.8 90.2725 66.92 90.8325 66.36C90.9125 66.28 90.9525 66.2 90.9525 66.12L91.3125 65.64C91.3925 65.56 91.4325 65.48 91.4325 65.4C91.5125 65.32 91.6325 65.16 91.7925 64.92C91.9525 64.68 92.1125 64.4 92.2725 64.08C92.5125 63.44 92.7525 63.12 92.9925 63.12C93.0725 63.12 93.1125 63.16 93.1125 63.24C93.1125 63.24 93.0725 63.32 92.9925 63.48C92.8325 63.8 92.4725 64.44 91.9125 65.4C91.4325 66.36 90.8725 67.4 90.2325 68.52C89.5925 69.56 88.9925 70.52 88.4325 71.4C87.9525 72.2 87.6325 72.6 87.4725 72.6C87.4725 72.76 87.2325 73.24 86.7525 74.04C86.2725 74.84 85.9525 75.28 85.7925 75.36C85.6325 75.44 85.3125 76.12 84.8325 77.4C84.4325 78.68 84.1925 79.52 84.1125 79.92C84.1125 80 84.0725 80.12 83.9925 80.28C83.9125 80.44 83.7925 80.68 83.6325 81C83.4725 81.08 83.1525 81.12 82.6725 81.12C81.6325 81.12 80.7125 80.72 79.9125 79.92C79.1125 79.12 78.5125 78.36 78.1125 77.64C77.7125 76.92 77.5125 76.44 77.5125 76.2C77.5125 76.12 77.5525 76.08 77.6325 76.08C77.6325 76 77.5525 75.88 77.3925 75.72C77.3925 75.72 77.3125 75.64 77.1525 75.48C77.0725 75.24 76.9925 74.96 76.9125 74.64C76.6725 74.24 76.4725 73.8 76.3125 73.32C76.2325 72.84 76.1125 72.08 75.9525 71.04C75.7925 70.4 75.6725 69.88 75.5925 69.48C75.5925 69.08 75.5925 68.8 75.5925 68.64C75.5925 68.32 75.6325 68.12 75.7125 68.04V65.88C75.7925 65.88 75.8325 65.72 75.8325 65.4C75.7525 65.24 75.7125 65 75.7125 64.68C75.7125 64.28 75.7525 63.84 75.8325 63.36C75.9125 62.96 75.9525 62.6 75.9525 62.28C75.9525 61.96 75.9525 61.76 75.9525 61.68C76.1125 61.28 76.1925 60.96 76.1925 60.72C76.2725 60.48 76.3525 60.28 76.4325 60.12V59.76C76.4325 59.76 76.3925 59.76 76.3125 59.76C76.2325 59.76 76.1125 59.8 75.9525 59.88C75.8725 60.04 75.7125 60.32 75.4725 60.72L74.8725 61.56C74.6325 61.96 74.4725 62.24 74.3925 62.4C74.3125 62.48 74.1925 62.68 74.0325 63C73.8725 63.24 73.7125 63.48 73.5525 63.72C73.3925 63.88 73.2325 64.08 73.0725 64.32C72.9125 64.56 72.7925 64.76 72.7125 64.92C72.6325 65.08 72.4725 65.32 72.2325 65.64C72.0725 65.96 71.9525 66.16 71.8725 66.24C71.7125 66.56 71.3125 67.12 70.6725 67.92C70.1125 68.64 69.8325 69.04 69.8325 69.12C69.6725 69.52 69.2725 70.2 68.6325 71.16C68.0725 72.04 67.6325 72.56 67.3125 72.72C67.2325 73.12 67.0725 73.4 66.8325 73.56C66.6725 73.64 66.5925 73.8 66.5925 74.04C66.5125 74.28 66.3525 74.48 66.1125 74.64C65.8725 74.72 65.7525 74.84 65.7525 75C65.7525 75.16 65.7125 75.32 65.6325 75.48C65.6325 75.64 65.5525 75.8 65.3925 75.96C65.2325 76.12 65.0325 76.36 64.7925 76.68C64.5525 76.92 64.3525 77.16 64.1925 77.4C64.0325 77.56 63.6325 77.96 62.9925 78.6C62.4325 79.16 61.8325 79.72 61.1925 80.28C60.5525 80.84 60.1125 81.12 59.8725 81.12C59.3925 81.12 59.1525 81.16 59.1525 81.24H58.5525C58.1525 81.24 57.9525 81.16 57.9525 81C57.9525 81 57.9125 80.96 57.8325 80.88C57.8325 80.8 57.7925 80.76 57.7125 80.76C57.3925 80.76 56.8725 80.4 56.1525 79.68C55.4325 78.96 55.0325 78.44 54.9525 78.12C54.9525 77.96 54.8725 77.8 54.7125 77.64C54.7125 77.64 54.6325 77.6 54.4725 77.52C54.3925 77.36 54.3525 77.16 54.3525 76.92L53.6325 74.76C53.3125 73.88 53.1525 73.04 53.1525 72.24C53.1525 71.92 53.1925 71.44 53.2725 70.8C53.4325 70.08 53.7925 69.2 54.3525 68.16C54.4325 67.92 54.5125 67.72 54.5925 67.56L55.0725 66.12C55.1525 65.88 55.2325 65.68 55.3125 65.52C55.7925 64.16 56.2725 62.8 56.7525 61.44C57.3125 60.08 57.9125 58.76 58.5525 57.48C58.6325 57.32 58.7125 57.24 58.7925 57.24C58.8725 57.16 58.9125 57.04 58.9125 56.88C59.0725 56.4 59.2325 55.96 59.3925 55.56C59.5525 55.08 59.7925 54.6 60.1125 54.12C60.5125 53.48 60.9925 52.68 61.5525 51.72C62.1925 50.76 62.5925 49.96 62.7525 49.32C62.8325 48.92 62.9125 48.72 62.9925 48.72C63.1525 48.56 63.3525 48.12 63.5925 47.4C63.8325 46.6 64.0325 46.16 64.1925 46.08C64.2725 46.08 64.3125 46.08 64.3125 46.08C64.3125 46 64.2725 45.96 64.1925 45.96C64.1925 45.96 64.2325 45.8 64.3125 45.48V45.36C64.2325 45.44 63.9125 45.76 63.3525 46.32C62.7925 46.88 62.2325 47.48 61.6725 48.12C61.1125 48.76 60.7925 49.16 60.7125 49.32C60.6325 49.48 60.3925 49.76 59.9925 50.16C59.9125 50.24 59.6325 50.56 59.1525 51.12C58.7525 51.68 58.3925 52.2 58.0725 52.68C57.7525 53.08 57.5925 53.36 57.5925 53.52C57.5925 53.6 57.6325 53.64 57.7125 53.64C57.5525 53.64 57.4725 53.56 57.4725 53.4C57.4725 53.16 57.5525 52.8 57.7125 52.32C57.9525 51.84 58.2725 51.28 58.6725 50.64C59.0725 49.92 59.3125 49.48 59.3925 49.32C59.5525 49.16 59.7125 48.92 59.8725 48.6C60.0325 48.28 60.2325 47.92 60.4725 47.52C60.7925 46.96 61.1125 46.48 61.4325 46.08C61.7525 45.68 62.2325 44.96 62.8725 43.92C63.4325 43.04 63.9525 42.4 64.4325 42C64.9925 41.6 65.7925 41.4 66.8325 41.4C66.9125 41.48 67.0325 41.52 67.1925 41.52C67.5125 41.52 68.1125 41.64 68.9925 41.88C69.9525 42.12 70.4325 42.28 70.4325 42.36ZM54.5925 73.32C54.5925 73.08 54.6725 72.6 54.8325 71.88C55.0725 71.08 55.2725 70.6 55.4325 70.44C55.5125 70.2 55.5925 70 55.6725 69.84L55.9125 69.36C55.9925 69.2 56.0725 69 56.1525 68.76C57.1925 65.56 58.3925 62.44 59.7525 59.4C61.1125 56.28 62.8725 53.44 65.0325 50.88C65.3525 50.48 65.5125 50.16 65.5125 49.92C65.5125 49.76 65.3925 49.68 65.1525 49.68C64.9925 49.68 64.8725 49.72 64.7925 49.8C64.3925 50.12 63.8725 50.8 63.2325 51.84C62.5925 52.88 61.8725 54.08 61.0725 55.44C60.3525 56.8 59.6725 58.08 59.0325 59.28C58.4725 60.4 58.1125 61.2 57.9525 61.68C57.9525 61.76 57.9125 61.88 57.8325 62.04L57.7125 62.88C57.7125 63.04 57.6725 63.16 57.5925 63.24L57.4725 63.36C57.1525 64.16 56.7925 64.96 56.3925 65.76C55.9925 66.48 55.7525 67.28 55.6725 68.16C55.5925 68.72 55.4325 69.28 55.1925 69.84L54.7125 70.92C54.4725 71.4 54.3125 71.96 54.2325 72.6C54.2325 72.84 54.2325 73 54.2325 73.08C54.2325 73.4 54.2725 73.56 54.3525 73.56C54.3525 73.56 54.3925 73.56 54.4725 73.56C54.5525 73.48 54.5925 73.4 54.5925 73.32ZM71.1525 53.16C70.5125 53.64 70.1925 53.88 70.1925 53.88C70.1925 53.88 69.9525 54.12 69.4725 54.6C68.9925 55.08 68.5525 55.56 68.1525 56.04C67.7525 56.44 67.5525 56.72 67.5525 56.88C67.5525 56.96 67.5125 57.04 67.4325 57.12C67.3525 57.2 67.3125 57.24 67.3125 57.24C67.2325 57.24 66.8725 57.68 66.2325 58.56C65.5925 59.44 65.1525 60.08 64.9125 60.48C64.9125 60.64 64.8725 60.76 64.7925 60.84C64.7125 60.92 64.6725 61 64.6725 61.08C64.5125 61.08 64.3925 61.16 64.3125 61.32C64.2325 61.48 64.1525 61.64 64.0725 61.8C63.9925 61.96 63.7925 62.4 63.4725 63.12C63.1525 63.76 62.9525 64.12 62.8725 64.2C62.7925 64.52 62.6725 64.84 62.5125 65.16C62.3525 65.48 62.1925 65.84 62.0325 66.24V66.36C62.3525 66.12 62.7925 65.56 63.3525 64.68C63.9925 63.72 64.4325 63 64.6725 62.52C64.7525 62.36 64.9125 62.12 65.1525 61.8C65.3925 61.48 65.6325 61.16 65.8725 60.84C66.5125 60.04 67.1125 59.32 67.6725 58.68C68.3125 58.04 68.7125 57.72 68.8725 57.72C68.9525 57.72 68.9925 57.72 68.9925 57.72C68.9925 57.72 68.9925 57.76 68.9925 57.84C68.9925 58.08 68.8325 58.36 68.5125 58.68C68.1125 59.16 67.6325 59.76 67.0725 60.48C66.5925 61.2 66.3525 61.6 66.3525 61.68C66.3525 61.76 66.2725 61.88 66.1125 62.04C65.1525 63.64 64.2725 65.24 63.4725 66.84C63.3925 67 63.2725 67.16 63.1125 67.32C63.0325 67.4 62.9925 67.44 62.9925 67.44C62.8325 68.4 62.4725 69.24 61.9125 69.96C61.7525 70.2 61.5925 70.48 61.4325 70.8C61.3525 71.04 61.2725 71.24 61.1925 71.4C61.1125 71.4 61.0725 71.52 61.0725 71.76C60.7525 72 60.5925 72.2 60.5925 72.36C60.7525 72.52 60.8325 72.64 60.8325 72.72C60.8325 72.72 60.7925 72.72 60.7125 72.72C60.7125 72.64 60.7125 72.6 60.7125 72.6C60.7125 72.6 60.6325 72.76 60.4725 73.08C60.2325 73.48 59.9525 74 59.6325 74.64C59.3125 75.2 59.1525 75.72 59.1525 76.2C59.0725 76.2 59.0325 76.2 59.0325 76.2C59.0325 76.28 59.0725 76.36 59.1525 76.44C59.2325 76.6 59.3125 76.68 59.3925 76.68C59.4725 76.68 59.7125 76.48 60.1125 76.08C61.4725 74.96 62.9125 73.52 64.4325 71.76C65.9525 69.92 67.2325 68.24 68.2725 66.72C68.5925 66.16 68.8725 65.64 69.1125 65.16C69.4325 64.68 69.7925 64.24 70.1925 63.84C70.3525 63.68 70.5525 63.48 70.7925 63.24C71.0325 63 71.1525 62.8 71.1525 62.64C71.1525 62.48 71.1925 62.36 71.2725 62.28C71.5125 62.28 71.8325 61.84 72.2325 60.96C72.6325 60.24 72.9125 59.88 73.0725 59.88C73.0725 59.88 73.1125 59.88 73.1925 59.88C73.2725 59.8 73.3125 59.72 73.3125 59.64C73.2325 59.56 73.1925 59.52 73.1925 59.52C73.2725 59.44 73.3525 59.4 73.4325 59.4L73.6725 59.04C73.6725 58.96 73.7125 58.8 73.7925 58.56C73.9525 58.32 74.0725 58.12 74.1525 57.96C74.2325 57.72 74.3525 57.48 74.5125 57.24C74.6725 56.92 74.7925 56.68 74.8725 56.52C74.8725 56.36 74.9125 56.16 74.9925 55.92C75.0725 55.6 75.1525 55.36 75.2325 55.2C75.4725 54.72 75.5925 54.44 75.5925 54.36C75.5925 54.2 75.5925 54.04 75.5925 53.88C75.5925 53.72 75.6325 53.52 75.7125 53.28C75.7125 53.12 75.7125 52.96 75.7125 52.8C75.7125 52.48 75.6725 52.28 75.5925 52.2C75.1125 51.88 74.6325 51.72 74.1525 51.72C73.9125 51.72 73.7925 51.76 73.7925 51.84L72.7125 52.44C71.9125 52.6 71.5125 52.8 71.5125 53.04C71.3525 53.04 71.2325 53.08 71.1525 53.16ZM77.1525 63.84C77.1525 63.92 77.1125 64.12 77.0325 64.44C77.0325 64.76 77.0325 65.12 77.0325 65.52C76.8725 66.64 76.7925 67.72 76.7925 68.76C76.7925 69.08 76.7925 69.64 76.7925 70.44C76.8725 71.24 77.0725 71.92 77.3925 72.48C78.0325 73.6 78.4325 74.16 78.5925 74.16C78.6725 74.16 78.7125 74.16 78.7125 74.16C78.7925 74.08 78.8325 74 78.8325 73.92C78.8325 73.92 78.7925 73.92 78.7125 73.92C78.4725 73.68 78.2725 73.12 78.1125 72.24C77.9525 71.36 77.8325 70.68 77.7525 70.2C77.7525 69.64 77.7525 69.28 77.7525 69.12C77.7525 68.56 77.8325 68.2 77.9925 68.04V67.44C77.9125 67.36 77.8725 67.08 77.8725 66.6C77.8725 66.36 77.8725 65.92 77.8725 65.28C77.9525 64.56 78.0325 63.96 78.1125 63.48C78.1125 63.32 78.1525 63.2 78.2325 63.12C78.3125 63.04 78.3525 63 78.3525 63C78.3525 62.68 78.3925 62.36 78.4725 62.04C78.5525 61.8 78.5925 61.6 78.5925 61.44C78.5925 61.2 78.5125 61.08 78.3525 61.08C78.1125 61.08 77.8725 61.4 77.6325 62.04C77.3925 62.68 77.2325 63.28 77.1525 63.84ZM89.8462 46.92C89.6862 46.92 89.3262 46.68 88.7662 46.2C88.2062 45.72 87.9262 45.24 87.9262 44.76V43.92C88.0862 43.52 88.3262 43.16 88.6462 42.84C88.8862 42.52 89.2862 42.36 89.8462 42.36C90.8862 42.52 91.4862 42.84 91.6462 43.32C91.6462 43.48 91.6862 43.56 91.7662 43.56C91.7662 43.64 91.7662 43.68 91.7662 43.68C91.8462 43.68 91.9262 43.68 92.0062 43.68C92.1662 43.68 92.3262 43.76 92.4862 43.92C92.8862 44.32 93.2462 44.56 93.5662 44.64C93.9662 44.72 94.4462 44.76 95.0062 44.76C95.3262 44.6 95.6462 44.52 95.9662 44.52C96.6062 44.52 97.0462 44.68 97.2862 45C97.4462 45.16 97.6462 45.24 97.8862 45.24C97.9662 45.24 98.0862 45.36 98.2462 45.6C98.4062 45.84 98.5262 46.04 98.6062 46.2C98.6062 46.44 98.6862 46.76 98.8462 47.16C99.0862 47.48 99.2462 47.64 99.3262 47.64C99.3262 47.64 99.3662 47.72 99.4462 47.88C99.5262 48.04 99.6062 48.16 99.6862 48.24C99.8462 48.64 99.9262 49.04 99.9262 49.44C99.9262 49.92 99.8062 50.44 99.5662 51L99.3262 51.72C99.3262 51.88 99.2062 52.16 98.9662 52.56C98.8062 52.96 98.6862 53.2 98.6062 53.28C98.6062 53.28 98.6062 53.32 98.6062 53.4C98.6062 53.4 98.5662 53.48 98.4862 53.64C98.4062 53.8 98.3262 53.92 98.2462 54C98.1662 54.08 98.1262 54.2 98.1262 54.36C98.1262 54.52 98.0462 54.92 97.8862 55.56C97.6462 56.44 97.4862 57.24 97.4062 57.96C97.3262 58.6 97.2462 59.68 97.1662 61.2C97.1662 61.68 97.1662 62.44 97.1662 63.48C97.1662 64.52 97.1262 65.4 97.0462 66.12C97.0462 66.76 97.0462 67.24 97.0462 67.56C97.0462 68.12 97.0862 68.52 97.1662 68.76C97.1662 68.92 97.1662 69 97.1662 69C97.2462 69 97.3262 68.8 97.4062 68.4C97.4062 68.32 97.5662 67.8 97.8862 66.84C98.2862 65.88 98.5262 65.32 98.6062 65.16C98.6062 65 98.6062 64.84 98.6062 64.68C98.6862 64.52 98.7662 64.32 98.8462 64.08C99.0062 64 99.0862 63.88 99.0862 63.72C99.1662 63.56 99.2062 63.48 99.2062 63.48C99.1262 63.48 99.0862 63.48 99.0862 63.48C99.1662 63.4 99.2462 63.28 99.3262 63.12C99.4062 62.72 99.4862 62.52 99.5662 62.52C99.5662 62.2 99.7262 61.76 100.046 61.2C100.126 61.04 100.206 60.88 100.286 60.72C100.446 60.48 100.526 60.36 100.526 60.36C100.526 60.28 100.486 60.24 100.406 60.24C100.406 60.24 100.486 60.08 100.646 59.76C100.806 59.44 100.966 59.08 101.126 58.68C101.366 58.12 101.606 57.6 101.846 57.12C102.166 56.64 102.366 56.24 102.446 55.92C102.526 55.6 102.606 55.32 102.686 55.08C102.766 54.76 102.846 54.52 102.926 54.36C103.246 53.72 103.486 53.12 103.646 52.56C103.806 51.92 103.886 51.48 103.886 51.24C103.886 51.16 103.886 51.12 103.886 51.12C103.886 50.96 103.926 50.84 104.006 50.76C104.006 50.6 104.046 50.44 104.126 50.28C104.206 50.12 104.246 49.92 104.246 49.68C104.166 49.44 104.126 49.28 104.126 49.2C104.126 49.12 104.126 49.04 104.126 48.96C104.206 48.8 104.246 48.68 104.246 48.6C104.246 48.6 104.246 48.52 104.246 48.36C104.326 48.2 104.366 48.08 104.366 48C104.446 47.68 104.646 47.36 104.966 47.04C105.366 46.64 105.726 46.36 106.046 46.2C106.526 46.2 107.046 46.4 107.606 46.8C107.926 46.88 108.166 46.96 108.326 47.04C108.486 47.12 108.646 47.16 108.806 47.16C108.886 47.16 108.966 47.08 109.046 46.92C109.206 46.68 109.486 46.48 109.886 46.32C110.286 46.08 110.566 45.96 110.726 45.96C110.886 45.96 111.486 46.24 112.526 46.8C113.566 47.36 114.246 47.8 114.566 48.12C114.966 48.52 115.406 48.84 115.886 49.08C116.366 49.4 116.606 49.6 116.606 49.68C116.606 49.68 116.606 49.72 116.606 49.8C116.686 49.8 116.766 49.8 116.846 49.8C117.166 49.8 117.606 50.04 118.166 50.52C118.806 50.92 119.246 51.24 119.486 51.48C119.646 51.64 119.726 51.8 119.726 51.96C119.726 52.12 119.686 52.28 119.606 52.44C119.606 52.68 119.446 53 119.126 53.4C118.806 53.72 118.566 53.88 118.406 53.88C118.006 53.88 117.526 54.48 116.966 55.68C116.406 56.88 116.046 58.16 115.886 59.52C115.886 60.48 115.766 60.96 115.526 60.96C115.526 60.96 115.446 61.6 115.286 62.88C115.206 64.08 115.126 65.2 115.046 66.24C115.046 67.2 115.046 67.88 115.046 68.28C115.046 68.68 115.046 68.92 115.046 69C115.126 69 115.166 69.16 115.166 69.48C115.246 70.44 115.326 71.12 115.406 71.52C115.566 71.92 115.806 72.36 116.126 72.84C116.366 73.24 116.726 73.44 117.206 73.44C117.286 73.44 117.326 73.36 117.326 73.2C117.406 73.12 117.486 73.08 117.566 73.08C117.886 73.08 118.326 72.64 118.886 71.76C119.526 70.88 120.046 70.28 120.446 69.96L122.606 67.8C122.926 67.4 123.246 67.04 123.566 66.72C123.886 66.32 124.086 66.08 124.166 66C124.486 65.36 124.886 64.84 125.366 64.44C125.846 64.04 126.166 63.72 126.326 63.48C126.566 63.16 126.806 62.8 127.046 62.4C127.366 62 127.566 61.64 127.646 61.32C127.886 60.76 128.166 60.48 128.486 60.48V60.96C128.326 61.36 127.846 62.24 127.046 63.6C126.326 64.88 125.566 66.16 124.766 67.44C123.966 68.64 123.486 69.24 123.326 69.24C123.246 69.24 123.206 69.36 123.206 69.6C123.206 69.68 123.006 70 122.606 70.56C122.206 71.12 121.886 71.56 121.646 71.88C121.566 72.04 121.326 72.68 120.926 73.8C120.526 74.92 120.246 75.68 120.086 76.08C120.006 76.24 119.886 76.52 119.726 76.92L118.646 79.08C118.566 79.24 118.486 79.44 118.406 79.68C118.246 80.08 118.166 80.28 118.166 80.28C118.166 80.28 118.126 80.32 118.046 80.4C117.966 80.48 117.846 80.56 117.686 80.64C117.526 81.04 117.166 81.24 116.606 81.24C116.366 81.24 116.166 81.24 116.006 81.24C115.846 81.16 115.646 81.08 115.406 81C115.166 80.92 114.886 80.84 114.566 80.76C114.326 80.6 114.046 80.52 113.726 80.52C113.486 80.52 113.286 80.56 113.126 80.64C112.966 80.64 112.806 80.64 112.646 80.64C112.566 80.72 112.486 80.76 112.406 80.76C111.926 80.76 111.486 80.32 111.086 79.44C110.686 78.48 110.486 77.8 110.486 77.4V76.08C110.646 76 110.726 75.72 110.726 75.24C110.886 74.76 110.966 74.12 110.966 73.32C111.046 72.84 111.086 71.88 111.086 70.44C111.086 69 111.046 67.52 110.966 66C110.966 65.92 110.966 65.52 110.966 64.8C110.966 64.08 111.006 63.32 111.086 62.52C111.166 61.64 111.206 60.92 111.206 60.36C111.206 59.72 111.166 59.2 111.086 58.8C111.006 58.4 110.886 58.2 110.726 58.2C110.406 58.2 110.206 58.52 110.126 59.16C110.126 59.48 110.086 59.8 110.006 60.12C110.006 60.44 110.006 60.68 110.006 60.84C109.766 61.64 109.606 62.4 109.526 63.12C109.526 63.76 109.526 64.2 109.526 64.44C109.526 65.24 109.606 65.8 109.766 66.12C109.846 66.28 109.886 66.4 109.886 66.48C109.886 66.48 109.846 66.48 109.766 66.48C109.766 66.48 109.686 66.4 109.526 66.24C109.366 66.08 109.206 65.76 109.046 65.28C108.966 65.04 108.886 64.44 108.806 63.48C108.806 62.52 108.806 61.52 108.806 60.48C108.806 59.44 108.846 58.72 108.926 58.32C108.926 57.76 108.886 57.44 108.806 57.36C108.726 57.28 108.686 56.84 108.686 56.04C108.686 55.24 108.566 54.84 108.326 54.84C108.326 54.84 108.286 54.84 108.206 54.84C108.046 54.84 107.806 55.04 107.486 55.44C107.166 55.84 106.726 56.36 106.166 57C105.366 58.44 104.646 59.92 104.006 61.44C103.446 62.88 103.046 64.44 102.806 66.12C102.806 66.28 102.766 66.44 102.686 66.6C102.606 66.76 102.526 66.92 102.446 67.08C102.366 67.24 102.326 67.36 102.326 67.44C102.326 67.52 102.366 67.56 102.446 67.56C102.446 67.88 102.406 68.04 102.326 68.04C102.326 68.68 102.166 69.4 101.846 70.2C101.686 70.68 101.606 71.08 101.606 71.4C101.606 71.56 101.566 71.68 101.486 71.76C101.486 71.84 101.486 71.88 101.486 71.88C101.246 71.88 101.126 72.08 101.126 72.48C101.126 72.56 101.086 72.84 101.006 73.32C101.006 73.8 100.966 74.28 100.886 74.76C100.726 75.8 100.646 76.32 100.646 76.32C100.966 75.52 101.246 74.76 101.486 74.04C101.806 73.24 102.086 72.44 102.326 71.64C102.406 71.48 102.486 71.28 102.566 71.04L103.046 69.6C103.126 69.6 103.166 69.68 103.166 69.84C103.166 70.16 103.086 70.68 102.926 71.4C102.846 71.88 102.766 72.4 102.686 72.96C102.606 73.52 102.526 73.96 102.446 74.28C102.286 75.32 102.166 76 102.086 76.32C102.086 76.56 101.966 77 101.726 77.64C101.646 77.96 101.566 78.28 101.486 78.6C101.486 78.92 101.486 79.12 101.486 79.2C101.406 79.52 101.166 79.84 100.766 80.16C100.366 80.48 99.9662 80.64 99.5662 80.64C99.4062 80.56 99.2462 80.52 99.0862 80.52C98.9262 80.52 98.8062 80.56 98.7262 80.64C98.7262 80.72 98.5262 80.76 98.1262 80.76C97.5662 80.6 96.8062 80.36 95.8462 80.04C94.8862 79.64 94.2062 79.24 93.8062 78.84C93.7262 78.68 93.6862 78.12 93.6862 77.16C93.6862 76.12 93.7662 75.12 93.9262 74.16C94.0862 73.12 94.2462 72.52 94.4062 72.36C94.4062 72.28 94.4062 72.2 94.4062 72.12L94.5262 71.88C94.5262 71.8 94.5262 71.72 94.5262 71.64C94.5262 71.48 94.5262 71.32 94.5262 71.16C94.6062 70.92 94.6462 70.68 94.6462 70.44C94.6462 70.28 94.6862 70.12 94.7662 69.96C94.8462 69.8 94.8862 69.68 94.8862 69.6C94.7262 68 94.6062 66.24 94.5262 64.32C94.4462 62.32 94.3662 60.48 94.2862 58.8C94.2062 57.12 94.1662 55.8 94.1662 54.84C94.0062 53.8 93.9262 53.12 93.9262 52.8C93.9262 52.72 93.9262 52.68 93.9262 52.68C94.0062 52.68 94.0462 52.64 94.0462 52.56C94.0462 52.48 93.9262 52.44 93.6862 52.44C93.5262 52.52 93.4462 52.72 93.4462 53.04C93.4462 53.12 93.4462 53.24 93.4462 53.4C93.6062 54.2 93.6862 54.92 93.6862 55.56C93.7662 55.88 93.8062 56.28 93.8062 56.76C93.8062 57.16 93.8462 57.48 93.9262 57.72C93.9262 58.44 93.8862 58.8 93.8062 58.8C93.7262 58.8 93.6862 58.68 93.6862 58.44C93.6862 58.2 93.6462 58.04 93.5662 57.96C93.5662 57.8 93.4462 57.36 93.2062 56.64C93.0462 55.84 92.8462 55.08 92.6062 54.36C92.3662 53.56 92.2462 53.16 92.2462 53.16C92.2462 53.16 92.2062 53.32 92.1262 53.64C92.1262 53.88 92.1262 54.24 92.1262 54.72C92.0462 56.08 91.9662 57.56 91.8862 59.16C91.8062 60.68 91.7262 62.08 91.6462 63.36C91.5662 64.56 91.4862 65.28 91.4062 65.52L91.2862 65.88C91.0462 65.88 90.9262 65.08 90.9262 63.48C90.9262 62.36 90.8862 61.16 90.8062 59.88C90.8062 58.6 90.7662 57.52 90.6862 56.64C90.6062 56.08 90.5262 55.04 90.4462 53.52C90.3662 52 90.2862 50.72 90.2062 49.68C90.2062 48.88 90.1662 48.24 90.0862 47.76C90.0062 47.2 89.9262 46.92 89.8462 46.92Z" fill="white"/>
</svg>
