<svg width="150" height="120" viewBox="0 0 150 120" fill="none" xmlns="http://www.w3.org/2000/svg">
<path d="M-3.93987e-05 88.92L0.23996 88.68C0.399961 88.52 0.559961 88.44 0.71996 88.44C0.71996 88.12 1.39996 87.72 2.75996 87.24C4.11996 86.84 5.51996 86.44 6.95996 86.04C8.31996 85.72 9.11996 85.56 9.35996 85.56C9.43996 85.48 9.55996 85.44 9.71996 85.44C9.79996 85.44 9.91996 85.4 10.08 85.32C10.32 85.32 10.64 85.28 11.04 85.2C11.44 85.12 11.88 85.04 12.36 84.96C12.68 84.96 12.88 84.92 12.96 84.84C13.04 84.84 13.16 84.84 13.32 84.84C13.48 84.84 13.64 84.8 13.8 84.72L14.52 84.6H13.92C13.44 84.6 13.2 84.52 13.2 84.36C13.2 84.36 13.08 84.28 12.84 84.12C12.84 84.12 12.64 84.12 12.24 84.12C11.76 84.12 11.24 84.16 10.68 84.24C9.95996 84.32 9.55996 84.36 9.47996 84.36C9.31996 84.44 9.23996 84.48 9.23996 84.48C9.15996 84.48 9.11996 84.44 9.11996 84.36C9.19996 84.28 9.39996 84.08 9.71996 83.76C9.95996 83.52 10.12 83.4 10.2 83.4C10.28 83.4 10.36 83.36 10.44 83.28C10.52 83.28 10.56 83.28 10.56 83.28C10.56 83.2 10.72 83.08 11.04 82.92C11.28 82.84 11.44 82.8 11.52 82.8C11.6 82.8 11.68 82.76 11.76 82.68C11.76 82.6 11.88 82.56 12.12 82.56C12.2 82.48 12.32 82.44 12.48 82.44H12.96C12.96 82.36 13.12 82.24 13.44 82.08C14 82.08 14.36 82.04 14.52 81.96C14.6 82.04 14.64 82.08 14.64 82.08C14.72 82.08 14.8 82.04 14.88 81.96C14.96 81.88 15.56 81.84 16.68 81.84C17.72 81.84 18.24 81.8 18.24 81.72C18.4 81.72 18.56 81.72 18.72 81.72C18.88 81.8 19.12 81.84 19.44 81.84C20.24 81.92 20.8 81.96 21.12 81.96C21.44 81.96 21.8 82 22.2 82.08C22.28 82.08 22.44 82.08 22.68 82.08C22.92 82.16 23.12 82.2 23.28 82.2C23.44 82.2 23.56 82.24 23.64 82.32C23.72 82.4 23.8 82.44 23.88 82.44C23.88 82.52 24.08 82.56 24.48 82.56C24.8 82.64 25 82.68 25.08 82.68C25.24 82.68 25.32 82.68 25.32 82.68C25.4 82.76 25.48 82.8 25.56 82.8C25.64 82.8 25.76 82.84 25.92 82.92C26.08 82.92 26.16 82.88 26.16 82.8C26.16 82.8 26.12 82.76 26.04 82.68C25.8 82.52 25.48 82.2 25.08 81.72C24.76 81.24 24.6 81 24.6 81C24.6 81 24.56 80.96 24.48 80.88C24.48 80.72 24.44 80.6 24.36 80.52C24.2 80.36 24.08 80.24 24 80.16C23.92 80 23.88 79.92 23.88 79.92C23.88 79.92 23.84 79.88 23.76 79.8C23.76 79.64 23.68 79.48 23.52 79.32C23.36 79.16 23.24 79 23.16 78.84C23.08 78.68 23 78.52 22.92 78.36C22.92 78.2 22.84 78.04 22.68 77.88C22.6 77.72 22.56 77.6 22.56 77.52C22.32 77.12 22.2 76.64 22.2 76.08C22.2 75.84 22.2 75.64 22.2 75.48C22.28 75.32 22.32 75.16 22.32 75C22.48 74.68 22.84 74 23.4 72.96C23.96 71.84 24.32 71.28 24.48 71.28C24.56 71.28 24.96 70.72 25.68 69.6C25.84 69.04 26 68.64 26.16 68.4C26.16 68.32 26.2 68.28 26.28 68.28C26.36 68.28 26.4 68.24 26.4 68.16C26.32 68.08 26.28 68 26.28 67.92C26.28 67.84 26.32 67.68 26.4 67.44C26.56 67.2 26.68 67.08 26.76 67.08C26.84 67 26.88 66.88 26.88 66.72C26.88 66.64 26.92 66.4 27 66C27.16 65.6 27.28 65.32 27.36 65.16C27.44 65 27.48 64.84 27.48 64.68C27.48 64.52 27.48 64.32 27.48 64.08C27.56 63.84 27.68 63.72 27.84 63.72C27.84 63.56 27.84 63.48 27.84 63.48C27.92 63.4 27.96 63.32 27.96 63.24C27.96 63 28 62.64 28.08 62.16C28.16 61.6 28.2 61.32 28.2 61.32C28.2 61.24 28.2 61.2 28.2 61.2C28.28 61.12 28.32 61.04 28.32 60.96C28.32 60.8 28.36 60.68 28.44 60.6C28.52 60.52 28.56 60.44 28.56 60.36C28.64 60.28 28.72 59.88 28.8 59.16V58.68C28.88 58.12 29.04 57.64 29.28 57.24C29.28 57.16 29.28 57.08 29.28 57L29.4 56.52C29.4 56.44 29.4 56.36 29.4 56.28C29.48 56.2 29.52 56.08 29.52 55.92C29.52 55.76 29.56 55.6 29.64 55.44C29.64 55.04 29.68 54.8 29.76 54.72C29.92 54.56 30.04 54.24 30.12 53.76C30.2 53.2 30.24 52.84 30.24 52.68L30.48 51.24V50.88C30.48 50.88 30.52 50.8 30.6 50.64C30.68 50.4 30.72 50.12 30.72 49.8C30.88 49.24 30.96 48.96 30.96 48.96C30.96 48.96 30.96 48.84 30.96 48.6C30.96 48.36 31 48.16 31.08 48C31.08 47.68 31.08 47.44 31.08 47.28C31.16 47.04 31.2 46.88 31.2 46.8C31.2 46.72 31.2 46.68 31.2 46.68C31.28 46.68 31.32 46.68 31.32 46.68C31.32 46.68 31.28 46.64 31.2 46.56C31.36 46.4 31.44 46.28 31.44 46.2V45.84C31.44 45.68 31.48 45.52 31.56 45.36C31.72 44.88 31.8 44.52 31.8 44.28C31.8 44.2 31.76 44.12 31.68 44.04C31.68 43.96 31.68 43.88 31.68 43.8C31.68 43.56 31.72 43.28 31.8 42.96C31.8 42.24 31.84 41.84 31.92 41.76C31.92 41.76 31.92 41.68 31.92 41.52C31.92 41.36 32 41.12 32.16 40.8V38.88C32.24 38.56 32.28 38.32 32.28 38.16C32.28 37.92 32.28 37.72 32.28 37.56C32.36 37.24 32.4 36.48 32.4 35.28C32.4 34.08 32.4 32.92 32.4 31.8C32.48 30.68 32.56 30.04 32.64 29.88C32.8 29.72 32.88 29.16 32.88 28.2C32.88 27.96 32.84 27.4 32.76 26.52C32.76 25.64 32.72 24.12 32.64 21.96C32.56 20.36 32.52 19.32 32.52 18.84C32.52 18.36 32.48 17.88 32.4 17.4C32.4 17.32 32.4 17.24 32.4 17.16L32.28 16.44C32.28 16.36 32.28 16.28 32.28 16.2C32.28 15.72 32.2 15 32.04 14.04C31.96 13.08 31.84 12.2 31.68 11.4C31.52 10.6 31.32 10.2 31.08 10.2V10.92L30.84 12.72C30.76 12.8 30.72 12.96 30.72 13.2C30.72 13.36 30.72 13.48 30.72 13.56C30.72 13.72 30.68 13.84 30.6 13.92C30.52 14 30.48 14.04 30.48 14.04C30.4 14.04 30.36 13.72 30.36 13.08C30.44 12.84 30.48 12.56 30.48 12.24C30.48 11.92 30.48 11.68 30.48 11.52C30.56 11.36 30.6 11.2 30.6 11.04C30.6 10.88 30.52 10.76 30.36 10.68C30.2 10.52 30.12 10.32 30.12 10.08V9.72L30.36 9.96C30.52 10.12 30.64 10.2 30.72 10.2C30.72 10.2 30.72 10.16 30.72 10.08V7.2C30.64 7.2 30.56 7.24 30.48 7.32C30.48 7.4 30.48 7.48 30.48 7.56L30.36 8.04C30.36 8.12 30.36 8.2 30.36 8.28C30.36 8.36 30.32 8.48 30.24 8.64C30.24 8.72 30.24 8.84 30.24 9C30.08 9.24 29.8 10.28 29.4 12.12C29.32 12.6 29.24 13 29.16 13.32C29.08 13.64 29 13.88 28.92 14.04V13.08C28.92 12.92 28.92 12.68 28.92 12.36C29 11.96 29.04 11.64 29.04 11.4C29.04 11.08 29.08 10.76 29.16 10.44C29.24 10.12 29.28 9.92 29.28 9.84C29.36 9.6 29.4 9.44 29.4 9.36C29.4 9.28 29.36 9.24 29.28 9.24C29.28 9.24 29.24 9.32 29.16 9.48C29.08 9.56 29 9.8 28.92 10.2C28.92 10.36 28.88 10.56 28.8 10.8C28.72 11.04 28.68 11.16 28.68 11.16C28.68 11.4 28.64 11.56 28.56 11.64V12C28.56 12 28.52 12.04 28.44 12.12C28.36 12.12 28.32 12.16 28.32 12.24C28.32 12.32 28.32 12.48 28.32 12.72C28.32 12.88 28.24 13.12 28.08 13.44C27.92 13.92 27.84 14.4 27.84 14.88C27.68 15.04 27.52 15.32 27.36 15.72C27.28 16.04 27.12 16.76 26.88 17.88C26.8 18.2 26.72 18.44 26.64 18.6C26.56 18.76 26.52 18.84 26.52 18.84V18.48C26.52 18.4 26.52 18.28 26.52 18.12C26.6 17.96 26.64 17.8 26.64 17.64C26.96 16.28 27.16 15.24 27.24 14.52C27.32 13.72 27.4 13.12 27.48 12.72C27.48 12.4 27.48 12.16 27.48 12C27.56 11.76 27.6 11.64 27.6 11.64C27.6 11.56 27.64 11.24 27.72 10.68C27.88 10.12 27.96 9.44 27.96 8.64C27.96 8.24 28 7.88 28.08 7.56C28.16 7.16 28.2 6.84 28.2 6.6C28.2 6.52 28.2 6.36 28.2 6.12C28.28 5.88 28.32 5.64 28.32 5.4C28.48 5.08 28.56 4.8 28.56 4.56C28.56 4.32 28.6 4.12 28.68 3.96C28.68 3.8 28.68 3.64 28.68 3.48001C28.68 3.24 28.72 3 28.8 2.76V1.8C28.88 1.64 28.92 1.52 28.92 1.44C29.48 0.880001 29.96 0.52 30.36 0.360003C30.76 0.120001 31.36 0 32.16 0C32.32 0.079999 32.44 0.16 32.52 0.240004C32.68 0.320003 32.84 0.360003 33 0.360003C33.08 0.360003 33.24 0.320003 33.48 0.240004C33.64 0.16 33.8 0.119998 33.96 0.119998H34.32C34.4 0.119998 34.52 0.079999 34.68 0C34.84 0 35.08 0 35.4 0H36C36.48 0 36.72 0.36 36.72 1.08V1.8L37.32 2.04C37.48 2.12 37.6 2.24 37.68 2.4C37.84 2.48 37.92 2.52 37.92 2.52L38.64 2.88H39.84C40.72 2.88 41.36 2.92 41.76 3C42.32 3.4 42.6 3.72 42.6 3.96C42.84 4.2 42.96 4.52 42.96 4.92C43.12 5.24 43.2 5.56 43.2 5.88C43.28 5.96 43.32 6 43.32 6C43.4 6 43.44 5.96 43.44 5.88C43.68 5.88 43.84 5.96 43.92 6.12C43.92 6.2 44.4 6.24001 45.36 6.24001C46.8 6.24001 47.52 6.84 47.52 8.04C47.52 8.28 47.56 8.4 47.64 8.4C48.04 8.48 48.28 8.56 48.36 8.64C48.68 8.64 49.08 8.76 49.56 9C49.64 9 49.72 9.04 49.8 9.12C49.96 9.12 50.12 9.12 50.28 9.12C50.76 9.28 51 9.4 51 9.48L51.36 9.96C51.44 10.12 51.48 10.2 51.48 10.2C51.56 10.2 51.6 10.28 51.6 10.44C51.6 10.52 51.68 10.56 51.84 10.56C52.16 10.56 52.36 10.68 52.44 10.92C52.52 11.24 52.56 11.48 52.56 11.64C52.64 11.72 52.68 11.8 52.68 11.88C52.68 11.96 52.64 12.12 52.56 12.36C52.4 12.6 52.2 12.84 51.96 13.08C51.8 13.24 51.52 13.44 51.12 13.68C50.8 13.84 50.48 14.08 50.16 14.4C49.84 14.64 49.68 14.84 49.68 15L49.44 15.24C49.2 15.48 49.08 15.68 49.08 15.84C49.08 15.84 48.96 16 48.72 16.32C48.56 16.56 48.32 16.88 48 17.28C48 17.36 47.96 17.44 47.88 17.52C47.8 17.6 47.76 17.64 47.76 17.64C47.76 17.8 47.6 18.24 47.28 18.96C46.96 19.68 46.76 20.08 46.68 20.16C46.6 20.4 46.56 20.64 46.56 20.88C46.32 21.28 46.04 21.92 45.72 22.8C45.4 23.6 45.24 24.16 45.24 24.48L45.12 24.84V23.76C45.2 23.68 45.24 23.6 45.24 23.52C45.24 23.36 45.32 22.8 45.48 21.84C45.64 20.88 45.76 20.36 45.84 20.28C45.68 20.28 45.52 20.48 45.36 20.88C45.36 21.12 45.32 21.28 45.24 21.36C45.24 21.44 45.2 21.52 45.12 21.6C45.12 21.68 45.12 21.72 45.12 21.72V22.2C44.8 22.36 44.64 22.76 44.64 23.4C44.48 23.56 44.32 23.88 44.16 24.36C44 24.84 43.92 25.24 43.92 25.56C43.84 25.56 43.72 25.76 43.56 26.16C43.4 26.48 43.32 26.68 43.32 26.76C43.24 27 43.2 27.24 43.2 27.48L42.96 28.44C42.88 28.6 42.76 28.8 42.6 29.04C42.52 29.28 42.48 29.48 42.48 29.64C42.48 29.8 42.44 29.96 42.36 30.12C42.36 30.2 42.36 30.24 42.36 30.24C42.28 30.24 42.16 30.48 42 30.96C41.84 31.36 41.76 31.6 41.76 31.68C41.76 32 41.72 32.2 41.64 32.28C41.56 32.44 41.48 32.6 41.4 32.76C41.32 32.84 41.28 32.92 41.28 33C41.44 33.08 41.52 33.12 41.52 33.12C41.52 33.2 41.44 33.24 41.28 33.24C41.28 33.24 41.24 33.28 41.16 33.36C41.16 33.44 41.16 33.56 41.16 33.72C41.08 34.36 40.96 34.76 40.8 34.92C40.8 34.92 40.8 34.96 40.8 35.04L40.56 35.28C40.56 35.28 40.56 35.32 40.56 35.4V35.88C40.32 36.44 40.08 37.16 39.84 38.04C39.68 38.84 39.56 39.56 39.48 40.2C39.4 40.28 39.36 40.32 39.36 40.32V40.56C39.36 40.72 39.28 40.84 39.12 40.92C39.12 41 39.08 41.12 39 41.28C39 41.36 39 41.48 39 41.64C39 41.72 38.96 41.8 38.88 41.88C38.88 41.88 38.88 41.96 38.88 42.12C38.8 42.12 38.76 42.2 38.76 42.36V42.84C38.76 43 38.72 43.08 38.64 43.08L38.28 43.92C38.28 44.48 38.2 44.92 38.04 45.24C38.04 45.56 38 45.76 37.92 45.84C37.92 45.92 37.92 46 37.92 46.08C37.92 46.16 37.84 46.4 37.68 46.8C37.68 46.96 37.64 47.12 37.56 47.28C37.56 47.36 37.56 47.44 37.56 47.52C37.56 47.52 37.52 47.6 37.44 47.76C37.44 47.84 37.44 47.96 37.44 48.12C37.36 48.44 37.32 48.68 37.32 48.84C37.32 49 37.28 49.16 37.2 49.32C37.2 49.4 37.2 49.44 37.2 49.44C37.2 49.52 37.2 49.56 37.2 49.56V49.8C37.2 49.8 37.16 49.92 37.08 50.16C37 50.4 36.96 50.64 36.96 50.88C36.8 51.44 36.72 51.72 36.72 51.72C36.72 51.96 36.68 52.4 36.6 53.04C36.52 53.6 36.4 53.92 36.24 54C36.24 54 36.24 54.08 36.24 54.24C36.24 54.4 36.2 54.56 36.12 54.72C36.12 55.2 36.08 55.48 36 55.56V55.92C35.92 56.32 35.84 56.64 35.76 56.88C35.76 57.04 35.76 57.2 35.76 57.36V57.96C35.76 57.96 35.72 58 35.64 58.08C35.56 58.16 35.52 58.24 35.52 58.32C35.52 58.64 35.48 58.84 35.4 58.92V59.64C35.4 59.72 35.36 59.88 35.28 60.12C35.28 60.28 35.28 60.44 35.28 60.6C35.12 61.24 35.04 61.72 35.04 62.04C35.04 62.44 34.96 62.64 34.8 62.64V63.6C34.8 63.84 34.76 64 34.68 64.08C34.6 65.12 34.52 65.88 34.44 66.36C34.44 66.76 34.44 67.12 34.44 67.44C34.36 67.92 34.32 68.44 34.32 69C34.32 69.56 34.24 69.96 34.08 70.2C34.08 70.36 34.04 70.56 33.96 70.8C33.96 71.04 33.96 71.32 33.96 71.64V72.6C33.96 72.6 33.92 72.8 33.84 73.2C33.84 73.52 33.84 73.88 33.84 74.28C33.84 74.84 33.84 75.36 33.84 75.84C33.84 76.24 33.8 76.52 33.72 76.68V78.84C33.64 79.32 33.6 79.84 33.6 80.4C33.6 80.96 33.6 81.4 33.6 81.72C33.44 81.96 33.36 82.16 33.36 82.32C33.36 82.56 33.36 82.72 33.36 82.8C33.36 83.68 33.48 84.36 33.72 84.84C33.8 85 33.84 85.12 33.84 85.2V85.32C33.84 85.48 33.88 85.56 33.96 85.56C34.04 85.48 34.08 85.44 34.08 85.44C34.16 85.44 34.2 85.44 34.2 85.44C34.28 85.52 34.36 85.56 34.44 85.56C34.6 85.72 34.84 85.8 35.16 85.8C35.16 85.96 35.44 86.12 36 86.28C36.32 86.28 36.48 86.32 36.48 86.4C36.56 86.4 36.72 86.44 36.96 86.52C37.28 86.68 37.44 86.8 37.44 86.88C37.6 86.88 37.76 86.92 37.92 87C38 87 38.04 87 38.04 87C38.12 87.08 38.2 87.12 38.28 87.12C38.36 87.12 38.4 87.12 38.4 87.12L38.64 87.24C38.72 87.24 38.76 87.24 38.76 87.24C38.76 87.32 38.84 87.4 39 87.48C39.24 87.56 39.4 87.6 39.48 87.6L40.44 87.96C40.76 87.96 41.04 88.08 41.28 88.32C41.28 88.32 41.4 88.36 41.64 88.44C41.88 88.52 42.08 88.56 42.24 88.56C42.48 88.72 42.72 88.84 42.96 88.92C43.2 89.08 43.4 89.16 43.56 89.16C43.56 89.16 43.6 89.16 43.68 89.16C43.76 89.16 43.84 89.2 43.92 89.28C44.08 89.36 44.16 89.4 44.16 89.4C44.16 89.56 44.32 89.64 44.64 89.64C44.96 89.8 45.12 89.88 45.12 89.88C45.2 89.96 45.28 90 45.36 90C45.44 90 45.56 90 45.72 90C45.96 90 46.12 90.04 46.2 90.12C46.92 90.52 47.44 90.76 47.76 90.84C48.16 90.84 48.36 90.96 48.36 91.2C48.6 91.2 48.76 91.24 48.84 91.32C48.92 91.32 49 91.32 49.08 91.32C49.16 91.4 49.28 91.44 49.44 91.44L51.12 92.04C51.44 92.04 51.6 92.08 51.6 92.16C51.6 92.16 51.68 92.16 51.84 92.16C52 92.24 52.16 92.36 52.32 92.52C52.48 92.68 52.64 92.76 52.8 92.76C53.04 92.76 53.2 92.76 53.28 92.76C53.36 92.84 53.52 92.88 53.76 92.88C53.92 92.88 54 92.92 54 93C54.08 93.16 54.16 93.24 54.24 93.24C54.4 93.24 54.56 93.28 54.72 93.36C55.2 93.36 55.52 93.44 55.68 93.6C55.84 93.68 55.96 93.72 56.04 93.72H56.4C56.56 93.88 56.68 93.96 56.76 93.96H57C57 93.96 57.04 94 57.12 94.08C57.36 94.16 57.52 94.2 57.6 94.2L58.92 94.8C58.68 94.72 58.36 94.6 57.96 94.44C57.56 94.36 57.28 94.32 57.12 94.32C57.04 94.24 56.84 94.16 56.52 94.08C56.2 94.08 56 94.08 55.92 94.08C55.76 94 55.52 93.92 55.2 93.84C54.88 93.76 54.56 93.68 54.24 93.6C54 93.52 53.68 93.44 53.28 93.36C52.96 93.28 52.72 93.16 52.56 93C52.24 93 51.56 92.84 50.52 92.52C49.56 92.2 48.96 92 48.72 91.92C48.56 91.92 48.4 91.88 48.24 91.8C48.16 91.8 48.08 91.8 48 91.8C47.68 91.64 47.16 91.44 46.44 91.2C45.8 90.96 45.36 90.76 45.12 90.6C44.4 90.28 43.88 90.08 43.56 90C43.32 89.92 43.2 89.88 43.2 89.88C43.2 89.96 43.2 90 43.2 90C43.28 90.08 43.6 90.28 44.16 90.6C44.64 90.92 45.6 91.32 47.04 91.8C48.48 92.28 49.92 92.76 51.36 93.24C52.88 93.72 53.92 94.04 54.48 94.2C55.2 94.44 55.8 94.68 56.28 94.92C56.44 94.92 56.6 94.92 56.76 94.92C56.92 95 57.04 95.04 57.12 95.04C57.2 95.04 57.28 95.04 57.36 95.04L57.6 95.16C57.68 95.16 57.76 95.16 57.84 95.16C58 95.32 58.24 95.44 58.56 95.52C58.88 95.6 59.08 95.64 59.16 95.64C59.4 95.72 59.88 95.84 60.6 96C61.32 96.24 61.76 96.36 61.92 96.36C61.92 96.44 61.96 96.48 62.04 96.48C62.04 96.48 62.08 96.44 62.16 96.36C62.16 96.36 62.2 96.36 62.28 96.36C62.36 96.44 62.44 96.48 62.52 96.48C62.6 96.56 62.68 96.6 62.76 96.6H63.12C63.28 96.6 63.4 96.68 63.48 96.84C63.64 96.84 63.76 96.84 63.84 96.84C63.92 96.92 64 96.96 64.08 96.96C64.4 97.04 64.64 97.08 64.8 97.08C64.96 97.08 65.12 97.12 65.28 97.2C65.36 97.2 65.56 97.2 65.88 97.2C66.28 97.28 66.64 97.4 66.96 97.56C67.68 97.8 68.44 98 69.24 98.16C70.12 98.32 70.96 98.4 71.76 98.4C71.92 98.48 72.2 98.52 72.6 98.52C73.08 98.52 73.44 98.56 73.68 98.64H74.88C75.04 98.72 75.28 98.76 75.6 98.76C76 98.76 76.32 98.76 76.56 98.76C76.88 98.92 77.2 99 77.52 99H78.36C78.44 98.84 78.52 98.76 78.6 98.76C78.6 98.76 78.6 98.84 78.6 99H81.72C82.6 99 83.28 98.92 83.76 98.76H85.44C85.68 98.68 85.92 98.64 86.16 98.64C86.4 98.64 86.52 98.6 86.52 98.52H87.12C87.28 98.52 87.6 98.44 88.08 98.28C88.64 98.2 89 98.12 89.16 98.04C89.48 97.88 89.72 97.8 89.88 97.8C90.04 97.8 90.12 97.8 90.12 97.8C90.28 97.72 90.36 97.68 90.36 97.68C90.44 97.68 90.48 97.72 90.48 97.8C90.64 97.8 90.72 97.76 90.72 97.68C90.72 97.68 91.04 97.56 91.68 97.32C92.4 97.08 92.84 96.96 93 96.96C93.08 96.88 93.48 96.68 94.2 96.36C94.92 96.04 95.4 95.88 95.64 95.88C95.64 95.88 95.64 95.84 95.64 95.76C95.72 95.76 95.76 95.72 95.76 95.64C96.16 95.64 96.44 95.48 96.6 95.16L97.32 94.92L98.4 94.32C98.48 94.24 98.56 94.2 98.64 94.2C98.72 94.2 98.92 94.04 99.24 93.72C99.4 93.56 99.6 93.48 99.84 93.48C99.92 93.48 100.04 93.4 100.2 93.24C100.44 93.08 100.6 92.96 100.68 92.88C100.76 92.88 100.84 92.84 100.92 92.76C101 92.68 101.04 92.64 101.04 92.64C101.04 92.4 101.16 92.28 101.4 92.28C101.48 92.28 101.56 92.28 101.64 92.28C101.64 92.2 101.64 92.16 101.64 92.16C101.64 92.16 101.64 92.12 101.64 92.04C101.72 92.04 101.84 92.04 102 92.04C102 92.04 102.04 92 102.12 91.92C102.2 91.84 102.28 91.72 102.36 91.56C102.68 91.48 102.84 91.4 102.84 91.32C102.92 91.32 103.12 91.16 103.44 90.84L103.8 90.48C103.88 90.48 104 90.36 104.16 90.12C104.32 89.96 104.6 89.72 105 89.4C105.32 89.16 105.56 88.92 105.72 88.68C105.96 88.52 106.16 88.44 106.32 88.44C106.48 88.44 106.56 88.36 106.56 88.2C106.64 88.12 106.68 88.08 106.68 88.08C106.68 87.92 106.64 87.8 106.56 87.72C106.56 87.56 106.6 87.48 106.68 87.48C106.68 87.64 106.84 87.72 107.16 87.72C107.4 87.72 107.72 87.4 108.12 86.76C108.28 86.44 108.4 86.12 108.48 85.8C108.64 85.56 108.76 85.4 108.84 85.32C108.84 85 108.88 84.84 108.96 84.84C109.12 84.84 109.2 84.92 109.2 85.08C109.2 85.24 109.12 85.36 108.96 85.44C108.88 85.44 108.84 85.52 108.84 85.68C108.84 85.76 108.72 86 108.48 86.4C108.32 86.8 108.16 87.16 108 87.48C108 87.56 108 87.64 108 87.72C108 87.88 108.04 88.04 108.12 88.2C108.2 88.36 108.24 88.52 108.24 88.68C108.24 88.84 108.24 88.96 108.24 89.04C108.24 89.04 107.92 89.36 107.28 90C106.72 90.64 106.08 91.32 105.36 92.04C104.72 92.84 104.32 93.32 104.16 93.48C104.16 93.56 104.04 93.6 103.8 93.6L103.56 93.96C103.56 94.04 103.56 94.12 103.56 94.2C103.48 94.2 103.44 94.2 103.44 94.2C103.28 94.2 103.2 94.28 103.2 94.44C103.2 94.44 103.16 94.48 103.08 94.56C103.08 94.64 103.04 94.68 102.96 94.68C102.96 94.76 102.68 95.08 102.12 95.64C101.56 96.2 101.2 96.6 101.04 96.84C100.72 97.32 100.12 98 99.24 98.88C98.44 99.76 97.96 100.2 97.8 100.2C97.72 100.2 97.68 100.2 97.68 100.2C97.36 100.68 97 101.12 96.6 101.52C96.28 101.84 96.04 102.12 95.88 102.36C95.72 102.6 95.64 102.72 95.64 102.72C95.64 102.8 95.52 102.88 95.28 102.96C95.12 103.04 95.04 103.12 95.04 103.2V103.32C95.04 103.48 94.96 103.56 94.8 103.56C94.48 103.64 94.28 103.8 94.2 104.04C94.2 104.12 94.2 104.2 94.2 104.28C94.12 104.28 94.08 104.28 94.08 104.28C93.92 104.28 93.76 104.36 93.6 104.52C93.52 104.68 93.04 105.08 92.16 105.72C91.36 106.44 90.88 106.84 90.72 106.92C90.56 107 90.4 107.08 90.24 107.16C90.08 107.24 90 107.32 90 107.4C90 107.4 89.96 107.44 89.88 107.52C89.88 107.6 89.84 107.64 89.76 107.64C89.52 107.64 89.36 107.68 89.28 107.76C89.12 107.92 88.56 108.08 87.6 108.24C86.64 108.4 86 108.48 85.68 108.48C85.44 108.48 84.88 108.44 84 108.36C83.2 108.36 82.72 108.28 82.56 108.12C81.68 108.04 81.04 108 80.64 108C80.32 108 80.08 108 79.92 108C79.76 108 79.64 108 79.56 108L79.32 107.88C79.24 107.8 79.16 107.76 79.08 107.76C78.76 107.76 78.36 107.64 77.88 107.4C77.8 107.4 77.52 107.36 77.04 107.28C76.64 107.28 76.4 107.24 76.32 107.16H75.84C75.6 107 75.08 106.8 74.28 106.56C73.48 106.32 73 106.2 72.84 106.2C72.44 106.04 72.16 105.92 72 105.84C71.84 105.84 71.68 105.8 71.52 105.72C71.2 105.72 70.92 105.64 70.68 105.48L70.08 105.12C69.92 105.12 69.76 105.08 69.6 105C69.12 104.84 68.8 104.76 68.64 104.76C68.56 104.6 68.48 104.52 68.4 104.52C68.4 104.52 68.36 104.48 68.28 104.4C67.96 104.32 67.64 104.2 67.32 104.04C67 103.88 66.84 103.8 66.84 103.8C66.6 103.8 66.24 103.68 65.76 103.44C65.52 103.36 65.24 103.24 64.92 103.08C64.68 102.92 64.48 102.84 64.32 102.84C64 102.68 63.84 102.52 63.84 102.36C63.68 102.36 63.28 102.2 62.64 101.88C61.84 101.56 61.4 101.4 61.32 101.4C61.08 101.24 60.96 101.16 60.96 101.16C60.8 101 60.48 100.84 60 100.68C59.52 100.52 59.24 100.44 59.16 100.44C59.08 100.28 58.72 100.04 58.08 99.72C57.44 99.4 57.04 99.24 56.88 99.24C56.72 99.24 56.52 99.16 56.28 99L55.68 98.64C55.68 98.64 55.6 98.6 55.44 98.52C55.28 98.52 55.04 98.44 54.72 98.28C54.08 97.96 53.64 97.76 53.4 97.68C53.32 97.6 53.2 97.52 53.04 97.44C52.88 97.36 52.76 97.32 52.68 97.32C52.6 97.24 52.44 97.16 52.2 97.08C52.04 97.08 51.88 97.04 51.72 96.96C51.4 96.88 51.2 96.76 51.12 96.6C51.04 96.52 50.96 96.48 50.88 96.48L50.28 96.24C49.56 96 48.72 95.64 47.76 95.16L47.28 94.92C47.28 94.92 47.16 94.84 46.92 94.68C46.76 94.6 46.56 94.52 46.32 94.44L45.48 94.2C45.16 93.96 44.76 93.76 44.28 93.6C43.88 93.52 43.52 93.4 43.2 93.24L41.04 92.16C40.8 92.08 40.56 92 40.32 91.92C40.16 91.92 40 91.88 39.84 91.8C39.68 91.72 39.48 91.64 39.24 91.56C39 91.48 38.84 91.4 38.76 91.32C37.8 90.84 36.96 90.44 36.24 90.12C35.6 89.88 35.2 89.76 35.04 89.76C35.04 89.76 35.16 89.84 35.4 90C35.64 90.16 36 90.36 36.48 90.6C36.88 90.84 37.24 91 37.56 91.08C37.96 91.24 38.2 91.36 38.28 91.44C38.28 91.44 38.32 91.44 38.4 91.44C38.56 91.52 38.68 91.64 38.76 91.8C39 91.8 39.68 92.08 40.8 92.64C41.92 93.2 42.52 93.48 42.6 93.48C42.68 93.64 42.84 93.72 43.08 93.72C43.08 93.8 43.36 93.96 43.92 94.2L44.52 94.44C44.52 94.36 44.52 94.32 44.52 94.32C44.6 94.32 44.68 94.44 44.76 94.68L46.56 95.4C46.72 95.48 46.88 95.56 47.04 95.64C47.2 95.72 47.32 95.76 47.4 95.76C47.48 95.84 47.64 95.92 47.88 96C48.12 96.16 48.4 96.28 48.72 96.36C48.88 96.52 49.12 96.68 49.44 96.84C49.84 97 50.2 97.16 50.52 97.32C50.84 97.48 51.32 97.72 51.96 98.04C52.68 98.36 53.32 98.68 53.88 99L57.36 100.68C57.44 100.76 57.52 100.8 57.6 100.8C57.76 100.88 57.92 101 58.08 101.16C58.08 101.16 58.2 101.16 58.44 101.16C58.68 101.24 58.8 101.32 58.8 101.4L59.28 101.64C59.92 101.96 60.28 102.16 60.36 102.24C60.44 102.32 60.52 102.36 60.6 102.36H60.72C60.96 102.52 61.56 102.84 62.52 103.32C63.48 103.88 64 104.16 64.08 104.16C64.32 104.16 64.52 104.24 64.68 104.4C64.92 104.64 65.12 104.76 65.28 104.76C65.44 104.76 65.56 104.8 65.64 104.88C65.88 104.96 66.44 105.2 67.32 105.6C68.2 106.08 68.72 106.32 68.88 106.32L70.32 107.04C70.48 107.04 70.88 107.12 71.52 107.28C72.16 107.52 72.52 107.68 72.6 107.76C72.6 107.84 72.72 107.88 72.96 107.88C73.28 107.96 73.48 108 73.56 108C73.72 108.08 73.84 108.16 73.92 108.24C74.08 108.32 74.24 108.36 74.4 108.36C74.72 108.36 74.88 108.4 74.88 108.48C74.88 108.48 74.92 108.48 75 108.48C75.16 108.56 75.4 108.6 75.72 108.6L76.56 108.84C76.72 109 77.04 109.08 77.52 109.08C77.68 109.16 77.8 109.2 77.88 109.2H78.24C78.4 109.2 78.52 109.24 78.6 109.32L79.2 109.44H78.72C78.4 109.44 78.16 109.4 78 109.32H77.52C77.36 109.32 77.2 109.28 77.04 109.2C76.8 109.12 76.6 109.08 76.44 109.08C76.28 109.08 76.16 109.08 76.08 109.08C75.92 109.08 75.8 109.04 75.72 108.96C75.72 108.88 75.72 108.84 75.72 108.84C75.64 108.76 75.4 108.68 75 108.6C74.6 108.6 74.36 108.6 74.28 108.6C74.2 108.52 74 108.48 73.68 108.48C72.72 107.92 71.76 107.64 70.8 107.64C70.8 107.64 70.68 107.52 70.44 107.28C70.36 107.28 69.8 107.08 68.76 106.68C67.72 106.36 67.16 106.12 67.08 105.96C67 105.88 66.8 105.84 66.48 105.84C66.48 105.84 66.36 105.8 66.12 105.72C65.96 105.64 65.76 105.56 65.52 105.48C65.2 105.4 64.96 105.28 64.8 105.12C64.64 105.04 64.56 105 64.56 105C64.4 105 64.32 105 64.32 105L63.84 104.52C63.52 104.52 63.28 104.44 63.12 104.28C62.8 104.12 62.6 104.04 62.52 104.04C62.36 103.88 62.16 103.76 61.92 103.68C61.68 103.6 61.48 103.52 61.32 103.44C61.24 103.36 60.76 103.12 59.88 102.72C59 102.32 58.56 102.12 58.56 102.12C58.4 102.04 57.88 101.8 57 101.4C56.12 101 55.68 100.8 55.68 100.8C55.68 100.8 55.6 100.72 55.44 100.56C55.36 100.56 55.16 100.48 54.84 100.32C54.6 100.16 54.32 100 54 99.84L52.8 99.24C52.8 99.08 52.56 99 52.08 99C52.08 98.84 51.56 98.44 50.52 97.8C49.48 97.24 48.36 96.68 47.16 96.12C45.96 95.64 45.16 95.4 44.76 95.4C44.44 95.24 44.04 95 43.56 94.68C43.16 94.44 42.88 94.32 42.72 94.32C42.56 94.32 42.48 94.32 42.48 94.32V94.2C42.48 94.12 42.4 94.08 42.24 94.08L41.04 93.48C40.8 93.32 40.52 93.16 40.2 93C39.96 92.92 39.76 92.88 39.6 92.88C39.44 92.8 39.28 92.72 39.12 92.64C39.04 92.64 38.96 92.6 38.88 92.52C38.72 92.2 38 91.8 36.72 91.32C35.44 90.84 34.56 90.52 34.08 90.36C33.68 90.04 33.2 89.8 32.64 89.64C32.16 89.48 31.68 89.28 31.2 89.04C31.04 88.96 30.88 88.84 30.72 88.68C30.56 88.6 30.44 88.56 30.36 88.56C30.28 88.48 30 88.32 29.52 88.08C29.04 87.92 28.72 87.84 28.56 87.84L27.96 87.6C27.64 87.6 27.4 87.56 27.24 87.48C26.84 87.24 26.64 87.12 26.64 87.12H26.16C26.08 87.12 26 87.08 25.92 87H25.68C25.6 87 25.52 86.96 25.44 86.88C25.44 86.88 25.4 86.84 25.32 86.76C25.24 86.76 25.12 86.76 24.96 86.76C24.56 86.76 24.36 86.68 24.36 86.52C24.28 86.52 24.16 86.52 24 86.52C23.84 86.52 23.68 86.48 23.52 86.4C23.04 86.24 22.72 86.16 22.56 86.16C22.56 86.16 22.52 86.16 22.44 86.16C22.36 86.24 22.28 86.28 22.2 86.28C22.2 86.2 21.84 86.16 21.12 86.16C20.88 86.08 20.6 86.04 20.28 86.04H12.72C12.56 86.04 12.44 86.08 12.36 86.16C12.2 86.24 11.92 86.28 11.52 86.28C11.04 86.36 10.72 86.4 10.56 86.4C10.4 86.4 9.91996 86.44 9.11996 86.52C8.31996 86.68 7.87996 86.76 7.79996 86.76C7.55996 86.84 7.19996 86.92 6.71996 87C6.23996 87.08 5.43996 87.24 4.31996 87.48C4.15996 87.48 3.99996 87.48 3.83996 87.48C3.67996 87.56 3.59996 87.6 3.59996 87.6C3.51996 87.68 3.43996 87.72 3.35996 87.72H2.99996C2.91996 87.72 2.83996 87.76 2.75996 87.84C2.67996 87.92 2.23996 88.12 1.43996 88.44C0.55996 88.76 0.0799602 88.92 -3.93987e-05 88.92ZM29.04 65.64L29.4 64.92C29.48 64.84 29.52 64.76 29.52 64.68L29.64 63.96C29.72 63.88 29.76 63.8 29.76 63.72C29.84 63.56 29.88 63.44 29.88 63.36L30.12 62.4C30.2 62.24 30.24 62.12 30.24 62.04C30.24 61.88 30.28 61.68 30.36 61.44C30.44 61.12 30.48 60.84 30.48 60.6C30.64 60.2 30.8 59.72 30.96 59.16C31.12 58.52 31.2 57.96 31.2 57.48C31.36 57 31.48 56.48 31.56 55.92C31.72 55.36 31.84 55 31.92 54.84C31.92 54.76 31.96 54.6 32.04 54.36C32.12 54.12 32.2 53.88 32.28 53.64C32.44 53 32.52 52.56 32.52 52.32C32.52 52.08 32.56 51.8 32.64 51.48C32.8 51.24 32.96 50.64 33.12 49.68C33.28 48.64 33.36 47.96 33.36 47.64C33.52 47.24 33.6 47 33.6 46.92C33.68 46.76 33.72 46.6 33.72 46.44C33.8 46.28 33.84 46.04 33.84 45.72C33.92 45.16 33.96 44.8 33.96 44.64C34.04 44.4 34.16 43.96 34.32 43.32C34.4 43 34.48 42.6 34.56 42.12C34.64 41.64 34.68 41.2 34.68 40.8C34.76 40.64 34.84 40.36 34.92 39.96C35 39.56 35.04 39.24 35.04 39L35.4 36.36V35.4C35.48 35.32 35.56 34.92 35.64 34.2C35.72 33.4 35.76 32.96 35.76 32.88C35.84 32.64 35.88 32.48 35.88 32.4C35.88 32.32 35.84 32.28 35.76 32.28C35.92 32.12 36 31.44 36 30.24C36.08 28.96 36.12 27.72 36.12 26.52C36.12 25.24 36.12 24.56 36.12 24.48C36.2 24.48 36.24 24.4 36.24 24.24C36.24 24 36.2 23.8 36.12 23.64V23.16C36.2 23.16 36.24 23.04 36.24 22.8C36.24 22.48 36.2 21.76 36.12 20.64C35.96 19.12 35.76 18.24 35.52 18C35.52 18 35.48 18 35.4 18C35.4 17.92 35.36 17.88 35.28 17.88C35.12 17.88 35 18.16 34.92 18.72C34.84 19.28 34.8 19.92 34.8 20.64C34.8 21.04 34.76 21.76 34.68 22.8C34.68 23.76 34.68 24.24 34.68 24.24C34.68 24.32 34.68 24.52 34.68 24.84C34.68 25.16 34.64 25.56 34.56 26.04V29.16C34.48 30.36 34.4 31.24 34.32 31.8C34.32 32.28 34.32 32.64 34.32 32.88C34.32 34.24 34.16 35.64 33.84 37.08C33.84 37.32 33.68 38.6 33.36 40.92C33.28 41.08 33.24 41.24 33.24 41.4C33.24 41.56 33.24 41.68 33.24 41.76C33.24 42 33.2 42.16 33.12 42.24C33.12 42.32 33.12 42.48 33.12 42.72C33.12 42.96 33.08 43.16 33 43.32C33 43.64 32.96 43.92 32.88 44.16C32.88 44.32 32.88 44.4 32.88 44.4V44.64C32.88 44.64 32.88 44.68 32.88 44.76L32.64 45.24C32.64 45.24 32.64 45.28 32.64 45.36C32.56 45.76 32.48 46.32 32.4 47.04C32.4 47.76 32.32 48.28 32.16 48.6V49.44C32 49.6 31.92 49.88 31.92 50.28C31.84 50.68 31.76 51.16 31.68 51.72C31.6 52.2 31.56 52.48 31.56 52.56C31.56 52.56 31.52 52.68 31.44 52.92C31.44 53.16 31.44 53.44 31.44 53.76C31.28 53.92 31.2 54.12 31.2 54.36C31.2 54.6 31.2 54.76 31.2 54.84C31.12 55 31.08 55.2 31.08 55.44C31.08 55.6 31.04 55.8 30.96 56.04C30.96 56.36 30.96 56.6 30.96 56.76L30.84 57.24C30.76 57.4 30.72 57.56 30.72 57.72C30.72 57.88 30.68 58.12 30.6 58.44C30.52 58.68 30.44 58.88 30.36 59.04C30.36 59.28 30.32 59.6 30.24 60C30.16 60.4 30.12 60.8 30.12 61.2C29.88 62.08 29.72 62.8 29.64 63.36C29.56 63.92 29.44 64.32 29.28 64.56C29.28 64.64 29.24 64.76 29.16 64.92C29.08 65.08 29.04 65.24 29.04 65.4V65.64ZM33.36 66.12C33.36 66.2 33.36 66.36 33.36 66.6C33.36 66.76 33.32 66.92 33.24 67.08V67.8C33.32 67.8 33.36 67.68 33.36 67.44C33.36 67.2 33.4 66.72 33.48 66C33.56 65.28 33.72 64.16 33.96 62.64C34.04 62.24 34.12 61.84 34.2 61.44C34.28 61.04 34.32 60.68 34.32 60.36C34.48 59.24 34.72 58 35.04 56.64C35.04 56.4 35.04 56.2 35.04 56.04C35.12 55.88 35.16 55.72 35.16 55.56C35.24 54.84 35.32 54.24 35.4 53.76C35.48 53.2 35.6 52.72 35.76 52.32C35.84 52.08 35.88 51.88 35.88 51.72C35.96 51.48 36 51.28 36 51.12C36 50.8 36.08 50.48 36.24 50.16C36.24 49.6 36.36 49.08 36.6 48.6C36.6 48.52 36.6 48.44 36.6 48.36L36.72 47.88C36.72 47.8 36.72 47.72 36.72 47.64C36.8 47.32 36.88 46.92 36.96 46.44C37.12 45.96 37.24 45.52 37.32 45.12C37.4 44.88 37.44 44.6 37.44 44.28C37.52 43.96 37.6 43.52 37.68 42.96C37.76 42.72 37.96 42.08 38.28 41.04C38.6 39.92 38.88 38.84 39.12 37.8C39.44 36.68 39.6 36.04 39.6 35.88C39.76 35.56 39.84 35.32 39.84 35.16C39.84 34.92 39.76 34.76 39.6 34.68C39.52 34.68 39.4 34.76 39.24 34.92C39.08 35.08 38.96 35.24 38.88 35.4C38.88 35.56 38.84 35.68 38.76 35.76C38.76 35.76 38.76 35.8 38.76 35.88C38.6 36.2 38.32 36.96 37.92 38.16C37.6 39.36 37.4 40.12 37.32 40.44C37.32 40.84 37.28 41.04 37.2 41.04C37.2 41.2 37.16 41.4 37.08 41.64C37 41.88 36.92 42.2 36.84 42.6C36.84 42.84 36.8 43.04 36.72 43.2C36.72 43.28 36.72 43.4 36.72 43.56C36.64 43.56 36.6 43.68 36.6 43.92C36.52 44.4 36.48 44.8 36.48 45.12C36.32 45.2 36.2 45.52 36.12 46.08C36.04 46.64 36 47.04 36 47.28C35.92 47.44 35.84 47.8 35.76 48.36C35.68 48.84 35.56 49.64 35.4 50.76C35.32 50.84 35.28 50.88 35.28 50.88V51C35.28 51.08 35.24 51.2 35.16 51.36C35.16 51.52 35.16 51.68 35.16 51.84C35.08 52.24 35.04 52.6 35.04 52.92C35.04 53.16 34.96 53.4 34.8 53.64C34.8 53.72 34.76 53.92 34.68 54.24C34.68 54.48 34.64 54.84 34.56 55.32C34.56 56.76 34.36 58.2 33.96 59.64C33.96 59.96 33.92 60.44 33.84 61.08C33.84 61.64 33.76 62.68 33.6 64.2C33.52 64.68 33.44 65.12 33.36 65.52C33.36 65.84 33.36 66.04 33.36 66.12ZM41.04 89.88C40.96 89.88 40.92 89.92 40.92 90C40.92 90.08 41.08 90.2 41.4 90.36C41.8 90.52 42.88 91.12 44.64 92.16C45.6 92.72 46.16 93 46.32 93C46.8 93.24 47.52 93.6 48.48 94.08C49.52 94.56 50.44 95 51.24 95.4C52.12 95.88 52.6 96.12 52.68 96.12C52.76 96.12 52.96 96.2 53.28 96.36C53.6 96.52 53.88 96.68 54.12 96.84C54.28 97 54.4 97.08 54.48 97.08C54.56 97.08 54.6 97 54.6 96.84C54.6 96.68 54.48 96.56 54.24 96.48C54.08 96.48 53.92 96.48 53.76 96.48C53.52 96.24 53.36 96.12 53.28 96.12C53.12 96.12 52.44 95.84 51.24 95.28C50.12 94.72 48.92 94.12 47.64 93.48C46.44 92.84 45.68 92.4 45.36 92.16L44.52 91.56C43.8 91 43.24 90.68 42.84 90.6C42.44 90.52 42.24 90.44 42.24 90.36C42.24 90.36 42.2 90.32 42.12 90.24C42.04 90.16 41.96 90.12 41.88 90.12C41.72 90.12 41.6 90.08 41.52 90C41.36 89.92 41.24 89.88 41.16 89.88H41.04ZM54.3525 59.04C54.1925 59.04 54.1125 58.92 54.1125 58.68C54.1125 58.44 54.2325 57.96 54.4725 57.24C54.7125 56.52 55.2725 55.44 56.1525 54C56.9525 52.72 57.7125 51.48 58.4325 50.28C59.2325 49 60.1525 47.84 61.1925 46.8C61.3525 46.64 61.4725 46.52 61.5525 46.44L62.1525 45.72C62.3125 45.48 62.6325 45.16 63.1125 44.76C63.6725 44.36 64.0325 44.16 64.1925 44.16C64.2725 44.16 64.3125 44.2 64.3125 44.28C64.4725 44.36 64.5525 44.4 64.5525 44.4C64.6325 44.4 64.6725 44.36 64.6725 44.28C64.6725 44.12 64.7525 44.04 64.9125 44.04C65.6325 44.04 66.1525 44.32 66.4725 44.88C66.8725 45.44 67.1525 46 67.3125 46.56C67.4725 47.12 67.7925 47.68 68.2725 48.24C68.7525 48.8 69.0725 49.08 69.2325 49.08C69.3125 49.08 69.3525 49.04 69.3525 48.96C69.6725 49.28 70.1525 49.56 70.7925 49.8C71.1925 49.96 71.5125 50.16 71.7525 50.4C71.9925 50.64 72.1525 50.8 72.2325 50.88C72.4725 51.28 72.6325 51.48 72.7125 51.48C72.7125 51.56 72.7125 51.68 72.7125 51.84C72.7925 52 72.8725 52.24 72.9525 52.56C72.9525 52.64 72.9525 52.72 72.9525 52.8C72.9525 53.44 72.7125 54 72.2325 54.48C72.0725 54.64 71.8325 54.84 71.5125 55.08C71.1925 55.24 70.9125 55.32 70.6725 55.32C70.4325 55.4 70.1525 55.56 69.8325 55.8C69.5125 56.04 69.2325 56.28 68.9925 56.52L66.5925 58.8C65.4725 59.84 64.4725 60.92 63.5925 62.04C62.7125 63.16 62.1525 64.12 61.9125 64.92C61.8325 65.24 61.7125 65.52 61.5525 65.76C61.3925 66 61.3125 66.12 61.3125 66.12C61.1525 66.12 61.0725 65.88 61.0725 65.4C61.0725 64.84 61.1525 64.52 61.3125 64.44C61.4725 64.36 61.5525 64.28 61.5525 64.2C61.5525 64.12 61.4725 64.04 61.3125 63.96C61.3125 63.96 61.3125 63.92 61.3125 63.84C61.3125 63.6 61.5125 63.08 61.9125 62.28C62.3925 61.48 62.8325 60.76 63.2325 60.12C63.7925 59.24 64.0725 58.76 64.0725 58.68C63.9125 58.68 63.6725 58.84 63.3525 59.16C62.7125 59.8 62.2725 60.12 62.0325 60.12C61.8725 60.12 61.7925 60.04 61.7925 59.88C61.7925 59.8 61.7925 59.76 61.7925 59.76C61.7925 59.76 61.7525 59.8 61.6725 59.88C61.5925 59.96 61.5125 60.08 61.4325 60.24C61.3525 60.48 61.2325 60.6 61.0725 60.6C60.9925 60.6 60.7925 60.96 60.4725 61.68C60.2325 62.24 60.0325 62.52 59.8725 62.52C59.7125 62.52 59.6325 62.6 59.6325 62.76C59.6325 62.84 59.6325 62.92 59.6325 63C59.6325 63.16 59.5525 63.56 59.3925 64.2C59.2325 64.76 59.0725 65.12 58.9125 65.28C58.9125 65.36 58.8725 65.6 58.7925 66C58.7125 66.4 58.6725 66.88 58.6725 67.44C58.6725 67.68 58.6725 67.92 58.6725 68.16C58.6725 69.04 58.7925 69.96 59.0325 70.92C59.3525 71.8 59.7125 72.4 60.1125 72.72C61.5525 73.84 63.1525 74.44 64.9125 74.52C65.0725 74.52 65.2725 74.4 65.5125 74.16C65.5925 73.92 65.8325 73.8 66.2325 73.8C66.3125 73.8 66.3925 73.8 66.4725 73.8C66.8725 73.8 67.4725 73.44 68.2725 72.72C69.1525 71.92 69.9925 70.96 70.7925 69.84C72.1525 67.84 73.0725 65.96 73.5525 64.2C74.0325 62.44 74.3525 60.4 74.5125 58.08C74.6725 57.2 74.7525 56.6 74.7525 56.28C74.8325 55.96 74.8725 55.76 74.8725 55.68C74.8725 55.52 74.8325 55.44 74.7525 55.44C74.5925 55.44 74.4725 55.28 74.3925 54.96C74.3925 54.56 74.3925 54.28 74.3925 54.12C74.3925 53.96 74.3925 53.88 74.3925 53.88C74.4725 53.8 74.5125 53.76 74.5125 53.76C74.5925 53.76 74.6325 53.8 74.6325 53.88C74.7125 53.88 74.7525 53.92 74.7525 54C74.8325 54.08 74.9125 54.12 74.9925 54.12C74.9925 54.12 74.9925 54.08 74.9925 54V52.44C74.8325 52.12 74.7525 51.72 74.7525 51.24L74.3925 50.28C74.3125 49.48 73.8325 48.56 72.9525 47.52C72.1525 46.48 71.5525 45.96 71.1525 45.96C71.0725 45.96 70.9925 45.96 70.9125 45.96C70.7525 45.96 70.6725 45.92 70.6725 45.84C70.6725 45.6 70.8325 45.48 71.1525 45.48C71.1525 45.48 71.6325 45.68 72.5925 46.08C73.0725 46.32 73.6725 46.84 74.3925 47.64C75.1925 48.36 75.5925 48.84 75.5925 49.08C75.9925 49.16 76.3925 49.84 76.7925 51.12C77.2725 52.4 77.6725 53.8 77.9925 55.32C78.3925 56.76 78.5925 57.8 78.5925 58.44C78.5925 59.56 78.6725 60.12 78.8325 60.12C78.8325 60.12 78.8725 60 78.9525 59.76C79.0325 59.52 79.1125 59.24 79.1925 58.92C79.1925 58.6 79.1925 58.28 79.1925 57.96C79.1925 57.4 79.1525 56.68 79.0725 55.8C78.9925 54.84 78.8725 54.04 78.7125 53.4C78.7125 53.16 78.7125 52.96 78.7125 52.8C78.7125 52.72 78.7125 52.68 78.7125 52.68C78.9525 52.68 79.1925 53.08 79.4325 53.88C79.6725 54.52 79.8325 55.32 79.9125 56.28C79.9925 57.24 80.0325 57.96 80.0325 58.44C80.0325 59 79.9925 59.48 79.9125 59.88C79.9125 60.36 79.7525 61.16 79.4325 62.28C79.1925 63.32 78.8725 64.32 78.4725 65.28C78.1525 66.24 77.9125 66.84 77.7525 67.08C77.6725 67.24 77.5525 67.4 77.3925 67.56C77.3125 67.72 77.2725 67.88 77.2725 68.04C77.2725 68.2 77.2325 68.28 77.1525 68.28C77.0725 68.28 76.9125 68.44 76.6725 68.76C76.5125 68.92 76.1925 69.44 75.7125 70.32C75.2325 71.12 74.7125 71.92 74.1525 72.72C73.6725 73.44 73.3925 73.8 73.3125 73.8C73.0725 74.28 72.2325 75.24 70.7925 76.68C69.9125 77.56 68.8725 78.28 67.6725 78.84C66.5525 79.4 65.3525 79.68 64.0725 79.68C63.3525 79.68 62.9125 79.56 62.7525 79.32C62.7525 79.24 62.7125 79.2 62.6325 79.2C62.5525 79.2 62.4325 79.24 62.2725 79.32C62.1125 79.32 62.0325 79.28 62.0325 79.2C62.0325 79.04 61.9525 78.96 61.7925 78.96C61.7925 78.96 61.7525 78.96 61.6725 78.96C61.4325 78.96 61.0325 78.72 60.4725 78.24C59.9125 77.76 59.3525 77.24 58.7925 76.68C58.2325 76.04 57.9525 75.6 57.9525 75.36C57.9525 74.4 57.5525 73.8 56.7525 73.56C56.5125 73.56 56.2725 73.12 56.0325 72.24C55.8725 71.28 55.7525 70.32 55.6725 69.36C55.5925 68.32 55.5525 67.64 55.5525 67.32C55.5525 66.44 55.5125 65.68 55.4325 65.04C55.4325 64.32 55.4325 63.96 55.4325 63.96C55.1925 63.96 55.0725 63.76 55.0725 63.36C55.0725 62.96 55.1525 62.48 55.3125 61.92C55.4725 61.04 55.8725 60.04 56.5125 58.92C56.9125 58.12 57.3525 57.04 57.8325 55.68C58.3125 54.24 58.5925 53.24 58.6725 52.68C58.6725 52.52 58.8325 52.36 59.1525 52.2C59.3125 52.12 59.3925 52.04 59.3925 51.96C59.3925 51.96 59.3525 51.92 59.2725 51.84C59.2725 51.76 59.2725 51.68 59.2725 51.6C59.2725 51.44 59.4325 51.2 59.7525 50.88C59.9125 50.72 59.9925 50.6 59.9925 50.52C59.9925 50.44 59.9925 50.4 59.9925 50.4C59.9925 50.4 59.9525 50.44 59.8725 50.52C59.6325 50.68 59.1925 51.16 58.5525 51.96C57.9925 52.76 57.3525 53.68 56.6325 54.72C55.9925 55.68 55.4725 56.52 55.0725 57.24C54.6725 57.96 54.4725 58.44 54.4725 58.68C54.4725 58.76 54.5125 58.84 54.5925 58.92C54.6725 58.92 54.7125 58.92 54.7125 58.92C54.7125 58.92 54.6725 58.96 54.5925 59.04C54.5925 59.04 54.5125 59.04 54.3525 59.04ZM81.9946 46.92C81.8346 46.92 81.4746 46.68 80.9146 46.2C80.3546 45.72 80.0746 45.24 80.0746 44.76V43.92C80.2346 43.52 80.4746 43.16 80.7946 42.84C81.0346 42.52 81.4346 42.36 81.9946 42.36C83.0346 42.52 83.6346 42.84 83.7946 43.32C83.7946 43.48 83.8346 43.56 83.9146 43.56C83.9146 43.64 83.9146 43.68 83.9146 43.68C83.9946 43.68 84.0746 43.68 84.1546 43.68C84.3146 43.68 84.4746 43.76 84.6346 43.92C85.0346 44.32 85.3946 44.56 85.7146 44.64C86.1146 44.72 86.5946 44.76 87.1546 44.76C87.4746 44.6 87.7946 44.52 88.1146 44.52C88.7546 44.52 89.1946 44.68 89.4346 45C89.5946 45.16 89.7946 45.24 90.0346 45.24C90.1146 45.24 90.2346 45.36 90.3946 45.6C90.5546 45.84 90.6746 46.04 90.7546 46.2C90.7546 46.44 90.8346 46.76 90.9946 47.16C91.2346 47.48 91.3946 47.64 91.4746 47.64C91.4746 47.64 91.5146 47.72 91.5946 47.88C91.6746 48.04 91.7546 48.16 91.8346 48.24C91.9946 48.64 92.0746 49.04 92.0746 49.44C92.0746 49.92 91.9546 50.44 91.7146 51L91.4746 51.72C91.4746 51.88 91.3546 52.16 91.1146 52.56C90.9546 52.96 90.8346 53.2 90.7546 53.28C90.7546 53.28 90.7546 53.32 90.7546 53.4C90.7546 53.4 90.7146 53.48 90.6346 53.64C90.5546 53.8 90.4746 53.92 90.3946 54C90.3146 54.08 90.2746 54.2 90.2746 54.36C90.2746 54.52 90.1946 54.92 90.0346 55.56C89.7946 56.44 89.6346 57.24 89.5546 57.96C89.4746 58.6 89.3946 59.68 89.3146 61.2C89.3146 61.68 89.3146 62.44 89.3146 63.48C89.3146 64.52 89.2746 65.4 89.1946 66.12C89.1946 66.76 89.1946 67.24 89.1946 67.56C89.1946 68.12 89.2346 68.52 89.3146 68.76C89.3146 68.92 89.3146 69 89.3146 69C89.3946 69 89.4746 68.8 89.5546 68.4C89.5546 68.32 89.7146 67.8 90.0346 66.84C90.4346 65.88 90.6746 65.32 90.7546 65.16C90.7546 65 90.7546 64.84 90.7546 64.68C90.8346 64.52 90.9146 64.32 90.9946 64.08C91.1546 64 91.2346 63.88 91.2346 63.72C91.3146 63.56 91.3546 63.48 91.3546 63.48C91.2746 63.48 91.2346 63.48 91.2346 63.48C91.3146 63.4 91.3946 63.28 91.4746 63.12C91.5546 62.72 91.6346 62.52 91.7146 62.52C91.7146 62.2 91.8746 61.76 92.1946 61.2C92.2746 61.04 92.3546 60.88 92.4346 60.72C92.5946 60.48 92.6746 60.36 92.6746 60.36C92.6746 60.28 92.6346 60.24 92.5546 60.24C92.5546 60.24 92.6346 60.08 92.7946 59.76C92.9546 59.44 93.1146 59.08 93.2746 58.68C93.5146 58.12 93.7546 57.6 93.9946 57.12C94.3146 56.64 94.5146 56.24 94.5946 55.92C94.6746 55.6 94.7546 55.32 94.8346 55.08C94.9146 54.76 94.9946 54.52 95.0746 54.36C95.3946 53.72 95.6346 53.12 95.7946 52.56C95.9546 51.92 96.0346 51.48 96.0346 51.24C96.0346 51.16 96.0346 51.12 96.0346 51.12C96.0346 50.96 96.0746 50.84 96.1546 50.76C96.1546 50.6 96.1946 50.44 96.2746 50.28C96.3546 50.12 96.3946 49.92 96.3946 49.68C96.3146 49.44 96.2746 49.28 96.2746 49.2C96.2746 49.12 96.2746 49.04 96.2746 48.96C96.3546 48.8 96.3946 48.68 96.3946 48.6C96.3946 48.6 96.3946 48.52 96.3946 48.36C96.4746 48.2 96.5146 48.08 96.5146 48C96.5946 47.68 96.7946 47.36 97.1146 47.04C97.5146 46.64 97.8746 46.36 98.1947 46.2C98.6746 46.2 99.1946 46.4 99.7546 46.8C100.075 46.88 100.315 46.96 100.475 47.04C100.635 47.12 100.795 47.16 100.955 47.16C101.035 47.16 101.115 47.08 101.195 46.92C101.355 46.68 101.635 46.48 102.035 46.32C102.435 46.08 102.715 45.96 102.875 45.96C103.035 45.96 103.635 46.24 104.675 46.8C105.715 47.36 106.395 47.8 106.715 48.12C107.115 48.52 107.555 48.84 108.035 49.08C108.515 49.4 108.755 49.6 108.755 49.68C108.755 49.68 108.755 49.72 108.755 49.8C108.835 49.8 108.915 49.8 108.995 49.8C109.315 49.8 109.755 50.04 110.315 50.52C110.955 50.92 111.395 51.24 111.635 51.48C111.795 51.64 111.875 51.8 111.875 51.96C111.875 52.12 111.835 52.28 111.755 52.44C111.755 52.68 111.595 53 111.275 53.4C110.955 53.72 110.715 53.88 110.555 53.88C110.155 53.88 109.675 54.48 109.115 55.68C108.555 56.88 108.195 58.16 108.035 59.52C108.035 60.48 107.915 60.96 107.675 60.96C107.675 60.96 107.595 61.6 107.435 62.88C107.355 64.08 107.275 65.2 107.195 66.24C107.195 67.2 107.195 67.88 107.195 68.28C107.195 68.68 107.195 68.92 107.195 69C107.275 69 107.315 69.16 107.315 69.48C107.395 70.44 107.475 71.12 107.555 71.52C107.715 71.92 107.955 72.36 108.275 72.84C108.515 73.24 108.875 73.44 109.355 73.44C109.435 73.44 109.475 73.36 109.475 73.2C109.555 73.12 109.635 73.08 109.715 73.08C110.035 73.08 110.475 72.64 111.035 71.76C111.675 70.88 112.195 70.28 112.595 69.96L114.755 67.8C115.075 67.4 115.395 67.04 115.715 66.72C116.035 66.32 116.235 66.08 116.315 66C116.635 65.36 117.035 64.84 117.515 64.44C117.995 64.04 118.315 63.72 118.475 63.48C118.715 63.16 118.955 62.8 119.195 62.4C119.515 62 119.715 61.64 119.795 61.32C120.035 60.76 120.315 60.48 120.635 60.48V60.96C120.475 61.36 119.995 62.24 119.195 63.6C118.475 64.88 117.715 66.16 116.915 67.44C116.115 68.64 115.635 69.24 115.475 69.24C115.395 69.24 115.355 69.36 115.355 69.6C115.355 69.68 115.155 70 114.755 70.56C114.355 71.12 114.035 71.56 113.795 71.88C113.715 72.04 113.475 72.68 113.075 73.8C112.675 74.92 112.395 75.68 112.235 76.08C112.155 76.24 112.035 76.52 111.875 76.92L110.795 79.08C110.715 79.24 110.635 79.44 110.555 79.68C110.395 80.08 110.315 80.28 110.315 80.28C110.315 80.28 110.275 80.32 110.195 80.4C110.115 80.48 109.995 80.56 109.835 80.64C109.675 81.04 109.315 81.24 108.755 81.24C108.515 81.24 108.315 81.24 108.155 81.24C107.995 81.16 107.795 81.08 107.555 81C107.315 80.92 107.035 80.84 106.715 80.76C106.475 80.6 106.195 80.52 105.875 80.52C105.635 80.52 105.435 80.56 105.275 80.64C105.115 80.64 104.955 80.64 104.795 80.64C104.715 80.72 104.635 80.76 104.555 80.76C104.075 80.76 103.635 80.32 103.235 79.44C102.835 78.48 102.635 77.8 102.635 77.4V76.08C102.795 76 102.875 75.72 102.875 75.24C103.035 74.76 103.115 74.12 103.115 73.32C103.195 72.84 103.235 71.88 103.235 70.44C103.235 69 103.195 67.52 103.115 66C103.115 65.92 103.115 65.52 103.115 64.8C103.115 64.08 103.155 63.32 103.235 62.52C103.315 61.64 103.355 60.92 103.355 60.36C103.355 59.72 103.315 59.2 103.235 58.8C103.155 58.4 103.035 58.2 102.875 58.2C102.555 58.2 102.355 58.52 102.275 59.16C102.275 59.48 102.235 59.8 102.155 60.12C102.155 60.44 102.155 60.68 102.155 60.84C101.915 61.64 101.755 62.4 101.675 63.12C101.675 63.76 101.675 64.2 101.675 64.44C101.675 65.24 101.755 65.8 101.915 66.12C101.995 66.28 102.035 66.4 102.035 66.48C102.035 66.48 101.995 66.48 101.915 66.48C101.915 66.48 101.835 66.4 101.675 66.24C101.515 66.08 101.355 65.76 101.195 65.28C101.115 65.04 101.035 64.44 100.955 63.48C100.955 62.52 100.955 61.52 100.955 60.48C100.955 59.44 100.995 58.72 101.075 58.32C101.075 57.76 101.035 57.44 100.955 57.36C100.875 57.28 100.835 56.84 100.835 56.04C100.835 55.24 100.715 54.84 100.475 54.84C100.475 54.84 100.435 54.84 100.355 54.84C100.195 54.84 99.9546 55.04 99.6346 55.44C99.3146 55.84 98.8746 56.36 98.3146 57C97.5146 58.44 96.7946 59.92 96.1546 61.44C95.5946 62.88 95.1946 64.44 94.9546 66.12C94.9546 66.28 94.9146 66.44 94.8346 66.6C94.7546 66.76 94.6746 66.92 94.5946 67.08C94.5146 67.24 94.4746 67.36 94.4746 67.44C94.4746 67.52 94.5146 67.56 94.5946 67.56C94.5946 67.88 94.5546 68.04 94.4746 68.04C94.4746 68.68 94.3146 69.4 93.9946 70.2C93.8346 70.68 93.7546 71.08 93.7546 71.4C93.7546 71.56 93.7146 71.68 93.6346 71.76C93.6346 71.84 93.6346 71.88 93.6346 71.88C93.3946 71.88 93.2746 72.08 93.2746 72.48C93.2746 72.56 93.2346 72.84 93.1546 73.32C93.1546 73.8 93.1146 74.28 93.0346 74.76C92.8746 75.8 92.7946 76.32 92.7946 76.32C93.1146 75.52 93.3946 74.76 93.6346 74.04C93.9546 73.24 94.2346 72.44 94.4746 71.64C94.5546 71.48 94.6346 71.28 94.7146 71.04L95.1946 69.6C95.2746 69.6 95.3146 69.68 95.3146 69.84C95.3146 70.16 95.2346 70.68 95.0746 71.4C94.9946 71.88 94.9146 72.4 94.8346 72.96C94.7546 73.52 94.6746 73.96 94.5946 74.28C94.4346 75.32 94.3146 76 94.2346 76.32C94.2346 76.56 94.1146 77 93.8746 77.64C93.7946 77.96 93.7146 78.28 93.6346 78.6C93.6346 78.92 93.6346 79.12 93.6346 79.2C93.5546 79.52 93.3146 79.84 92.9146 80.16C92.5146 80.48 92.1146 80.64 91.7146 80.64C91.5546 80.56 91.3946 80.52 91.2346 80.52C91.0746 80.52 90.9546 80.56 90.8746 80.64C90.8746 80.72 90.6746 80.76 90.2746 80.76C89.7146 80.6 88.9546 80.36 87.9946 80.04C87.0346 79.64 86.3546 79.24 85.9546 78.84C85.8746 78.68 85.8346 78.12 85.8346 77.16C85.8346 76.12 85.9146 75.12 86.0746 74.16C86.2346 73.12 86.3946 72.52 86.5546 72.36C86.5546 72.28 86.5546 72.2 86.5546 72.12L86.6746 71.88C86.6746 71.8 86.6746 71.72 86.6746 71.64C86.6746 71.48 86.6746 71.32 86.6746 71.16C86.7546 70.92 86.7946 70.68 86.7946 70.44C86.7946 70.28 86.8346 70.12 86.9146 69.96C86.9946 69.8 87.0346 69.68 87.0346 69.6C86.8746 68 86.7546 66.24 86.6746 64.32C86.5946 62.32 86.5146 60.48 86.4346 58.8C86.3546 57.12 86.3146 55.8 86.3146 54.84C86.1546 53.8 86.0746 53.12 86.0746 52.8C86.0746 52.72 86.0746 52.68 86.0746 52.68C86.1546 52.68 86.1946 52.64 86.1946 52.56C86.1946 52.48 86.0746 52.44 85.8346 52.44C85.6746 52.52 85.5946 52.72 85.5946 53.04C85.5946 53.12 85.5946 53.24 85.5946 53.4C85.7546 54.2 85.8346 54.92 85.8346 55.56C85.9146 55.88 85.9546 56.28 85.9546 56.76C85.9546 57.16 85.9946 57.48 86.0746 57.72C86.0746 58.44 86.0346 58.8 85.9546 58.8C85.8746 58.8 85.8346 58.68 85.8346 58.44C85.8346 58.2 85.7946 58.04 85.7146 57.96C85.7146 57.8 85.5946 57.36 85.3546 56.64C85.1946 55.84 84.9946 55.08 84.7546 54.36C84.5146 53.56 84.3946 53.16 84.3946 53.16C84.3946 53.16 84.3546 53.32 84.2746 53.64C84.2746 53.88 84.2746 54.24 84.2746 54.72C84.1946 56.08 84.1146 57.56 84.0346 59.16C83.9546 60.68 83.8746 62.08 83.7946 63.36C83.7146 64.56 83.6346 65.28 83.5546 65.52L83.4346 65.88C83.1946 65.88 83.0746 65.08 83.0746 63.48C83.0746 62.36 83.0346 61.16 82.9546 59.88C82.9546 58.6 82.9146 57.52 82.8346 56.64C82.7546 56.08 82.6746 55.04 82.5946 53.52C82.5146 52 82.4346 50.72 82.3546 49.68C82.3546 48.88 82.3146 48.24 82.2346 47.76C82.1546 47.2 82.0746 46.92 81.9946 46.92ZM113.4 104.88C113.32 104.88 113.2 104.44 113.04 103.56C112.88 102.76 112.76 102.04 112.68 101.4C112.68 100.84 112.72 100.56 112.8 100.56C112.8 100.56 112.84 100.6 112.92 100.68C112.92 100.76 112.92 100.84 112.92 100.92C112.92 101.08 113.08 101.44 113.4 102C113.72 102.56 113.96 102.88 114.12 102.96C114.12 103.2 114.2 103.4 114.36 103.56C114.52 103.56 114.6 103.68 114.6 103.92C114.6 104.08 114.8 104.36 115.2 104.76C115.44 105 115.64 105.2 115.8 105.36C115.88 105.52 115.92 105.6 115.92 105.6C115.92 105.76 116.24 106.16 116.88 106.8L117.72 107.64C117.72 107.72 117.84 107.88 118.08 108.12C118.32 108.36 118.68 108.64 119.16 108.96C119.8 109.36 120.16 109.64 120.24 109.8C120.32 110.04 120.4 110.16 120.48 110.16C120.56 110.16 120.68 110.2 120.84 110.28C121.08 110.44 121.28 110.6 121.44 110.76L122.28 111.36C122.28 111.36 122.52 111.44 123 111.6C123.72 111.84 124.24 112 124.56 112.08C124.96 112.16 125.48 112.2 126.12 112.2C127 112.2 127.6 112.2 127.92 112.2C128.24 112.2 128.4 112.16 128.4 112.08C128.4 112 128.56 111.88 128.88 111.72C129.2 111.56 129.84 111.04 130.8 110.16C131.84 109.36 132.36 108.88 132.36 108.72C132.36 108.56 132.4 108.44 132.48 108.36C132.88 107.88 133.08 107.56 133.08 107.4C133.08 107.24 133.24 106.84 133.56 106.2C133.88 105.56 134.12 105.12 134.28 104.88C134.28 104.88 134.32 104.8 134.4 104.64L134.88 103.32C134.96 103.16 135 103.04 135 102.96C135.08 102.88 135.2 102.32 135.36 101.28C135.52 100.24 135.6 99.64 135.6 99.48C135.6 99.4 135.6 99.28 135.6 99.12C135.68 99.04 135.72 99 135.72 99C135.8 99 135.84 98.72 135.84 98.16C136.08 97.6 136.24 96.68 136.32 95.4C136.4 94.2 136.48 93.28 136.56 92.64C136.56 92.4 136.56 92.16 136.56 91.92C136.64 91.68 136.68 91.56 136.68 91.56C136.68 91.56 136.64 90.96 136.56 89.76C136.56 88.56 136.48 87.04 136.32 85.2C136.16 83.44 136 81.6 135.84 79.68C135.76 77.76 135.64 76.12 135.48 74.76C135.48 74.2 135.48 73.6 135.48 72.96C135.48 72.32 135.52 71.72 135.6 71.16L135.24 71.04C135.24 71.12 135.2 71.24 135.12 71.4C135.04 71.48 135 71.52 135 71.52C134.76 71.52 134.64 71.68 134.64 72L133.92 73.32C133.92 73.32 133.72 73.64 133.32 74.28C133 74.92 132.64 75.6 132.24 76.32C131.84 76.96 131.56 77.36 131.4 77.52C131.4 77.76 131.24 78.04 130.92 78.36L130.32 79.2C130.32 79.28 130.24 79.44 130.08 79.68C130 79.84 129.88 80.04 129.72 80.28C129.56 80.52 129.36 80.76 129.12 81C128.96 81.16 128.88 81.28 128.88 81.36C128.88 81.36 128.84 81.4 128.76 81.48C128.76 81.64 128.68 81.8 128.52 81.96C128.2 82.28 128.04 82.48 128.04 82.56C128.04 82.64 127.8 82.92 127.32 83.4C127.16 83.56 127 83.68 126.84 83.76C126.68 83.92 126.56 84.04 126.48 84.12C126.32 84.2 126.08 84.28 125.76 84.36C125.52 84.44 125.28 84.48 125.04 84.48C124.88 84.48 124.72 84.48 124.56 84.48C124.32 84.48 124.16 84.44 124.08 84.36C124 84.28 123.88 84.24 123.72 84.24C123.72 84.24 123.68 84.24 123.6 84.24C123.44 84.24 123.28 84.16 123.12 84C122.8 83.68 122.6 83.52 122.52 83.52C122.28 83.52 122.12 83.36 122.04 83.04C121.88 82.72 121.76 82.56 121.68 82.56C121.52 82.4 121.44 82.24 121.44 82.08C121.44 82.08 121.36 81.96 121.2 81.72C121.04 81.56 120.84 81.36 120.6 81.12C120.04 80.56 119.76 80.2 119.76 80.04C119.68 79.88 119.56 79.64 119.4 79.32C119.24 78.92 119.16 78.64 119.16 78.48C119.16 78.4 119.16 78.36 119.16 78.36C119.16 78.28 119.12 78.2 119.04 78.12C118.96 77.96 118.88 77.72 118.8 77.4C118.72 77 118.6 76.44 118.44 75.72C118.36 75.4 118.32 74.76 118.32 73.8C118.32 72.84 118.32 71.84 118.32 70.8C118.4 69.76 118.44 69 118.44 68.52C118.52 67.4 118.56 66.52 118.56 65.88C118.64 65.24 118.8 64.68 119.04 64.2C119.12 64.04 119.16 63.72 119.16 63.24C119.16 62.84 119.28 62.64 119.52 62.64C119.6 62.56 119.64 62.52 119.64 62.52C119.64 62.52 119.6 62.48 119.52 62.4C119.52 62.32 119.6 61.88 119.76 61.08C119.92 60.28 120.04 59.84 120.12 59.76C120.12 59.52 120.2 59.32 120.36 59.16C120.36 59.08 120.36 59 120.36 58.92C120.44 58.76 120.48 58.6 120.48 58.44C120.48 58.36 120.48 58.32 120.48 58.32L120.6 58.08C120.6 58 120.6 57.96 120.6 57.96C120.76 57.8 120.92 57.52 121.08 57.12C121.24 56.72 121.36 56.52 121.44 56.52C121.52 56.52 121.56 56.52 121.56 56.52C121.56 56.44 121.52 56.4 121.44 56.4C121.44 56.32 121.44 56.2 121.44 56.04C121.52 55.8 121.64 55.56 121.8 55.32C122.04 55 122.16 54.8 122.16 54.72C122.16 54.64 122.12 54.6 122.04 54.6L122.4 54C122.48 53.92 122.6 53.76 122.76 53.52C122.92 53.2 123.08 52.88 123.24 52.56C123.24 52.48 123.44 52.12 123.84 51.48C124.32 50.76 124.56 50.4 124.56 50.4C124.8 50.16 124.92 50.04 124.92 50.04C125.08 49.88 125.16 49.76 125.16 49.68C125.16 49.6 125.16 49.56 125.16 49.56C125.32 49.48 125.56 49.2 125.88 48.72C126.28 48.24 126.48 47.92 126.48 47.76C126.48 47.76 126.48 47.68 126.48 47.52C126.48 47.28 126.52 47.04 126.6 46.8C126.76 46.4 126.88 46 126.96 45.6C127.12 45.2 127.28 44.92 127.44 44.76C127.6 44.6 127.68 44.44 127.68 44.28C127.68 44.04 127.8 43.92 128.04 43.92C128.2 43.92 128.44 43.76 128.76 43.44C128.92 43.36 129.08 43.28 129.24 43.2C129.4 43.04 129.48 42.96 129.48 42.96C129.8 42.88 130.08 42.84 130.32 42.84C130.64 42.84 130.96 42.84 131.28 42.84C131.52 42.84 132.12 42.92 133.08 43.08C134.12 43.24 134.64 43.48 134.64 43.8C134.64 43.88 134.76 43.92 135 43.92C135.16 43.92 135.24 44.04 135.24 44.28L135.96 44.64C137.08 45.04 137.92 45.52 138.48 46.08C138.72 46.32 138.96 46.44 139.2 46.44C139.28 46.52 139.56 46.88 140.04 47.52C140.52 48.08 140.76 48.44 140.76 48.6C140.76 48.6 140.76 48.64 140.76 48.72C140.76 48.72 140.84 48.76 141 48.84C141.24 48.84 141.36 49.08 141.36 49.56C141.6 49.96 141.76 50.16 141.84 50.16C142 50.48 142.12 50.68 142.2 50.76C142.2 51.08 142.24 51.32 142.32 51.48C142.56 51.72 142.68 52 142.68 52.32L142.8 53.16H145.08C145.08 53.24 145.2 53.28 145.44 53.28C145.52 53.28 145.64 53.28 145.8 53.28C145.96 53.28 146.12 53.32 146.28 53.4C146.52 53.48 146.68 53.52 146.76 53.52C146.92 53.52 147.2 53.8 147.6 54.36C148.08 54.84 148.32 55.12 148.32 55.2C148.32 55.44 148.4 55.56 148.56 55.56C148.88 55.8 149.04 56.08 149.04 56.4C149.04 56.72 148.88 57.08 148.56 57.48C148.24 57.8 148.08 58.16 148.08 58.56L147.84 59.4C147.84 59.4 147.84 59.44 147.84 59.52L147.6 60C147.52 60.16 147.48 60.36 147.48 60.6L147.24 60.72C147.08 60.72 147 60.8 147 60.96C147 60.96 147 61 147 61.08C147 61.24 146.96 61.48 146.88 61.8C146.8 62.12 146.72 62.32 146.64 62.4C146.56 62.48 146.52 62.52 146.52 62.52C146.52 62.6 146.56 62.64 146.64 62.64C146.64 63.04 146.56 63.32 146.4 63.48C146.4 63.56 146.4 63.6 146.4 63.6C146.4 63.68 146.4 63.72 146.4 63.72C146.4 63.8 146.4 63.84 146.4 63.84C146.4 63.92 146.36 64.04 146.28 64.2C146.2 64.28 146.12 64.4 146.04 64.56C146.04 65.12 145.88 65.68 145.56 66.24C145.56 66.56 145.52 66.84 145.44 67.08C145.44 67.24 145.4 67.48 145.32 67.8L144.84 69.72C144.76 70.04 144.64 70.36 144.48 70.68C144.4 70.92 144.32 71.16 144.24 71.4C144.24 71.72 144.2 71.92 144.12 72C144.12 72 144.12 72.08 144.12 72.24C144.12 72.32 144.08 72.4 144 72.48C144 72.48 144 72.52 144 72.6C143.92 73.16 143.8 73.64 143.64 74.04C143.48 74.44 143.36 74.88 143.28 75.36C143.2 75.92 143.12 76.4 143.04 76.8C142.96 77.2 142.92 77.48 142.92 77.64C142.92 78.12 143.04 78.52 143.28 78.84C143.36 78.92 143.4 79 143.4 79.08C143.4 79.08 143.36 79.08 143.28 79.08C143.28 79.08 143.16 79.04 142.92 78.96C142.76 78.8 142.6 78.6 142.44 78.36C142.2 78.04 142.08 77.44 142.08 76.56C142.08 75.68 142.12 74.76 142.2 73.8C142.36 72.84 142.44 72.12 142.44 71.64L142.8 70.08C142.8 69.52 142.96 68.6 143.28 67.32C143.6 66.04 143.84 65.12 144 64.56C144 64.48 144 64.44 144 64.44C144 64.44 143.96 64.48 143.88 64.56C143.8 64.64 143.76 64.72 143.76 64.8C143.68 64.96 143.56 65.08 143.4 65.16C143.32 65.24 143.28 65.32 143.28 65.4C143.28 65.4 143.28 65.44 143.28 65.52C143.28 65.6 143.16 65.76 142.92 66C142.76 66.24 142.68 66.44 142.68 66.6C142.6 66.76 142.52 66.84 142.44 66.84C142.44 66.84 142.4 66.88 142.32 66.96C142.16 67.28 142 67.6 141.84 67.92C141.76 68.16 141.68 68.4 141.6 68.64C141.52 68.88 141.44 69.12 141.36 69.36C141.28 69.6 141.16 69.8 141 69.96C140.84 70.2 140.76 70.4 140.76 70.56C140.76 70.72 140.68 70.96 140.52 71.28C139.88 73.84 139.56 76.48 139.56 79.2C139.56 79.68 139.6 80.84 139.68 82.68C139.76 84.6 139.96 87.12 140.28 90.24C140.68 93.36 140.88 96.2 140.88 98.76C140.8 98.92 140.76 99.12 140.76 99.36C140.76 99.68 140.72 100 140.64 100.32C140.64 101.44 140.48 102.36 140.16 103.08C140.16 103.24 140.12 103.48 140.04 103.8C140.04 104.12 140.04 104.32 140.04 104.4C140.04 104.64 139.96 105.12 139.8 105.84C139.64 106.64 139.48 107.36 139.32 108C139.24 108.72 139.2 109.08 139.2 109.08C138.96 109.32 138.84 109.8 138.84 110.52C138.76 110.84 138.68 111.32 138.6 111.96C138.6 112.6 138.52 113.08 138.36 113.4V113.88C138.52 113.88 138.6 113.8 138.6 113.64C138.6 113.64 138.6 113.48 138.6 113.16C138.76 112.6 138.92 111.96 139.08 111.24C139.24 110.6 139.36 110.2 139.44 110.04C139.44 109.8 139.52 109.36 139.68 108.72C139.68 108.24 139.76 107.76 139.92 107.28C139.92 107.2 139.92 107.04 139.92 106.8C140 106.64 140.04 106.48 140.04 106.32C140.12 106.24 140.16 106.12 140.16 105.96C140.16 105.8 140.2 105.68 140.28 105.6C140.28 105.52 140.28 105.32 140.28 105C140.28 104.68 140.36 104.4 140.52 104.16C140.84 103.44 141 102.84 141 102.36C141 101.88 141 101.6 141 101.52C141 100.64 141.12 99.76 141.36 98.88C141.36 98.88 141.36 98.8 141.36 98.64C141.44 98.56 141.48 98.48 141.48 98.4C141.48 97.84 141.52 97.52 141.6 97.44C141.6 97.44 141.6 97.4 141.6 97.32L141.84 96.72C141.84 96.64 141.84 96.56 141.84 96.48C142.08 95.6 142.2 94.76 142.2 93.96C142.28 93.48 142.36 92.6 142.44 91.32C142.6 90.04 142.72 89.2 142.8 88.8C142.88 88.72 142.92 88.52 142.92 88.2C142.92 87.88 142.96 87.56 143.04 87.24C143.04 86.92 143.08 86.52 143.16 86.04C143.24 85.64 143.32 85.32 143.4 85.08C143.64 83.96 143.76 82.8 143.76 81.6C143.76 81.6 143.8 81.64 143.88 81.72C143.96 81.96 144 82.8 144 84.24C143.92 84.8 143.88 85.56 143.88 86.52C143.88 87.48 143.84 88.4 143.76 89.28C143.6 91.44 143.48 93.68 143.4 96C143.32 98.4 143.2 100.52 143.04 102.36C143.04 102.6 143 102.92 142.92 103.32C142.92 103.8 142.92 104.24 142.92 104.64C142.76 106.88 142.68 108.6 142.68 109.8C142.68 111.08 142.6 112 142.44 112.56C142.28 113.04 142.2 113.36 142.2 113.52C142.2 113.76 142.12 114.08 141.96 114.48C141.96 114.64 141.92 114.8 141.84 114.96C141.84 115.2 141.84 115.36 141.84 115.44L141.48 115.8C141.4 115.88 141.28 116.08 141.12 116.4C141.12 116.96 140.8 117.48 140.16 117.96C140.16 118.28 140.04 118.48 139.8 118.56C139.64 118.56 139.52 118.6 139.44 118.68V118.92C139.36 119 139.28 119.04 139.2 119.04H138.96C138.8 119.12 138.72 119.2 138.72 119.28C138.72 119.36 138.6 119.4 138.36 119.4C138.28 119.48 138.2 119.52 138.12 119.52C138.12 119.6 138.04 119.68 137.88 119.76C137.8 119.84 137.56 119.88 137.16 119.88H134.16C133.68 119.88 133.36 119.84 133.2 119.76C133.12 119.76 133 119.72 132.84 119.64C132.68 119.56 132.52 119.48 132.36 119.4C131.96 119.24 131.68 119.12 131.52 119.04C131.36 119.04 131.24 119.04 131.16 119.04C131.08 118.88 130.92 118.8 130.68 118.8C130.28 118.8 130.08 118.72 130.08 118.56C130.08 118.56 129.76 118.56 129.12 118.56C129.04 118.56 128.96 118.56 128.88 118.56L128.28 118.68C128.2 118.68 128.12 118.68 128.04 118.68C127.48 118.68 126.76 118.6 125.88 118.44C125.08 118.28 124.52 118 124.2 117.6C124.12 117.52 123.8 117.24 123.24 116.76C122.68 116.36 122.12 115.92 121.56 115.44C121.08 115.04 120.8 114.84 120.72 114.84C120.64 114.6 120.56 114.48 120.48 114.48C120.48 114.48 120.48 114.52 120.48 114.6C120.4 114.6 120.12 114.36 119.64 113.88C119.24 113.48 118.76 112.96 118.2 112.32C117.64 111.76 117.24 111.32 117 111C116.92 110.84 116.6 110.32 116.04 109.44C115.48 108.56 114.92 107.68 114.36 106.8C113.8 105.92 113.52 105.4 113.52 105.24C113.52 105 113.48 104.88 113.4 104.88ZM138.72 52.56C138.72 52.64 138.84 52.8 139.08 53.04C139.24 53.2 139.4 53.28 139.56 53.28C139.56 52.8 139.28 52.56 138.72 52.56ZM121.32 76.44C121.32 78.36 121.56 79.4 122.04 79.56C122.28 79.64 122.48 79.68 122.64 79.68C123.44 79.68 124.16 79.48 124.8 79.08C125.44 78.6 126.04 78.08 126.6 77.52C126.76 77.36 126.92 77.2 127.08 77.04C127.24 76.8 127.4 76.64 127.56 76.56C127.88 76.24 128.04 75.96 128.04 75.72C128.12 75.72 128.24 75.56 128.4 75.24C128.48 75.08 128.56 74.92 128.64 74.76C128.72 74.6 128.8 74.48 128.88 74.4C129.2 74.16 129.48 73.84 129.72 73.44C130.04 73.04 130.2 72.76 130.2 72.6C130.2 72.6 130.2 72.56 130.2 72.48C130.28 72.4 130.36 72.32 130.44 72.24C130.76 72.16 130.92 72.08 130.92 72C130.92 72 130.88 72 130.8 72C130.8 71.76 130.96 71.48 131.28 71.16C131.76 70.68 132.24 70 132.72 69.12C133.28 68.24 133.72 67.48 134.04 66.84C134.2 66.68 134.4 66.36 134.64 65.88C134.96 65.4 135.12 65.08 135.12 64.92C135.44 64.6 135.76 64 136.08 63.12C136.48 62.24 136.76 61.56 136.92 61.08C137.08 60.52 137.16 60.24 137.16 60.24C137.16 60.16 137.16 60.04 137.16 59.88C137.24 59.64 137.28 59.4 137.28 59.16C137.28 59 137.28 58.8 137.28 58.56C137.36 58.32 137.4 58.16 137.4 58.08C137.48 58 137.6 57.6 137.76 56.88C137.76 56.8 137.76 56.72 137.76 56.64L137.88 55.92C137.88 55.84 137.88 55.76 137.88 55.68C137.96 55.52 138 55.24 138 54.84C137.92 54.52 137.64 54.32 137.16 54.24C136.76 54.08 136.32 54 135.84 54C135.44 54 135.16 54.04 135 54.12L134.4 54.48C133.84 54.48 133.12 55.04 132.24 56.16C131.36 57.2 130.52 58.36 129.72 59.64C129 60.92 128.52 61.76 128.28 62.16C128.12 62.16 127.92 61.76 127.68 60.96C127.68 60.72 127.8 60.28 128.04 59.64C128.28 59 128.56 58.48 128.88 58.08C128.96 58 129 57.84 129 57.6C129.24 57.6 129.36 57.52 129.36 57.36C129.36 57.12 129.4 57 129.48 57C129.64 57 129.72 56.92 129.72 56.76C129.72 56.52 129.8 56.4 129.96 56.4C130.12 56.24 130.2 56.12 130.2 56.04C130.2 55.88 130.64 55.36 131.52 54.48C132.16 53.84 132.48 53.48 132.48 53.4C132.24 53.56 131.8 53.92 131.16 54.48C130.52 54.96 129.92 55.48 129.36 56.04C128.8 56.52 128.52 56.84 128.52 57C128.52 57.32 128.24 57.68 127.68 58.08C127.52 58.24 127.44 58.4 127.44 58.56C127.36 58.88 127.24 59.12 127.08 59.28C126.52 59.84 126.24 60.2 126.24 60.36C126.24 60.36 126.2 60.44 126.12 60.6C126.12 60.76 126.04 60.92 125.88 61.08C125.56 61.56 125.4 61.84 125.4 61.92C125.4 62 125.2 62.52 124.8 63.48C124.4 64.36 124.16 64.84 124.08 64.92C124 64.92 123.96 65.08 123.96 65.4C123.8 65.72 123.72 65.88 123.72 65.88C123.56 66.04 123.4 66.32 123.24 66.72C123.16 67.04 123.08 67.32 123 67.56C123 67.64 122.92 67.92 122.76 68.4C122.68 68.56 122.64 68.76 122.64 69C122.64 69.16 122.64 69.28 122.64 69.36L122.52 69.48C122.36 69.48 122.28 69.6 122.28 69.84C122.28 69.92 122.24 70.16 122.16 70.56C122.08 70.96 122 71.4 121.92 71.88C121.52 73.24 121.32 74.16 121.32 74.64C121.32 75.04 121.32 75.64 121.32 76.44ZM118.92 111.24C118.92 111.16 118.84 111.12 118.68 111.12C118.68 111.2 118.72 111.28 118.8 111.36C118.88 111.36 118.92 111.32 118.92 111.24ZM135.24 114C135.24 114.08 135.24 114.12 135.24 114.12C135.32 114.04 135.36 113.92 135.36 113.76C135.36 113.76 135.36 113.72 135.36 113.64C135.36 113.64 135.32 113.68 135.24 113.76C135.24 113.84 135.24 113.92 135.24 114Z" fill="white"/>
</svg>
