<svg width="196" height="135" viewBox="0 0 196 135" fill="none" xmlns="http://www.w3.org/2000/svg">
<path d="M1.67997 39.24C0.55997 39.24 -3.00407e-05 39 -3.00407e-05 38.52C-3.00407e-05 38.44 -3.00407e-05 38.4 -3.00407e-05 38.4V37.68C0.15997 37.6 0.47997 37.32 0.95997 36.84C1.43997 36.36 1.71997 36.12 1.79997 36.12C1.87997 36.12 1.91997 36.08 1.91997 36C1.91997 35.92 1.75997 35.64 1.43997 35.16C1.03997 34.52 0.83997 33.96 0.83997 33.48C0.75997 33 0.719971 32.72 0.719971 32.64C0.719971 31.92 0.879971 31.36 1.19997 30.96C1.59997 30.32 1.83997 29.92 1.91997 29.76C1.99997 29.52 2.03997 29.36 2.03997 29.28C2.03997 28.96 1.95997 28.6 1.79997 28.2C1.63997 27.64 1.55997 27.2 1.55997 26.88C1.55997 26.4 1.75997 26.16 2.15997 26.16C2.31997 26.16 2.47997 26.24 2.63997 26.4C2.79997 26.48 2.99997 26.56 3.23997 26.64C3.31997 26.72 3.43997 26.76 3.59997 26.76L4.43997 27C4.51997 27 4.63997 27 4.79997 27C5.03997 27 5.27997 27 5.51997 27C6.15997 27 6.95997 26.88 7.91997 26.64C8.39997 26.64 8.63997 26.64 8.63997 26.64C8.87997 26.32 9.07997 26.16 9.23997 26.16C9.47997 26.16 9.59997 26.12 9.59997 26.04C9.59997 25.88 9.87997 25.8 10.44 25.8C10.6 25.8 11 25.76 11.64 25.68C12.2 25.6 12.76 25.48 13.32 25.32C13.8 25.16 14.2 25.08 14.52 25.08C14.92 25.08 15.24 25.08 15.48 25.08C15.88 25.08 16.08 25.12 16.08 25.2C16.16 25.28 16.2 25.32 16.2 25.32C16.2 25.48 16.08 25.76 15.84 26.16C15.68 26.32 15.6 26.44 15.6 26.52C15.6 26.6 15.64 26.64 15.72 26.64C15.96 26.64 16.44 26.52 17.16 26.28C17.88 26.04 19.16 25.76 21 25.44C22.84 25.12 24.6 24.84 26.28 24.6C26.76 24.52 27.2 24.44 27.6 24.36C28.08 24.2 28.36 24.12 28.44 24.12C28.52 23.96 28.56 23.76 28.56 23.52C28.56 23.28 28.52 23.16 28.44 23.16C28.28 23.16 28.2 22.88 28.2 22.32C28.2 22.08 28.2 21.64 28.2 21C28.28 20.36 28.48 19.24 28.8 17.64C29.28 15.4 29.72 13.8 30.12 12.84C30.52 11.88 30.88 11.4 31.2 11.4H31.44C31.76 11.4 32.08 11.52 32.4 11.76C32.8 11.92 33.36 12.4 34.08 13.2C35.28 14.56 36.12 15.32 36.6 15.48C37.4 15.72 37.96 16.24 38.28 17.04C38.6 17.76 38.76 18.36 38.76 18.84C38.76 18.92 38.76 19 38.76 19.08C38.44 20.28 38 20.96 37.44 21.12C37.28 21.2 36.96 21.64 36.48 22.44C36.08 23.16 35.88 23.6 35.88 23.76C35.96 23.76 36.24 23.72 36.72 23.64C37.2 23.48 37.76 23.32 38.4 23.16C39.76 22.92 41.24 22.6 42.84 22.2C44.52 21.72 46 21.28 47.28 20.88C48.56 20.48 49.36 20.28 49.68 20.28C50.24 20.28 50.68 20.2 51 20.04C51.16 20.04 51.44 20 51.84 19.92C52.32 19.76 52.8 19.64 53.28 19.56C53.92 19.48 54.4 19.44 54.72 19.44C55.12 19.36 55.32 19.32 55.32 19.32C55.32 19.08 55.2 18.92 54.96 18.84C54.8 18.76 54.64 18.72 54.48 18.72C54.16 18.72 53.36 18.8 52.08 18.96C50.88 19.12 49.64 19.32 48.36 19.56C47.16 19.72 46.52 19.88 46.44 20.04C46.36 20.04 46.24 20.04 46.08 20.04L45.48 20.16C45.4 20.16 45.28 20.16 45.12 20.16C45.04 20.16 45 20.16 45 20.16C45 20.08 45.12 20 45.36 19.92C45.68 19.76 46.12 19.6 46.68 19.44C48.6 18.88 50.8 18.28 53.28 17.64C55.76 17 58 16.68 60 16.68C60.72 16.68 61.32 16.6 61.8 16.44C62.04 16.36 62.24 16.32 62.4 16.32C62.56 16.24 62.72 16.2 62.88 16.2C63.2 16.2 63.56 16.44 63.96 16.92C64.2 17.32 64.44 17.52 64.68 17.52C64.92 17.52 65.12 17.76 65.28 18.24C65.52 18.88 65.84 19.48 66.24 20.04C66.72 20.52 67.08 20.76 67.32 20.76C67.8 20.76 68.04 21.04 68.04 21.6C68.04 21.68 68.12 21.88 68.28 22.2C68.36 22.36 68.52 22.64 68.76 23.04C69 23.36 69.12 23.6 69.12 23.76C69.12 23.76 68.96 24 68.64 24.48C68.48 24.64 68.32 24.84 68.16 25.08C68.08 25.24 68 25.36 67.92 25.44C67.76 25.84 67.68 26.08 67.68 26.16C67.68 26.24 67.88 26.48 68.28 26.88C68.68 27.28 68.88 27.56 68.88 27.72C68.72 28.12 68.64 28.48 68.64 28.8C68.64 29.12 68.76 29.36 69 29.52C69.48 29.84 70.08 30.08 70.8 30.24C71.84 30.4 72.76 30.8 73.56 31.44C74.44 32 75.04 32.52 75.36 33C75.6 33.4 75.72 33.84 75.72 34.32C75.72 34.48 75.68 34.76 75.6 35.16C75.52 35.56 75 36.44 74.04 37.8C73.32 38.92 72.48 40.12 71.52 41.4C70.56 42.68 69.72 43.8 69 44.76C68.28 45.64 67.84 46.08 67.68 46.08C67.6 46.08 67.2 46.36 66.48 46.92C65.84 47.48 65.08 48.16 64.2 48.96C63.4 49.68 62.64 50.36 61.92 51C61.28 51.64 60.88 52 60.72 52.08C59.6 53.2 58.36 54.28 57 55.32C55.64 56.28 54.24 57.16 52.8 57.96C52.48 58.12 52.04 58.4 51.48 58.8C50.92 59.2 50.4 59.56 49.92 59.88C45.6 63.08 43.28 64.68 42.96 64.68C42.16 64.68 41.52 65.28 41.04 66.48C40.56 67.68 40.28 68.56 40.2 69.12C40.12 70.16 40 70.88 39.84 71.28C39.68 71.68 39.36 71.88 38.88 71.88C37.76 71.88 36.72 71.28 35.76 70.08C35.44 69.68 34.96 69.24 34.32 68.76C33.68 68.2 33.28 67.92 33.12 67.92C33.04 67.92 33 68.64 33 70.08C33.24 73.04 33.36 75.88 33.36 78.6C33.44 81.24 33.48 83.4 33.48 85.08C33.48 86.68 33.44 88.56 33.36 90.72C33.36 92.88 33.24 94.4 33 95.28C33 95.76 33.04 96 33.12 96C33.36 96 33.48 95.88 33.48 95.64V94.68C33.56 94.52 33.6 94.24 33.6 93.84C33.6 93.44 33.6 93 33.6 92.52C33.6 91.48 33.64 90.96 33.72 90.96C33.96 90.96 34.08 91.68 34.08 93.12C34.16 93.68 34.2 94.24 34.2 94.8C34.28 95.28 34.36 95.64 34.44 95.88C34.52 96.2 34.6 96.6 34.68 97.08C34.76 97.64 34.8 98.64 34.8 100.08C34.64 100.96 34.52 101.84 34.44 102.72C34.44 103.6 34.44 104.2 34.44 104.52C34.36 104.84 34.32 105.2 34.32 105.6C34.32 106 34.32 106.36 34.32 106.68C34.4 107.24 34.6 107.52 34.92 107.52C35.08 107.52 35.16 107.64 35.16 107.88C35.16 107.96 35.2 108 35.28 108C35.36 108 35.44 107.96 35.52 107.88C35.6 107.64 35.72 106.96 35.88 105.84C36.04 104.8 36.4 102.44 36.96 98.76C37.12 97.96 37.24 97.08 37.32 96.12C37.48 95.16 37.6 94.4 37.68 93.84C37.76 93.28 37.84 92.68 37.92 92.04C38 91.4 38.04 90.8 38.04 90.24C38.04 90 38.16 89.88 38.4 89.88C38.4 89.88 38.4 89.92 38.4 90C38.48 90.08 38.52 90.2 38.52 90.36C38.44 91.48 38.36 92.6 38.28 93.72C38.2 94.84 38.08 95.96 37.92 97.08C37.84 97.64 37.76 98.32 37.68 99.12C37.68 99.92 37.68 100.6 37.68 101.16C37.52 101.8 37.44 102.4 37.44 102.96C37.44 103.6 37.4 104.08 37.32 104.4C37.32 104.72 37.32 105.08 37.32 105.48C37.32 105.96 37.28 106.4 37.2 106.8C37.2 107.2 37.16 107.6 37.08 108C37.08 108.4 37.08 108.68 37.08 108.84C36.84 109.32 36.72 110.12 36.72 111.24C36.24 115.08 35.28 117 33.84 117C33.2 117 32.64 116.76 32.16 116.28C32.08 116.2 31.96 116.12 31.8 116.04C31.72 116.04 31.68 116.04 31.68 116.04C31.28 116.04 30.48 115.6 29.28 114.72C28.72 114.32 28.44 114.12 28.44 114.12C28.36 114.12 28.12 114.48 27.72 115.2C27.64 115.44 27.28 115.56 26.64 115.56C26.48 115.56 26.2 115.44 25.8 115.2C25.4 115.04 25.2 114.84 25.2 114.6C25.2 114.6 25.2 114.56 25.2 114.48C25.2 114.4 25.16 114.28 25.08 114.12C24.84 114.12 24.72 113.8 24.72 113.16C24.56 112.84 24.44 112.56 24.36 112.32C24.36 112.16 24.32 112 24.24 111.84C24.24 111.76 24.16 111.72 24 111.72C23.92 111.72 23.8 111.76 23.64 111.84C23.08 112.24 22.56 112.44 22.08 112.44C21.76 112.44 21.36 112.36 20.88 112.2C20.4 112.12 20.12 111.92 20.04 111.6C19.96 111.52 19.88 111.44 19.8 111.36C19.72 111.28 19.6 111.24 19.44 111.24C19.2 111.24 18.84 111.16 18.36 111C17.88 110.84 17.44 110.56 17.04 110.16C16.72 109.84 16.52 109.6 16.44 109.44C16.44 109.36 16.44 109.24 16.44 109.08C16.44 108.84 16.48 108.52 16.56 108.12C16.56 107.48 16.64 106.84 16.8 106.2C16.96 105.56 17.08 105.04 17.16 104.64C17.24 104.56 17.28 104.44 17.28 104.28C17.28 104.2 17.36 104.08 17.52 103.92C17.52 103.52 17.56 103.2 17.64 102.96C17.72 102.72 17.8 102.32 17.88 101.76C18.04 101.44 18.16 101.04 18.24 100.56C18.4 100.08 18.56 99.64 18.72 99.24C18.88 98.68 19.04 98.2 19.2 97.8C19.36 97.48 19.56 97.24 19.8 97.08C20.28 96.76 20.52 96.36 20.52 95.88C20.6 95.64 20.68 95.48 20.76 95.4C20.84 95.32 20.88 95.28 20.88 95.28C20.88 95.36 20.84 95.64 20.76 96.12C20.76 96.68 20.72 97.32 20.64 98.04L20.4 100.68C20.4 100.76 20.4 100.8 20.4 100.8C20.48 100.8 20.76 100.4 21.24 99.6C21.72 98.8 22.2 97.8 22.68 96.6C23.08 95.64 23.28 94.68 23.28 93.72C23.28 92.92 23.36 92.04 23.52 91.08C23.52 90.68 23.52 90.08 23.52 89.28C23.6 88.4 23.68 87.56 23.76 86.76C23.76 85.96 23.8 85.2 23.88 84.48C23.96 83.68 24 83.12 24 82.8C24.08 82.56 24.12 82.12 24.12 81.48C24.12 80.76 24.16 80.08 24.24 79.44C24.24 78.72 24.24 77.68 24.24 76.32C24.32 74.96 24.4 73.6 24.48 72.24C24.56 70.96 24.6 70 24.6 69.36C24.68 68.72 24.72 68.28 24.72 68.04C24.72 67.32 24.64 66.84 24.48 66.6C24.48 65.88 24.56 65.48 24.72 65.4C24.8 65.32 24.84 65.24 24.84 65.16C24.84 64.92 24.64 64.68 24.24 64.44C23.6 64.12 23.08 63.72 22.68 63.24C22.28 62.68 21.84 62.12 21.36 61.56C20.72 60.84 20.32 60.32 20.16 60C20.08 59.68 20.04 59.44 20.04 59.28C20.04 59.12 20.04 59 20.04 58.92C20.04 58.68 20.2 58.56 20.52 58.56C20.92 58.56 21.44 58.76 22.08 59.16C22.72 59.56 23.36 59.92 24 60.24C24.64 60.56 25 60.72 25.08 60.72C25.24 60.72 25.32 60.52 25.32 60.12C25.32 59.64 25.24 59.36 25.08 59.28C25 59.28 24.96 59.24 24.96 59.16C24.96 59.16 25 59.12 25.08 59.04C25.16 58.88 25.24 58.4 25.32 57.6C25.4 56.8 25.44 54.88 25.44 51.84C25.44 50.48 25.44 49.2 25.44 48C25.52 46.8 25.6 46.12 25.68 45.96C25.68 44.36 25.72 42.8 25.8 41.28C25.88 39.76 26.04 38.28 26.28 36.84C26.28 36.6 26.28 36.36 26.28 36.12L26.4 35.4C26.4 35.16 26.36 35 26.28 34.92C26.28 34.92 26.24 34.92 26.16 34.92C26 34.92 25.52 35.08 24.72 35.4C24 35.72 23.2 36.04 22.32 36.36C22 36.52 21.84 36.6 21.84 36.6C21.84 36.68 21.96 36.72 22.2 36.72C22.28 36.64 22.36 36.6 22.44 36.6C22.44 36.6 22.44 36.64 22.44 36.72C22.44 36.8 22.28 36.88 21.96 36.96C20.36 37.6 18.72 38.2 17.04 38.76C15.44 39.32 13.84 39.96 12.24 40.68C9.19997 42.04 6.95997 43.08 5.51997 43.8C4.07997 44.44 3.27997 44.76 3.11997 44.76C2.71997 44.68 2.51997 44.36 2.51997 43.8C2.51997 43.48 2.55997 43.16 2.63997 42.84C2.79997 41.96 2.87997 41.4 2.87997 41.16C2.87997 40.84 2.79997 40.44 2.63997 39.96C2.47997 39.48 2.15997 39.24 1.67997 39.24ZM32.64 15.48C32.4 15.48 32.28 15.56 32.28 15.72C32.28 15.88 32.4 15.96 32.64 15.96C32.72 15.96 32.76 15.88 32.76 15.72C32.76 15.56 32.72 15.48 32.64 15.48ZM33.6 20.28C33.44 20.6 33.36 20.8 33.36 20.88C33.36 20.96 33.4 21 33.48 21C33.48 21 33.52 21 33.6 21C33.68 20.92 33.72 20.72 33.72 20.4C33.72 20.24 33.72 20.16 33.72 20.16C33.64 20.16 33.6 20.2 33.6 20.28ZM30 60.84L30.72 60.72C30.96 60.72 31.12 60.72 31.2 60.72C31.36 60.64 31.48 60.6 31.56 60.6C31.64 60.52 31.72 59.96 31.8 58.92C31.88 57.88 32.04 56.12 32.28 53.64C32.36 52.36 32.52 51.08 32.76 49.8C33 48.44 33.2 47.72 33.36 47.64C33.44 47.64 33.52 47.64 33.6 47.64C33.92 47.64 34.08 47.84 34.08 48.24C34.08 48.4 34 49.24 33.84 50.76C33.68 52.2 33.56 53.28 33.48 54C33.4 54.48 33.32 55.2 33.24 56.16C33.24 57.04 33.2 57.88 33.12 58.68C33.04 59.48 33 59.96 33 60.12C33 60.28 33.12 60.36 33.36 60.36C33.44 60.36 33.52 60.36 33.6 60.36C33.76 60.36 33.88 60.32 33.96 60.24C34.12 60.16 34.24 60.12 34.32 60.12C34.48 59.96 34.8 59.88 35.28 59.88C37.76 59.4 40.36 58.52 43.08 57.24C45.88 55.88 48.44 54.68 50.76 53.64L51.84 53.16C51.92 53.16 52.12 53 52.44 52.68C52.52 52.6 52.68 52.48 52.92 52.32C53.16 52.08 53.44 51.92 53.76 51.84C55.52 51.12 56.92 50.24 57.96 49.2C59.08 48.08 59.64 47.4 59.64 47.16C59.64 47.16 59.88 46.84 60.36 46.2C60.92 45.48 61.52 44.72 62.16 43.92C62.88 43.04 63.44 42.36 63.84 41.88C64.16 41.64 64.32 41.44 64.32 41.28C64.32 41.12 64.16 41.04 63.84 41.04H63.36C63.2 41.04 63.04 41.12 62.88 41.28C60.64 43.6 58.92 45.56 57.72 47.16C56.52 48.76 54.88 50.2 52.8 51.48C51.84 52.04 51.36 52.36 51.36 52.44C51.36 52.44 51.52 52.2 51.84 51.72C52 51.56 52.4 51.12 53.04 50.4C53.76 49.6 54.48 48.84 55.2 48.12C55.92 47.32 56.32 46.92 56.4 46.92C57.44 46.36 58.32 45.56 59.04 44.52C59.76 43.4 60.44 42.32 61.08 41.28C62.36 39.36 63 37.92 63 36.96C63 36.48 62.84 36.12 62.52 35.88C62.44 35.72 62.28 35.56 62.04 35.4C61.8 35.16 61.6 34.88 61.44 34.56C60.88 33.68 60.6 32.88 60.6 32.16C60.6 31.6 60.8 31.08 61.2 30.6C61.52 30.12 61.68 29.8 61.68 29.64C61.68 29.48 61.64 29.2 61.56 28.8C61.48 28.64 61.4 28.44 61.32 28.2C61.24 27.96 61.2 27.76 61.2 27.6C61.2 27.28 61.16 27.12 61.08 27.12C61.08 27.12 61.04 27.16 60.96 27.24C60.72 27.48 60.16 27.64 59.28 27.72C58.48 27.72 57.88 27.72 57.48 27.72C56.68 27.72 55.72 27.68 54.6 27.6C53.56 27.52 52.8 27.48 52.32 27.48C52.32 27.32 52.6 27.24 53.16 27.24C53.4 27.08 53.6 27 53.76 27C53.92 26.92 54.08 26.84 54.24 26.76C54.24 26.76 54.08 26.76 53.76 26.76C53.52 26.68 53.12 26.64 52.56 26.64C51.92 26.64 50.68 26.72 48.84 26.88C47 26.96 44.96 27.12 42.72 27.36C40.48 27.52 38.48 27.76 36.72 28.08C34.96 28.32 33.84 28.56 33.36 28.8C32.88 29.12 32.64 29.92 32.64 31.2V32.04L33.6 31.92C33.92 31.92 34.16 31.92 34.32 31.92C34.48 31.84 34.64 31.8 34.8 31.8C34.88 31.8 34.92 31.8 34.92 31.8C34.92 31.88 34.56 32.04 33.84 32.28C32.88 32.6 32.36 32.88 32.28 33.12C32.28 33.28 32.24 33.44 32.16 33.6C32.16 33.68 32.16 33.72 32.16 33.72C32.16 33.8 32.2 33.88 32.28 33.96C32.36 34.04 32.4 34.24 32.4 34.56C32.24 35.76 32.04 37.2 31.8 38.88C31.64 40.56 31.48 42.16 31.32 43.68C31.16 45.2 31.04 46.28 30.96 46.92C30.96 47.64 30.92 48.32 30.84 48.96C30.84 49.52 30.8 49.88 30.72 50.04C30.72 50.92 30.68 51.84 30.6 52.8C30.52 53.68 30.4 54.56 30.24 55.44C30.24 56 30.2 56.68 30.12 57.48C30.12 58.2 30.12 58.76 30.12 59.16L30 60.84ZM30.6 31.8C30.6 31.96 30.6 32.08 30.6 32.16C30.6 32.48 30.68 32.64 30.84 32.64C31.24 32.64 31.44 32.56 31.44 32.4C31.44 32.32 31.48 32.08 31.56 31.68C31.64 31.28 31.76 30.88 31.92 30.48C32.08 29.84 32.16 29.4 32.16 29.16C32.16 29.16 32.12 29.12 32.04 29.04C32.04 28.96 31.92 28.92 31.68 28.92C31.2 29.08 30.84 30.04 30.6 31.8ZM15.84 34.56C16 34.56 16.24 34.6 16.56 34.68C16.96 34.68 17.36 34.68 17.76 34.68C18.24 34.68 18.68 34.68 19.08 34.68L19.8 34.8C20.28 34.8 20.72 34.8 21.12 34.8C21.6 34.8 22.12 34.72 22.68 34.56C23.24 34.4 23.92 34.24 24.72 34.08C25.12 34.08 25.48 34.08 25.8 34.08C26.12 34 26.32 33.96 26.4 33.96C26.4 33.88 26.48 33.44 26.64 32.64C26.64 32.48 26.68 32.2 26.76 31.8C26.84 31.4 26.88 31.08 26.88 30.84L27 29.88L25.56 30.48C25.16 30.64 24.76 30.8 24.36 30.96L22.08 31.8C21.68 31.96 21.28 32.12 20.88 32.28C20.08 32.68 19.08 33.12 17.88 33.6C16.68 34.08 16 34.4 15.84 34.56ZM71.64 33.36C71.48 33.44 71.4 33.48 71.4 33.48C71.4 33.56 71.44 33.64 71.52 33.72C71.68 33.8 71.92 33.84 72.24 33.84H72.72C72.72 33.68 72.6 33.56 72.36 33.48C72.12 33.4 71.92 33.36 71.76 33.36C71.68 33.36 71.64 33.36 71.64 33.36ZM27.96 46.08C27.96 46.24 27.96 46.36 27.96 46.44C27.96 46.52 27.96 46.56 27.96 46.56C28.12 46.56 28.28 46.48 28.44 46.32C28.6 46.16 28.68 45.84 28.68 45.36C28.76 45.12 28.84 44.88 28.92 44.64C29 44.4 29.04 44.2 29.04 44.04C29.12 43.88 29.24 43.24 29.4 42.12C29.64 41 29.84 39.88 30 38.76C30.24 37.56 30.4 36.76 30.48 36.36C30.8 35.16 30.96 34.44 30.96 34.2C31.04 33.96 31.08 33.8 31.08 33.72C31.08 33.56 31.04 33.48 30.96 33.48H30.72C30.32 33.48 29.96 34.16 29.64 35.52C29.32 36.8 29.04 38.16 28.8 39.6C28.64 41.04 28.56 41.96 28.56 42.36C28.4 43.8 28.28 44.72 28.2 45.12C28.12 45.44 28.04 45.76 27.96 46.08ZM74.04 34.56C74.04 34.88 74.08 35.04 74.16 35.04C74.16 35.04 74.16 35 74.16 34.92C74.24 34.76 74.32 34.64 74.4 34.56C74.48 34.4 74.52 34.24 74.52 34.08C74.52 33.92 74.44 33.84 74.28 33.84C74.28 33.84 74.24 33.84 74.16 33.84C74.16 33.84 74.12 33.92 74.04 34.08C74.04 34.24 74.04 34.4 74.04 34.56ZM64.68 36.6C64.68 36.68 64.72 36.72 64.8 36.72C64.8 36.72 64.84 36.72 64.92 36.72C65 36.64 65.04 36.52 65.04 36.36C64.8 36.36 64.68 36.44 64.68 36.6ZM64.92 40.44C64.92 40.44 65 40.36 65.16 40.2C65.4 40.04 65.52 39.8 65.52 39.48C65.52 39.4 65.52 39.36 65.52 39.36C65.52 39.36 65.48 39.4 65.4 39.48L64.92 40.44ZM3.83997 42.84C3.83997 43.08 3.95997 43.2 4.19997 43.2C4.27997 43.2 4.31997 43.08 4.31997 42.84C4.23997 42.84 4.15997 42.8 4.07997 42.72C3.99997 42.72 3.91997 42.72 3.83997 42.72C3.83997 42.8 3.83997 42.84 3.83997 42.84ZM63.12 47.88C62.88 48.04 62.76 48.16 62.76 48.24C62.76 48.32 62.8 48.36 62.88 48.36L63.12 47.88ZM27 59.28C26.92 59.28 26.88 59.56 26.88 60.12C26.88 60.84 26.96 61.2 27.12 61.2C27.36 61.2 27.48 61.12 27.48 60.96C27.56 60.8 27.6 60.4 27.6 59.76C27.6 58.96 27.52 58.56 27.36 58.56C27.2 58.56 27.12 58.72 27.12 59.04C27.12 59.2 27.08 59.28 27 59.28ZM34.2 61.56C34.04 61.56 33.88 61.6 33.72 61.68C33.64 61.76 33.6 61.8 33.6 61.8C33.6 61.88 33.68 61.92 33.84 61.92C34.16 61.92 34.36 61.88 34.44 61.8C34.44 61.72 34.44 61.68 34.44 61.68C34.44 61.6 34.36 61.56 34.2 61.56ZM26.88 65.52C26.72 65.52 26.64 65.6 26.64 65.76C26.64 65.92 26.68 66.12 26.76 66.36C26.84 66.52 26.88 66.72 26.88 66.96V67.68L27 67.08C27.08 66.76 27.12 66.36 27.12 65.88C27.12 65.64 27.04 65.52 26.88 65.52ZM30.12 66.48C29.88 66.48 29.76 66.76 29.76 67.32C29.76 68.04 29.8 68.4 29.88 68.4C30.12 68.4 30.32 68.2 30.48 67.8C30.64 67.48 30.72 67.2 30.72 66.96C30.72 66.64 30.52 66.48 30.12 66.48ZM29.4 82.32C29.32 83.2 29.28 83.8 29.28 84.12C29.28 84.28 29.28 84.36 29.28 84.36C29.36 84.36 29.4 84.28 29.4 84.12C29.48 83.8 29.52 83.4 29.52 82.92C29.52 82.36 29.6 81.84 29.76 81.36C29.76 80.16 29.68 79.56 29.52 79.56C29.52 79.56 29.48 79.8 29.4 80.28C29.4 80.76 29.4 81.44 29.4 82.32ZM29.28 85.68C29.28 85.84 29.32 85.92 29.4 85.92V85.56C29.4 85.48 29.36 85.44 29.28 85.44C29.28 85.44 29.28 85.52 29.28 85.68ZM33 97.56C33.08 97.56 33.12 97.44 33.12 97.2C33.28 97.04 33.36 96.88 33.36 96.72C33.36 96.64 33.28 96.56 33.12 96.48C33.04 96.48 33 96.6 33 96.84V97.56ZM57.135 93.96C56.975 93.88 56.895 93.6 56.895 93.12C56.895 92.48 57.055 91.48 57.375 90.12C57.535 89.32 57.655 88.72 57.735 88.32C57.815 87.84 57.855 87.24 57.855 86.52C57.855 85.72 57.855 84.56 57.855 83.04C57.855 81.2 57.895 79.56 57.975 78.12C58.055 76.6 58.175 75.8 58.335 75.72C58.335 75.64 58.495 75.6 58.815 75.6C58.895 75.6 58.935 75.6 58.935 75.6C59.255 75.6 59.455 75.8 59.535 76.2C59.535 76.36 59.535 76.64 59.535 77.04C59.615 77.44 59.655 77.92 59.655 78.48C59.735 79.84 59.815 81.08 59.895 82.2C60.055 83.24 60.175 84 60.255 84.48C60.255 84.56 60.255 84.64 60.255 84.72L60.375 85.08C60.375 85.16 60.375 85.24 60.375 85.32C60.375 85.4 60.375 85.48 60.375 85.56L60.495 86.04C60.495 86.12 60.495 86.2 60.495 86.28C60.655 87 60.815 87.6 60.975 88.08C61.215 88.56 61.375 88.8 61.455 88.8C61.535 88.8 61.575 88.72 61.575 88.56C61.655 87.92 61.695 87.52 61.695 87.36C61.695 87.12 61.735 87 61.815 87C61.895 86.84 61.935 86.72 61.935 86.64C61.855 86.64 61.815 86.56 61.815 86.4C61.815 86.32 61.815 86.16 61.815 85.92C61.895 85.68 61.935 85.36 61.935 84.96C62.095 84.08 62.175 83.36 62.175 82.8C62.255 82.24 62.335 81.56 62.415 80.76C62.415 80.44 62.415 80.12 62.415 79.8C62.495 79.4 62.535 79.08 62.535 78.84C62.695 78.12 62.775 77.64 62.775 77.4C62.855 77.08 62.935 76.68 63.015 76.2C63.015 75.88 63.015 75.6 63.015 75.36C63.095 75.04 63.135 74.84 63.135 74.76V73.08C63.215 72.76 63.255 72.48 63.255 72.24C63.255 72 63.255 71.88 63.255 71.88C63.415 71.72 63.495 71.44 63.495 71.04C63.495 70.88 63.455 70.6 63.375 70.2C63.375 69.8 63.295 69.52 63.135 69.36C63.055 69.28 63.015 69.12 63.015 68.88C63.015 68.8 63.015 68.72 63.015 68.64C63.015 68.56 62.975 68.48 62.895 68.4C62.895 68.32 62.895 68.28 62.895 68.28C62.655 68.52 62.535 68.76 62.535 69C62.535 69.08 62.455 69.56 62.295 70.44C62.215 71.32 62.095 72.2 61.935 73.08C61.775 73.96 61.695 74.4 61.695 74.4V75.48C61.695 75.64 61.695 75.72 61.695 75.72L61.575 75.84C61.415 75.84 61.335 75.4 61.335 74.52C61.335 74.28 61.335 73.76 61.335 72.96C61.415 72.08 61.535 70.36 61.695 67.8C61.775 66.28 61.855 65.24 61.935 64.68C62.015 64.04 62.095 63.56 62.175 63.24C62.335 62.44 62.415 61.76 62.415 61.2C62.495 60.8 62.535 60.32 62.535 59.76C62.615 59.2 62.655 58.72 62.655 58.32C62.895 57.52 63.015 57.04 63.015 56.88C63.015 56.8 63.015 56.76 63.015 56.76C63.015 56.76 63.015 56.64 63.015 56.4C63.015 56.16 63.055 55.92 63.135 55.68C63.135 55.36 63.135 55.08 63.135 54.84C63.215 54.6 63.255 54.4 63.255 54.24C63.335 54.16 63.375 53.84 63.375 53.28C63.375 53.12 63.455 52.52 63.615 51.48C63.775 50.44 63.895 49.88 63.975 49.8C63.975 49.72 63.975 49.64 63.975 49.56L64.095 49.08C64.095 49 64.095 48.92 64.095 48.84C64.255 48.52 64.335 48.2 64.335 47.88C64.255 47.88 64.215 47.8 64.215 47.64C64.215 47.48 64.295 47.2 64.455 46.8C64.615 46.4 64.735 46.2 64.815 46.2C65.055 46.2 65.215 45.24 65.295 43.32C65.295 42.84 65.295 42.24 65.295 41.52C65.375 40.72 65.415 40.04 65.415 39.48C65.495 37.72 65.535 35.76 65.535 33.6C65.535 31.36 65.455 29.56 65.295 28.2C65.295 27.96 65.255 27.76 65.175 27.6C65.175 27.44 65.175 27.32 65.175 27.24V26.76C65.175 26.76 65.055 27 64.815 27.48C64.815 27.8 64.775 28.32 64.695 29.04C64.695 29.68 64.655 30.28 64.575 30.84C64.575 31 64.535 31.2 64.455 31.44C64.455 31.68 64.455 31.96 64.455 32.28C64.455 32.36 64.455 32.44 64.455 32.52L64.335 33.24C64.335 33.32 64.335 33.4 64.335 33.48C64.175 33.72 64.095 34.04 64.095 34.44C64.095 34.52 64.055 34.76 63.975 35.16C63.975 35.48 63.935 35.84 63.855 36.24C63.775 36.64 63.735 37 63.735 37.32C63.735 37.56 63.735 37.72 63.735 37.8L63.255 40.2C63.255 40.28 63.215 40.48 63.135 40.8C63.135 41.04 63.135 41.36 63.135 41.76C63.055 42.08 63.015 42.36 63.015 42.6C63.015 42.76 63.015 42.84 63.015 42.84C62.935 43 62.895 43.32 62.895 43.8C62.735 43.96 62.655 44.16 62.655 44.4C62.655 44.64 62.615 44.8 62.535 44.88C62.535 45.36 62.495 45.72 62.415 45.96C61.855 47.64 61.575 49.44 61.575 51.36C61.575 51.44 61.575 51.56 61.575 51.72C61.575 52.12 61.495 52.72 61.335 53.52C61.255 54.24 61.135 54.64 60.975 54.72V54C60.975 53.6 61.015 53.4 61.095 53.4C61.175 53.4 61.215 53.16 61.215 52.68C61.215 52.36 61.255 51.56 61.335 50.28C61.495 48.92 61.655 47.4 61.815 45.72C62.055 44.76 62.215 43.72 62.295 42.6C62.375 41.48 62.415 40.44 62.415 39.48C62.495 39.16 62.535 38.64 62.535 37.92C62.615 37.2 62.735 36.6 62.895 36.12C62.895 35.96 62.895 35.76 62.895 35.52C62.895 35.2 62.935 34.88 63.015 34.56C63.015 34.24 63.015 33.92 63.015 33.6C63.015 33.28 63.055 33 63.135 32.76C63.135 32.6 63.135 32.4 63.135 32.16C63.215 31.84 63.255 31.52 63.255 31.2C63.255 31.04 63.255 30.8 63.255 30.48C63.335 30.16 63.375 29.88 63.375 29.64C63.455 29.16 63.495 28.24 63.495 26.88C63.575 25.52 63.615 24.24 63.615 23.04C63.615 21.84 63.615 21.2 63.615 21.12C63.375 21.12 63.255 21.24 63.255 21.48C63.175 22.04 63.055 22.72 62.895 23.52C62.735 24.24 62.615 24.64 62.535 24.72C62.535 25.04 62.495 25.24 62.415 25.32C62.415 25.4 62.375 25.52 62.295 25.68C62.295 25.84 62.295 26 62.295 26.16C62.215 26.56 61.975 27.04 61.575 27.6C61.255 28.08 61.015 28.36 60.855 28.44C60.695 28.44 60.575 28.44 60.495 28.44C60.255 28.44 60.095 28.4 60.015 28.32C59.855 28.16 59.735 28.04 59.655 27.96C59.655 27.8 59.655 27.44 59.655 26.88C59.735 25.6 59.855 24.68 60.015 24.12C60.175 23.48 60.255 22.96 60.255 22.56C60.255 22.48 60.255 22.2 60.255 21.72C60.335 21.24 60.415 20.72 60.495 20.16C60.495 19.28 60.455 18.68 60.375 18.36C60.295 18.04 60.215 17.68 60.135 17.28L59.655 15.36C59.655 14.88 59.535 14.52 59.295 14.28C58.975 13.96 58.815 13.8 58.815 13.8C58.815 13.64 58.775 13.56 58.695 13.56C58.615 13.56 58.375 13.2 57.975 12.48C57.735 12.08 57.575 11.8 57.495 11.64C57.495 11.4 57.495 11.2 57.495 11.04C57.495 10.8 57.495 10.56 57.495 10.32C57.655 9.52 57.815 9 57.975 8.76C58.135 8.44 58.495 8.12 59.055 7.8C59.455 7.48 59.815 7.08 60.135 6.6C60.535 6.04 60.735 5.48 60.735 4.92C60.815 4.84 60.895 4.64 60.975 4.32L61.575 1.32C61.735 0.999999 61.815 0.799999 61.815 0.72C62.135 0.240001 62.375 1.90735e-06 62.535 1.90735e-06C62.935 1.90735e-06 63.135 0.0400014 63.135 0.12C63.135 0.199999 63.175 0.239999 63.255 0.239999C63.255 0.319998 63.255 0.359997 63.255 0.359997C63.335 0.359997 63.495 0.639998 63.735 1.2C64.055 1.76 64.255 2.12 64.335 2.28C64.655 3.16 65.015 3.84 65.415 4.32C65.815 4.72 66.455 5 67.335 5.16C68.215 5.32 68.775 5.48 69.015 5.64C69.255 5.8 69.455 6.16 69.615 6.72C69.615 7.12 69.775 7.44 70.095 7.68C70.415 7.92 70.735 8.04 71.055 8.04C71.055 8.04 71.095 8.04 71.175 8.04C71.255 8.04 71.375 8.08 71.535 8.16C71.615 8.24 71.695 8.28 71.775 8.28H71.895C71.895 8.28 72.015 8.36 72.255 8.52C72.495 8.6 72.735 8.72 72.975 8.88C73.215 9.04 73.415 9.16 73.575 9.24C73.815 9.32 73.935 9.36 73.935 9.36C74.015 9.44 74.095 9.48 74.175 9.48C74.175 9.48 74.215 9.48 74.295 9.48C74.375 9.48 74.495 9.52 74.655 9.6C74.975 9.6 75.175 9.72 75.255 9.96C75.335 10.12 75.535 10.2 75.855 10.2C76.015 10.2 76.175 10.4 76.335 10.8C76.495 11.2 76.575 11.56 76.575 11.88C76.575 11.96 76.575 12.04 76.575 12.12C76.575 13.08 76.175 13.96 75.375 14.76C75.135 15 74.815 15.4 74.415 15.96C74.095 16.52 73.935 16.84 73.935 16.92C73.935 17.16 73.895 17.28 73.815 17.28C73.655 17.6 73.375 18.2 72.975 19.08C72.655 19.96 72.495 20.52 72.495 20.76C72.415 21.08 72.175 21.68 71.775 22.56C71.455 23.44 71.255 23.92 71.175 24C71.175 24.32 71.055 24.6 70.815 24.84V25.32C70.735 25.4 70.575 26.04 70.335 27.24C70.335 27.32 70.295 27.64 70.215 28.2C70.135 28.68 70.015 29.2 69.855 29.76C69.535 30.88 69.375 31.64 69.375 32.04C69.375 32.36 69.295 33.04 69.135 34.08C69.135 34.48 69.095 34.88 69.015 35.28C69.015 35.6 69.015 35.84 69.015 36C68.935 36.32 68.855 36.64 68.775 36.96C68.775 37.2 68.735 37.6 68.655 38.16C68.655 38.24 68.655 38.32 68.655 38.4L68.415 39.24C68.415 39.32 68.415 39.4 68.415 39.48C68.415 39.64 68.375 39.88 68.295 40.2C68.295 40.44 68.295 40.68 68.295 40.92C68.215 41.32 68.175 41.72 68.175 42.12C68.175 42.52 68.135 43.4 68.055 44.76C67.975 45.08 67.935 45.44 67.935 45.84C67.935 46.24 67.855 46.52 67.695 46.68C67.695 46.84 67.695 47.12 67.695 47.52C67.695 47.84 67.655 48.28 67.575 48.84C67.575 49.24 67.535 49.64 67.455 50.04C67.455 50.44 67.455 50.68 67.455 50.76C67.455 50.92 67.415 51.2 67.335 51.6C67.335 52 67.335 52.4 67.335 52.8C67.255 53.6 67.175 54.4 67.095 55.2C67.015 56 66.895 57 66.735 58.2C66.735 58.44 66.695 58.96 66.615 59.76C66.535 60.56 66.495 61.04 66.495 61.2V61.44C66.335 61.44 66.255 61.64 66.255 62.04C66.255 62.84 66.215 63.68 66.135 64.56C66.055 65.36 65.935 66.16 65.775 66.96C65.775 67.36 65.735 67.72 65.655 68.04C65.575 68.36 65.535 68.52 65.535 68.52C65.535 68.6 65.495 68.8 65.415 69.12C65.415 69.36 65.415 69.68 65.415 70.08C65.415 70.48 65.375 70.84 65.295 71.16C65.295 71.48 65.295 71.72 65.295 71.88C65.295 72.04 65.255 72.32 65.175 72.72C65.175 73.12 65.175 73.56 65.175 74.04C65.095 74.44 65.055 74.88 65.055 75.36C65.055 75.84 65.055 76.2 65.055 76.44C64.895 77.24 64.775 78.04 64.695 78.84C64.695 79.64 64.655 80.2 64.575 80.52C64.575 81.24 64.535 81.92 64.455 82.56C64.375 83.2 64.335 83.6 64.335 83.76C64.175 84.32 64.055 84.72 63.975 84.96C63.975 85.2 63.975 85.36 63.975 85.44C63.975 85.52 64.015 85.56 64.095 85.56C64.095 85.56 64.135 85.48 64.215 85.32C64.295 85.16 64.335 85.04 64.335 84.96C64.335 84.72 64.415 84.36 64.575 83.88C64.735 83.56 64.815 83.32 64.815 83.16C64.815 83.08 64.935 82.92 65.175 82.68C65.255 82.52 65.295 82.36 65.295 82.2C65.375 82.04 65.415 81.88 65.415 81.72C65.415 81.64 65.415 81.56 65.415 81.48C65.495 81.4 65.535 81.36 65.535 81.36V81.24C65.535 81.08 65.575 80.96 65.655 80.88C65.735 80.8 65.815 80.72 65.895 80.64C65.895 80.16 66.015 79.8 66.255 79.56C66.415 79.4 66.495 79.24 66.495 79.08C66.495 78.92 66.495 78.84 66.495 78.84L69.015 72.12C69.015 72.04 69.055 71.88 69.135 71.64C69.295 71.32 69.455 71 69.615 70.68C69.775 70.36 69.895 70.12 69.975 69.96C70.055 69.8 70.095 69.64 70.095 69.48C70.175 69.32 70.415 68.8 70.815 67.92C71.295 66.96 71.815 65.92 72.375 64.8C73.015 63.6 73.575 62.56 74.055 61.68C74.535 60.8 74.775 60.36 74.775 60.36C74.855 60.2 75.015 59.92 75.255 59.52C75.495 59.04 75.735 58.68 75.975 58.44C76.055 58.36 76.095 58.28 76.095 58.2C76.175 58.04 76.215 57.96 76.215 57.96C76.215 57.88 76.495 57.56 77.055 57L79.455 54.6C79.695 54.44 79.895 54.36 80.055 54.36C80.135 54.36 80.175 54.36 80.175 54.36C80.575 54.52 80.815 54.88 80.895 55.44C80.975 56 81.015 56.44 81.015 56.76C81.015 56.84 81.135 56.88 81.375 56.88C81.615 56.88 81.815 56.92 81.975 57C82.535 57 83.135 57.16 83.775 57.48C84.095 57.64 84.335 57.72 84.495 57.72C84.575 57.72 84.615 57.72 84.615 57.72C84.615 57.64 84.655 57.6 84.735 57.6C84.895 57.44 84.975 57.28 84.975 57.12C84.975 57.04 85.015 57 85.095 57C85.175 56.92 85.215 56.88 85.215 56.88H86.055C86.535 56.88 87.015 57.16 87.495 57.72C87.815 58.04 88.015 58.24 88.095 58.32C88.255 58.32 88.535 58.32 88.935 58.32C89.175 58.32 89.535 58.4 90.015 58.56C90.495 58.64 90.735 58.84 90.735 59.16C90.655 59.24 90.615 59.32 90.615 59.4C90.615 59.48 90.615 59.6 90.615 59.76C90.695 59.84 90.775 59.88 90.855 59.88C90.935 59.88 90.975 59.88 90.975 59.88C90.975 59.88 91.015 59.92 91.095 60C91.175 60 91.255 60 91.335 60C91.735 60.24 91.935 60.52 91.935 60.84C92.015 61.16 92.055 61.4 92.055 61.56C92.055 61.8 92.015 62.04 91.935 62.28C91.775 62.44 91.415 62.68 90.855 63C90.295 63.32 89.935 63.48 89.775 63.48C89.695 63.48 89.655 63.56 89.655 63.72C89.655 63.88 89.535 63.96 89.295 63.96C89.295 63.96 89.255 64 89.175 64.08C89.175 64.08 89.215 64.12 89.295 64.2C89.295 64.52 89.255 64.72 89.175 64.8C89.095 64.88 89.015 65.04 88.935 65.28C88.935 65.52 88.895 65.72 88.815 65.88C88.815 65.88 88.775 66 88.695 66.24L88.215 67.68C88.135 67.84 88.095 67.96 88.095 68.04C88.095 68.36 88.015 68.6 87.855 68.76C87.695 68.92 87.615 69.08 87.615 69.24C87.615 69.32 87.615 69.4 87.615 69.48C87.615 69.64 87.575 69.88 87.495 70.2C87.495 70.52 87.455 70.88 87.375 71.28C87.215 72.16 87.015 72.88 86.775 73.44C86.615 73.92 86.535 74.24 86.535 74.4C86.535 74.56 86.575 74.68 86.655 74.76C86.415 74.84 86.295 74.96 86.295 75.12C86.295 75.12 86.295 75.2 86.295 75.36C86.295 75.52 86.255 75.84 86.175 76.32C86.175 76.4 86.135 76.68 86.055 77.16C86.055 77.64 86.015 77.96 85.935 78.12C85.935 78.12 85.895 78.16 85.815 78.24C85.815 78.32 85.815 78.36 85.815 78.36C85.815 78.44 85.855 78.52 85.935 78.6C85.935 78.76 85.815 78.92 85.575 79.08V79.92C85.255 80.96 85.055 82 84.975 83.04C84.975 84 84.975 85.32 84.975 87C84.975 87.8 85.015 88.56 85.095 89.28C85.175 90 85.255 90.44 85.335 90.6C85.335 90.68 85.335 90.76 85.335 90.84L85.455 91.56C85.455 91.64 85.455 91.72 85.455 91.8C85.775 91.64 86.175 91.28 86.655 90.72C87.215 90.16 87.495 89.8 87.495 89.64C87.495 89.64 87.575 89.56 87.735 89.4C87.895 89.16 88.095 88.92 88.335 88.68C89.215 87.8 90.215 86.68 91.335 85.32C92.455 83.88 93.415 82.6 94.215 81.48C94.295 81.24 94.375 81.08 94.455 81C94.615 80.84 94.735 80.68 94.815 80.52C94.895 80.36 95.135 79.92 95.535 79.2C96.015 78.48 96.295 78.12 96.375 78.12C96.455 78.12 96.495 78.16 96.495 78.24C96.495 78.32 96.455 78.44 96.375 78.6C96.215 78.92 95.895 79.56 95.415 80.52C94.935 81.4 94.375 82.4 93.735 83.52C93.175 84.64 92.655 85.64 92.175 86.52C91.695 87.32 91.375 87.76 91.215 87.84C91.055 87.84 90.695 88.28 90.135 89.16C89.655 89.96 89.375 90.44 89.295 90.6C89.215 90.76 88.935 91.48 88.455 92.76C88.055 93.96 87.815 94.76 87.735 95.16C87.735 95.16 87.655 95.48 87.495 96.12L87.135 96C87.135 96 87.095 96 87.015 96C87.015 96.08 86.975 96.12 86.895 96.12C86.815 96.28 86.495 96.36 85.935 96.36C84.975 96.36 84.495 96.2 84.495 95.88C84.495 95.88 84.455 95.88 84.375 95.88C84.295 95.8 84.215 95.76 84.135 95.76C83.975 95.76 83.895 95.72 83.895 95.64C83.655 95.64 83.215 95.32 82.575 94.68C81.935 94.04 81.535 93.72 81.375 93.72C81.215 93.56 81.055 93.28 80.895 92.88C80.575 92.48 80.295 92.08 80.055 91.68C79.815 91.28 79.615 90.84 79.455 90.36C79.295 90.28 79.215 90.2 79.215 90.12V89.88C79.215 89.8 79.175 89.68 79.095 89.52C78.935 89.04 78.815 88.48 78.735 87.84C78.735 87.12 78.655 86 78.495 84.48C78.495 83.76 78.495 83.04 78.495 82.32C78.495 81.6 78.455 81.04 78.375 80.64C78.375 80 78.375 79.28 78.375 78.48C78.455 77.6 78.575 76.84 78.735 76.2C78.895 75.48 79.055 74.44 79.215 73.08C79.375 71.64 79.495 70.52 79.575 69.72C79.655 68.92 79.735 68.16 79.815 67.44C79.895 66.64 80.015 66.2 80.175 66.12C80.335 65.8 80.415 65.16 80.415 64.2C80.415 63.16 80.335 62.6 80.175 62.52L79.575 61.32C79.415 61.32 79.015 61.64 78.375 62.28C77.815 62.92 77.335 63.48 76.935 63.96C76.775 64.2 76.615 64.44 76.455 64.68C76.375 64.84 76.295 64.96 76.215 65.04C76.135 65.04 76.095 65.08 76.095 65.16C76.095 65.16 76.135 65.16 76.215 65.16L75.975 65.88C75.815 66.04 75.655 66.28 75.495 66.6C75.415 66.92 75.295 67.24 75.135 67.56C74.975 67.8 74.815 68.16 74.655 68.64C74.495 69.04 74.295 69.44 74.055 69.84C73.975 70.24 73.815 70.6 73.575 70.92C73.415 71.24 73.335 71.48 73.335 71.64C73.175 72.04 73.095 72.24 73.095 72.24C73.095 72.56 72.975 72.84 72.735 73.08C72.575 73.24 72.495 73.44 72.495 73.68C72.495 73.92 72.495 74.08 72.495 74.16L72.015 75C71.855 75.24 71.735 75.56 71.655 75.96C71.655 76.28 71.655 76.48 71.655 76.56C71.655 76.88 71.495 77.24 71.175 77.64C71.095 77.88 71.055 78.12 71.055 78.36C71.055 78.52 71.055 78.6 71.055 78.6C71.135 78.6 71.175 78.64 71.175 78.72C71.175 78.8 71.135 78.92 71.055 79.08C71.055 79.4 71.015 79.68 70.935 79.92C70.855 80.08 70.775 80.2 70.695 80.28C70.615 80.28 70.575 80.36 70.575 80.52C70.575 80.6 70.535 80.68 70.455 80.76C70.375 80.84 70.255 81.28 70.095 82.08C70.015 82.4 69.895 82.8 69.735 83.28C69.655 83.68 69.535 84.04 69.375 84.36C69.215 84.68 69.095 84.96 69.015 85.2C69.015 85.36 69.015 85.48 69.015 85.56C69.015 85.64 69.015 85.68 69.015 85.68C69.015 85.68 69.015 85.72 69.015 85.8C69.015 85.8 68.975 85.84 68.895 85.92C68.815 86 68.655 86.36 68.415 87C68.255 87.64 68.135 88.24 68.055 88.8C67.975 89.2 67.855 89.48 67.695 89.64C67.295 90.04 67.095 90.64 67.095 91.44C67.095 91.52 67.095 91.84 67.095 92.4C67.175 92.88 67.295 93.24 67.455 93.48C67.615 93.8 67.695 94.16 67.695 94.56C67.695 94.72 67.655 95.04 67.575 95.52C67.495 95.92 67.295 96.2 66.975 96.36C66.735 96.36 66.615 96.48 66.615 96.72C66.615 97.12 66.415 97.44 66.015 97.68C65.615 98 65.255 98.16 64.935 98.16C64.855 98.16 64.775 98.16 64.695 98.16C64.295 98.08 63.975 97.92 63.735 97.68C63.575 97.44 63.375 97.16 63.135 96.84C62.975 96.28 62.495 96 61.695 96H60.255C59.695 96 59.375 95.76 59.295 95.28C59.295 95.04 59.175 94.92 58.935 94.92H58.575C58.335 94.92 58.055 94.84 57.735 94.68C57.415 94.52 57.255 94.4 57.255 94.32C57.255 94.08 57.215 93.96 57.135 93.96ZM65.055 24.12C64.975 24.12 64.935 24.12 64.935 24.12C64.935 24.2 64.975 24.28 65.055 24.36L65.175 24.48V24.36C65.175 24.2 65.135 24.12 65.055 24.12ZM65.055 26.16C65.055 26.24 65.015 26.28 64.935 26.28C64.935 26.36 64.975 26.44 65.055 26.52C65.135 26.6 65.215 26.64 65.295 26.64C65.295 26.64 65.255 26.64 65.175 26.64C65.175 26.56 65.175 26.44 65.175 26.28C65.175 26.2 65.135 26.16 65.055 26.16ZM59.415 87.96C59.415 87.96 59.375 88 59.295 88.08C59.295 88.16 59.295 88.28 59.295 88.44C59.295 88.52 59.335 88.56 59.415 88.56C59.415 88.64 59.415 88.68 59.415 88.68C59.495 88.68 59.535 88.6 59.535 88.44C59.535 88.12 59.495 87.96 59.415 87.96ZM93.7078 78.72C93.6278 78.72 93.5078 78.52 93.3478 78.12C93.3478 77.8 93.3478 77.12 93.3478 76.08C93.3478 75.04 93.3478 73.96 93.3478 72.84C93.4278 71.72 93.4678 70.92 93.4678 70.44C93.5478 69.72 93.5878 69 93.5878 68.28C93.6678 67.56 93.7878 66.84 93.9478 66.12C94.1078 65.64 94.1878 65.2 94.1878 64.8C94.1878 64.72 94.1478 64.56 94.0678 64.32C94.0678 64 94.0678 63.76 94.0678 63.6C94.0678 63.36 94.1878 63.24 94.4278 63.24V62.16C94.5878 62 94.6678 61.64 94.6678 61.08C94.6678 60.84 94.7478 60.36 94.9078 59.64C95.1478 58.92 95.4278 58.24 95.7478 57.6C96.0678 56.88 96.4278 56.52 96.8278 56.52C96.9878 56.52 97.1878 56.68 97.4278 57C97.6678 57.24 97.8678 57.44 98.0278 57.6C98.0278 58.72 98.1478 59.28 98.3878 59.28C98.4678 59.28 98.5078 59.4 98.5078 59.64C98.5078 59.72 98.9878 59.84 99.9478 60C100.268 60.08 100.548 60.2 100.788 60.36C101.108 60.44 101.308 60.48 101.388 60.48C101.388 60.56 101.508 60.6 101.748 60.6C102.068 60.6 102.388 60.44 102.708 60.12C102.948 59.88 103.148 59.76 103.308 59.76C103.468 59.76 103.668 59.76 103.908 59.76C104.308 59.84 104.508 59.96 104.508 60.12C104.588 60.28 104.628 60.76 104.628 61.56C104.628 62.44 104.748 63.08 104.988 63.48C105.228 63.88 105.348 64.12 105.348 64.2C105.348 64.28 105.348 64.32 105.348 64.32C105.268 64.64 105.108 65 104.868 65.4C104.708 65.8 104.548 66 104.388 66C104.388 66 104.348 65.96 104.268 65.88C104.108 65.88 103.868 66.04 103.548 66.36C103.228 66.68 102.948 67 102.708 67.32C102.468 67.72 102.268 67.96 102.108 68.04C102.108 68.2 101.988 68.52 101.748 69C101.508 69.48 101.388 69.76 101.388 69.84L101.148 70.44C101.068 70.52 101.028 70.6 101.028 70.68L100.668 71.28C100.428 71.68 100.148 72.4 99.8278 73.44C99.5878 74.48 99.4678 75.2 99.4678 75.6C99.3078 75.68 99.1878 75.96 99.1078 76.44C99.1078 76.92 99.0678 77.2 98.9878 77.28C98.9078 77.36 98.8678 77.6 98.8678 78C98.7878 78.56 98.7078 79.16 98.6278 79.8C98.5478 80.44 98.4278 81.04 98.2678 81.6V83.04C98.2678 83.84 98.1878 84.24 98.0278 84.24V84.48C98.1078 84.56 98.1478 84.8 98.1478 85.2C98.1478 85.6 98.1478 86 98.1478 86.4C98.2278 87.92 98.3478 88.76 98.5078 88.92C98.5878 89 98.7078 89.04 98.8678 89.04C98.9478 89.04 99.1078 89 99.3478 88.92C99.5878 88.76 100.468 87.76 101.988 85.92C102.388 85.44 102.788 85 103.188 84.6C103.588 84.12 103.868 83.8 104.028 83.64C104.348 83.32 104.868 82.68 105.588 81.72C106.308 80.76 106.708 80.16 106.788 79.92C106.948 79.92 107.028 79.96 107.028 80.04C107.028 80.12 106.948 80.28 106.788 80.52C106.708 80.52 106.628 80.56 106.548 80.64C106.548 80.64 106.588 80.68 106.668 80.76C106.668 80.84 106.588 81.04 106.428 81.36C106.268 81.6 106.108 81.72 105.948 81.72C105.948 81.96 105.508 82.72 104.628 84C103.828 85.28 103.148 86.36 102.588 87.24C102.428 87.56 102.268 87.8 102.108 87.96C101.948 88.04 101.828 88.12 101.748 88.2C101.748 88.28 101.548 88.52 101.148 88.92C100.988 89.08 100.828 89.2 100.668 89.28C100.588 89.36 100.548 89.44 100.548 89.52C100.548 89.6 100.588 89.64 100.668 89.64C100.828 89.64 101.308 89.32 102.108 88.68C102.908 87.96 103.708 87.04 104.508 85.92C104.668 85.76 104.828 85.6 104.988 85.44C105.148 85.2 105.228 85.04 105.228 84.96C105.388 84.8 105.468 84.64 105.468 84.48C105.468 84.48 105.508 84.4 105.588 84.24C105.748 84.08 105.948 83.88 106.188 83.64C106.588 83.24 106.788 82.96 106.788 82.8C106.788 82.8 106.828 82.76 106.908 82.68C106.988 82.52 107.068 82.36 107.148 82.2C107.228 82.12 107.468 81.84 107.868 81.36C108.268 80.88 108.508 80.64 108.588 80.64C108.588 80.48 108.628 80.32 108.708 80.16C108.788 80 108.908 79.8 109.068 79.56C109.468 78.76 110.108 77.8 110.988 76.68C111.948 75.56 112.428 74.96 112.428 74.88C112.428 74.64 112.468 74.48 112.548 74.4C112.708 74.32 112.868 74 113.028 73.44C113.268 72.88 113.388 72.48 113.388 72.24C113.388 72.08 113.348 71.96 113.268 71.88C113.188 71.8 113.108 71.2 113.028 70.08C112.948 68.96 112.908 67.92 112.908 66.96C112.908 66.24 112.908 65.52 112.908 64.8C112.908 63.76 112.868 62.92 112.788 62.28C112.788 61.56 112.788 61.2 112.788 61.2C112.788 61.28 112.708 61.48 112.548 61.8C112.468 61.88 112.428 62.04 112.428 62.28C112.428 62.44 112.388 62.56 112.308 62.64C112.228 62.72 112.148 62.84 112.068 63C111.988 63.24 111.948 63.44 111.948 63.6C111.948 63.6 111.868 63.76 111.708 64.08C111.628 64.4 111.548 64.76 111.468 65.16C111.308 66.12 111.188 66.6 111.108 66.6V67.08C111.108 67.4 111.068 67.56 110.988 67.56C110.988 67.48 110.988 67.44 110.988 67.44C110.988 67.44 110.948 67.48 110.868 67.56C110.868 67.64 110.868 67.68 110.868 67.68C110.868 67.76 110.908 67.84 110.988 67.92C110.988 68 110.988 68.12 110.988 68.28C110.988 68.44 110.908 68.56 110.748 68.64C110.748 68.88 110.668 69.08 110.508 69.24C110.428 69.24 110.388 69.16 110.388 69C110.388 68.92 110.388 68.76 110.388 68.52C110.468 68.28 110.548 67.52 110.628 66.24C110.708 65.68 110.828 64.8 110.988 63.6C111.148 62.4 111.388 61.28 111.708 60.24C112.028 59.2 112.308 58.68 112.548 58.68C112.708 58.12 113.028 57.84 113.508 57.84C113.748 57.84 114.028 57.88 114.348 57.96C114.668 58.04 115.108 58.24 115.668 58.56C116.308 58.96 116.828 59.16 117.228 59.16C117.548 59.24 117.868 59.32 118.188 59.4C118.588 59.4 118.868 59.48 119.028 59.64C119.108 59.64 119.188 59.68 119.268 59.76C119.348 59.76 119.468 59.76 119.628 59.76C120.268 59.84 120.948 60 121.668 60.24C122.468 60.48 123.108 60.84 123.588 61.32C123.828 61.56 124.028 61.76 124.188 61.92C124.348 62 124.428 62.04 124.428 62.04C124.588 62.04 124.708 62.16 124.788 62.4C124.868 62.64 124.908 62.8 124.908 62.88C124.988 63.2 125.068 63.56 125.148 63.96C125.308 64.28 125.388 64.6 125.388 64.92C125.468 64.92 125.508 64.96 125.508 65.04C125.508 65.2 125.388 65.52 125.148 66C124.988 66.48 124.708 67.08 124.308 67.8C123.988 68.44 123.708 68.88 123.468 69.12L123.228 69.36C123.228 69.44 123.148 69.6 122.988 69.84C122.908 70 122.828 70.24 122.748 70.56C122.588 70.72 122.468 70.92 122.388 71.16C122.308 71.4 122.268 71.52 122.268 71.52C122.268 71.68 122.188 71.92 122.028 72.24C121.868 72.56 121.588 73.24 121.188 74.28C120.868 75.24 120.668 75.88 120.588 76.2C120.588 76.2 120.428 76.52 120.108 77.16C119.948 77.32 119.868 77.52 119.868 77.76C119.868 77.92 119.908 78 119.988 78L119.748 78.84C119.588 79.48 119.468 80.04 119.388 80.52C119.308 81 119.268 81.32 119.268 81.48C119.268 81.64 119.268 81.72 119.268 81.72C119.348 81.72 119.388 81.84 119.388 82.08C119.388 82.08 119.348 82.08 119.268 82.08C119.028 82.08 118.868 81.84 118.788 81.36C118.708 80.88 118.668 80.48 118.668 80.16C118.668 79.6 118.748 78.88 118.908 78C118.988 77.12 119.028 76.6 119.028 76.44C119.108 76.28 119.188 76.12 119.268 75.96V75.24C119.348 75.16 119.388 75.08 119.388 75C119.388 74.92 119.388 74.88 119.388 74.88C119.388 74.56 119.468 74.36 119.628 74.28C119.708 74.2 119.748 74 119.748 73.68C119.748 73.68 119.748 73.6 119.748 73.44C119.748 73.28 119.828 73.12 119.988 72.96C120.068 72.88 120.108 72.76 120.108 72.6C120.108 72.44 120.108 72.36 120.108 72.36C120.028 72.36 119.828 72.72 119.508 73.44C119.268 74.08 119.148 74.52 119.148 74.76C119.148 74.84 119.108 74.96 119.028 75.12C119.028 75.28 118.988 75.52 118.908 75.84C118.908 75.84 118.868 75.92 118.788 76.08L118.428 77.4C118.348 77.48 118.308 77.56 118.308 77.64C118.308 77.64 118.308 77.72 118.308 77.88C118.308 77.96 118.268 78.12 118.188 78.36C118.188 78.52 118.148 78.72 118.068 78.96C117.988 79.2 117.948 79.36 117.948 79.44C117.868 79.68 117.788 80.08 117.708 80.64C117.708 81.2 117.668 82 117.588 83.04C117.508 83.76 117.428 84.52 117.348 85.32C117.348 86.04 117.348 86.6 117.348 87C117.348 87.72 117.388 88.56 117.468 89.52C117.548 90.4 117.628 91.08 117.708 91.56C117.708 91.72 117.708 91.92 117.708 92.16C117.788 92.4 117.828 92.64 117.828 92.88C117.908 93.04 117.948 93.24 117.948 93.48C117.948 93.72 117.948 93.88 117.948 93.96C118.108 94.12 118.188 94.32 118.188 94.56C118.188 94.88 118.308 95.48 118.548 96.36C118.868 97.32 119.188 98.24 119.508 99.12C119.908 100 120.268 100.44 120.588 100.44C120.668 100.44 120.708 100.44 120.708 100.44C120.788 100.52 120.828 100.6 120.828 100.68C120.828 100.68 120.788 100.68 120.708 100.68C120.708 100.76 120.628 100.8 120.468 100.8C119.908 100.8 119.268 100.4 118.548 99.6C117.908 98.88 117.588 98.36 117.588 98.04C117.588 97.88 117.548 97.8 117.468 97.8C117.468 97.8 117.428 97.76 117.348 97.68C117.268 97.6 117.188 97.48 117.108 97.32C116.548 96.12 116.228 95.32 116.148 94.92C116.148 94.44 115.988 94.12 115.668 93.96C114.628 93.56 113.948 92 113.628 89.28C113.548 88.88 113.508 87.72 113.508 85.8C113.508 83.88 113.548 82.16 113.628 80.64V77.04L113.388 77.76C113.228 78.32 113.148 78.6 113.148 78.6L112.548 79.44C112.148 80.08 111.948 80.44 111.948 80.52C111.948 80.68 111.788 80.96 111.468 81.36C110.988 82 110.588 82.68 110.268 83.4C109.948 84.12 109.708 84.72 109.548 85.2C108.908 86.72 108.468 87.64 108.228 87.96C108.148 88.04 108.108 88.08 108.108 88.08V88.2C108.108 88.2 107.988 88.48 107.748 89.04C107.508 89.6 107.228 90.16 106.908 90.72C106.668 91.28 106.508 91.56 106.428 91.56C106.428 91.56 106.388 91.64 106.308 91.8C106.228 91.88 106.148 92.04 106.068 92.28C105.908 92.92 105.668 93.4 105.348 93.72C105.028 94.04 104.788 94.28 104.628 94.44C104.548 94.52 104.508 94.64 104.508 94.8C104.508 94.88 104.508 94.92 104.508 94.92C103.948 95.64 103.428 96.2 102.948 96.6C102.468 97 101.828 97.2 101.028 97.2C100.628 97.2 100.108 96.96 99.4678 96.48C98.8278 96.08 98.5078 95.72 98.5078 95.4C98.5078 95.24 98.4678 95.16 98.3878 95.16C98.2278 95.16 98.1078 95 98.0278 94.68C98.0278 94.44 97.9078 94.32 97.6678 94.32C97.2678 94.32 96.8278 93.92 96.3478 93.12C95.8678 92.24 95.5878 91.56 95.5078 91.08C95.5078 90.44 95.3878 89.84 95.1478 89.28C94.8278 88.48 94.6678 87.96 94.6678 87.72C94.5878 87.24 94.5478 86.2 94.5478 84.6C94.5478 83 94.5878 81.4 94.6678 79.8C94.7478 78.2 94.8278 77.16 94.9078 76.68C94.9078 76.6 94.9078 76.52 94.9078 76.44L95.1478 75.96C95.1478 75.88 95.1478 75.8 95.1478 75.72C95.1478 75.4 95.2278 74.76 95.3878 73.8C95.4678 73.48 95.5078 73.16 95.5078 72.84C95.5878 72.52 95.6278 72.28 95.6278 72.12C95.7878 72.04 95.9078 71.76 95.9878 71.28C96.0678 70.72 96.1078 70.36 96.1078 70.2C96.1078 69.72 96.1878 69.24 96.3478 68.76C96.4278 68.6 96.4678 68.36 96.4678 68.04C96.4678 67.8 96.4278 67.48 96.3478 67.08C96.3478 66.6 96.3078 66.16 96.2278 65.76C96.2278 65.68 96.1478 65.48 95.9878 65.16C95.8278 64.92 95.7078 64.8 95.6278 64.8C95.5478 64.8 95.5078 64.88 95.5078 65.04C95.4278 65.2 95.3878 65.4 95.3878 65.64C95.3878 65.8 95.3478 66.04 95.2678 66.36C95.2678 66.44 95.1878 66.8 95.0278 67.44C94.9478 68 94.8278 68.6 94.6678 69.24C94.3478 71.08 94.1078 72.64 93.9478 73.92C93.8678 75.12 93.8278 76.2 93.8278 77.16C93.8278 77.56 93.7878 77.92 93.7078 78.24C93.7078 78.56 93.7078 78.72 93.7078 78.72ZM123.348 64.2C123.348 64.44 123.348 64.56 123.348 64.56C123.428 64.56 123.468 64.52 123.468 64.44V64.08C123.468 64.08 123.428 64.08 123.348 64.08C123.348 64.08 123.348 64.12 123.348 64.2ZM116.748 72.84C116.508 74.68 116.348 76 116.268 76.8C116.188 77.6 116.148 78.4 116.148 79.2C116.148 81.12 116.228 82.08 116.388 82.08C116.468 82.08 116.508 81.84 116.508 81.36C116.508 81.2 116.508 81.08 116.508 81C116.508 79.64 116.828 77.48 117.468 74.52C117.628 73.72 117.748 72.96 117.828 72.24C117.908 71.52 118.028 71.08 118.188 70.92C118.188 70.84 118.188 70.76 118.188 70.68L118.308 70.2C118.308 70.12 118.308 70.04 118.308 69.96C118.388 69.88 118.428 69.76 118.428 69.6V69.12C118.508 68.88 118.628 68.44 118.788 67.8C119.028 67.08 119.148 66.6 119.148 66.36C119.228 66.28 119.268 66.16 119.268 66C119.268 65.76 119.268 65.6 119.268 65.52C119.428 65.36 119.508 65.2 119.508 65.04C119.508 64.88 119.308 64.8 118.908 64.8C118.268 64.8 117.828 65.88 117.588 68.04C117.588 68.2 117.548 68.36 117.468 68.52C117.468 68.6 117.468 68.68 117.468 68.76C117.308 69.24 117.188 69.72 117.108 70.2C117.028 70.6 116.948 71 116.868 71.4C116.868 71.64 116.828 71.92 116.748 72.24C116.748 72.48 116.748 72.68 116.748 72.84ZM114.948 88.56C114.868 88.56 114.828 88.88 114.828 89.52C114.828 90.08 114.868 90.72 114.948 91.44C115.028 92.16 115.148 92.6 115.308 92.76C115.628 93.32 115.908 93.6 116.148 93.6C116.228 93.52 116.268 93.48 116.268 93.48C116.268 93.4 116.228 93.28 116.148 93.12C116.068 93.04 115.988 92.72 115.908 92.16C115.828 91.52 115.748 90.6 115.668 89.4C115.588 88.84 115.348 88.56 114.948 88.56ZM105.948 102.36C106.268 102.28 106.588 102.2 106.908 102.12C107.228 102.12 107.548 102.2 107.868 102.36C108.108 102.52 108.308 102.6 108.468 102.6C108.708 102.6 108.908 102.68 109.068 102.84C109.788 103.16 110.308 103.56 110.628 104.04C111.108 104.6 111.428 105.2 111.588 105.84C111.748 106.56 111.788 107.28 111.708 108C111.708 108.24 111.668 108.48 111.588 108.72C111.588 109.04 111.508 109.28 111.348 109.44C111.508 108.96 111.588 108.44 111.588 107.88C111.668 107.32 111.628 106.76 111.468 106.2C111.468 106.6 111.468 106.96 111.468 107.28C111.548 107.68 111.508 108.08 111.348 108.48C111.348 108.72 111.268 108.84 111.108 108.84C111.188 108.36 111.188 107.96 111.108 107.64C110.708 108.92 109.908 109.8 108.708 110.28C108.388 110.52 107.988 110.64 107.508 110.64C108.148 110.64 108.708 110.52 109.188 110.28C109.428 110.12 109.628 109.96 109.788 109.8C110.028 109.64 110.268 109.48 110.508 109.32C110.348 109.72 109.948 110.04 109.308 110.28C108.748 110.6 108.268 110.84 107.868 111C107.468 111.08 107.108 111.04 106.788 110.88C106.468 110.72 106.108 110.68 105.708 110.76C106.028 110.76 106.508 110.84 107.148 111C107.308 111.08 107.508 111.08 107.748 111C107.988 110.92 108.188 110.92 108.348 111L107.988 111.36C107.668 111.52 107.348 111.56 107.028 111.48C106.708 111.48 106.388 111.44 106.068 111.36C104.708 111.12 103.708 110.36 103.068 109.08C102.588 108.04 102.548 106.96 102.948 105.84C103.108 105.52 103.348 105.12 103.668 104.64C103.748 104.48 103.828 104.36 103.908 104.28C103.988 104.2 104.068 104.08 104.148 103.92C103.988 104 103.828 104.12 103.668 104.28C103.588 104.52 103.468 104.72 103.308 104.88C102.908 105.28 102.628 105.76 102.468 106.32C102.388 106.96 102.428 107.56 102.588 108.12C102.748 108.44 102.868 108.72 102.948 108.96C103.028 109.2 103.148 109.4 103.308 109.56C103.868 110.36 104.468 110.88 105.108 111.12C105.748 111.36 106.508 111.56 107.388 111.72C107.388 111.72 107.468 111.8 107.628 111.96C106.588 111.96 105.628 111.8 104.748 111.48C103.948 110.92 103.348 110.36 102.948 109.8C102.548 109.32 102.308 108.8 102.228 108.24C102.068 108 101.988 107.72 101.988 107.4C102.068 107.16 102.108 106.88 102.108 106.56V106.32C102.508 105.36 102.988 104.52 103.548 103.8C104.028 103.24 104.628 102.84 105.348 102.6C106.068 102.36 106.788 102.4 107.508 102.72C107.908 102.88 108.228 103.08 108.468 103.32C108.788 103.56 109.108 103.84 109.428 104.16C109.668 104.48 109.708 105.04 109.548 105.84C109.388 106.64 109.148 107.28 108.828 107.76C108.508 108.24 107.828 108.4 106.788 108.24C105.988 108.24 105.468 107.92 105.228 107.28C105.148 107.12 105.108 107 105.108 106.92C105.188 106.84 105.228 106.72 105.228 106.56C104.828 106.64 104.628 106.96 104.628 107.52C104.628 108.16 104.948 108.72 105.588 109.2C106.148 109.52 106.788 109.68 107.508 109.68C108.628 109.68 109.468 109.32 110.028 108.6C110.428 108.28 110.668 107.88 110.748 107.4C110.828 107 110.868 106.6 110.868 106.2C110.708 105.08 110.308 104.24 109.668 103.68C109.188 103.2 108.588 102.88 107.868 102.72C107.228 102.56 106.588 102.44 105.948 102.36ZM110.148 110.4C109.748 110.96 109.188 111.16 108.468 111C108.628 110.92 108.748 110.88 108.828 110.88C108.908 110.88 109.028 110.84 109.188 110.76C109.668 110.6 110.028 110.32 110.268 109.92C110.428 109.68 110.548 109.48 110.628 109.32C110.788 109.16 110.908 108.96 110.988 108.72C110.908 109.2 110.628 109.76 110.148 110.4ZM107.748 111.84C107.828 111.68 107.908 111.6 107.988 111.6C108.068 111.68 108.148 111.68 108.228 111.6C108.388 111.6 108.508 111.56 108.588 111.48C108.668 111.48 108.788 111.48 108.948 111.48C109.188 111.24 109.348 111.12 109.428 111.12H109.668C109.348 111.28 109.028 111.44 108.708 111.6C108.468 111.76 108.148 111.84 107.748 111.84ZM128.512 61.56C128.352 61.56 127.992 61.32 127.432 60.84C126.872 60.36 126.592 59.88 126.592 59.4V58.56C126.752 58.16 126.992 57.8 127.312 57.48C127.552 57.16 127.952 57 128.512 57C129.552 57.16 130.152 57.48 130.312 57.96C130.312 58.12 130.352 58.2 130.432 58.2C130.432 58.28 130.432 58.32 130.432 58.32C130.512 58.32 130.592 58.32 130.672 58.32C130.832 58.32 130.992 58.4 131.152 58.56C131.552 58.96 131.912 59.2 132.232 59.28C132.632 59.36 133.112 59.4 133.672 59.4C133.992 59.24 134.312 59.16 134.632 59.16C135.272 59.16 135.712 59.32 135.952 59.64C136.112 59.8 136.312 59.88 136.552 59.88C136.632 59.88 136.752 60 136.912 60.24C137.072 60.48 137.192 60.68 137.272 60.84C137.272 61.08 137.352 61.4 137.512 61.8C137.752 62.12 137.912 62.28 137.992 62.28C137.992 62.28 138.032 62.36 138.112 62.52C138.192 62.68 138.272 62.8 138.352 62.88C138.512 63.28 138.592 63.68 138.592 64.08C138.592 64.56 138.472 65.08 138.232 65.64L137.992 66.36C137.992 66.52 137.872 66.8 137.632 67.2C137.472 67.6 137.352 67.84 137.272 67.92C137.272 67.92 137.272 67.96 137.272 68.04C137.272 68.04 137.232 68.12 137.152 68.28C137.072 68.44 136.992 68.56 136.912 68.64C136.832 68.72 136.792 68.84 136.792 69C136.792 69.16 136.712 69.56 136.552 70.2C136.312 71.08 136.152 71.88 136.072 72.6C135.992 73.24 135.912 74.32 135.832 75.84C135.832 76.32 135.832 77.08 135.832 78.12C135.832 79.16 135.792 80.04 135.712 80.76C135.712 81.4 135.712 81.88 135.712 82.2C135.712 82.76 135.752 83.16 135.832 83.4C135.832 83.56 135.832 83.64 135.832 83.64C135.912 83.64 135.992 83.44 136.072 83.04C136.072 82.96 136.232 82.44 136.552 81.48C136.952 80.52 137.192 79.96 137.272 79.8C137.272 79.64 137.272 79.48 137.272 79.32C137.352 79.16 137.432 78.96 137.512 78.72C137.672 78.64 137.752 78.52 137.752 78.36C137.832 78.2 137.872 78.12 137.872 78.12C137.792 78.12 137.752 78.12 137.752 78.12C137.832 78.04 137.912 77.92 137.992 77.76C138.072 77.36 138.152 77.16 138.232 77.16C138.232 76.84 138.392 76.4 138.712 75.84C138.792 75.68 138.872 75.52 138.952 75.36C139.112 75.12 139.192 75 139.192 75C139.192 74.92 139.152 74.88 139.072 74.88C139.072 74.88 139.152 74.72 139.312 74.4C139.472 74.08 139.632 73.72 139.792 73.32C140.032 72.76 140.272 72.24 140.512 71.76C140.832 71.28 141.032 70.88 141.112 70.56C141.192 70.24 141.272 69.96 141.352 69.72C141.432 69.4 141.512 69.16 141.592 69C141.912 68.36 142.152 67.76 142.312 67.2C142.472 66.56 142.552 66.12 142.552 65.88C142.552 65.8 142.552 65.76 142.552 65.76C142.552 65.6 142.592 65.48 142.672 65.4C142.672 65.24 142.712 65.08 142.792 64.92C142.872 64.76 142.912 64.56 142.912 64.32C142.832 64.08 142.792 63.92 142.792 63.84C142.792 63.76 142.792 63.68 142.792 63.6C142.872 63.44 142.912 63.32 142.912 63.24C142.912 63.24 142.912 63.16 142.912 63C142.992 62.84 143.032 62.72 143.032 62.64C143.112 62.32 143.312 62 143.632 61.68C144.032 61.28 144.392 61 144.712 60.84C145.192 60.84 145.712 61.04 146.272 61.44C146.592 61.52 146.832 61.6 146.992 61.68C147.152 61.76 147.312 61.8 147.472 61.8C147.552 61.8 147.632 61.72 147.712 61.56C147.872 61.32 148.152 61.12 148.552 60.96C148.952 60.72 149.232 60.6 149.392 60.6C149.552 60.6 150.152 60.88 151.192 61.44C152.232 62 152.912 62.44 153.232 62.76C153.632 63.16 154.072 63.48 154.552 63.72C155.032 64.04 155.272 64.24 155.272 64.32C155.272 64.32 155.272 64.36 155.272 64.44C155.352 64.44 155.432 64.44 155.512 64.44C155.832 64.44 156.272 64.68 156.832 65.16C157.472 65.56 157.912 65.88 158.152 66.12C158.312 66.28 158.392 66.44 158.392 66.6C158.392 66.76 158.352 66.92 158.272 67.08C158.272 67.32 158.112 67.64 157.792 68.04C157.472 68.36 157.232 68.52 157.072 68.52C156.672 68.52 156.192 69.12 155.632 70.32C155.072 71.52 154.712 72.8 154.552 74.16C154.552 75.12 154.432 75.6 154.192 75.6C154.192 75.6 154.112 76.24 153.952 77.52C153.872 78.72 153.792 79.84 153.712 80.88C153.712 81.84 153.712 82.52 153.712 82.92C153.712 83.32 153.712 83.56 153.712 83.64C153.792 83.64 153.832 83.8 153.832 84.12C153.912 85.08 153.992 85.76 154.072 86.16C154.232 86.56 154.472 87 154.792 87.48C155.032 87.88 155.392 88.08 155.872 88.08C155.952 88.08 155.992 88 155.992 87.84C156.072 87.76 156.152 87.72 156.232 87.72C156.552 87.72 156.992 87.28 157.552 86.4C158.192 85.52 158.712 84.92 159.112 84.6L161.272 82.44C161.592 82.04 161.912 81.68 162.232 81.36C162.552 80.96 162.752 80.72 162.832 80.64C163.152 80 163.552 79.48 164.032 79.08C164.512 78.68 164.832 78.36 164.992 78.12C165.232 77.8 165.472 77.44 165.712 77.04C166.032 76.64 166.232 76.28 166.312 75.96C166.552 75.4 166.832 75.12 167.152 75.12V75.6C166.992 76 166.512 76.88 165.712 78.24C164.992 79.52 164.232 80.8 163.432 82.08C162.632 83.28 162.152 83.88 161.992 83.88C161.912 83.88 161.872 84 161.872 84.24C161.872 84.32 161.672 84.64 161.272 85.2C160.872 85.76 160.552 86.2 160.312 86.52C160.232 86.68 159.992 87.32 159.592 88.44C159.192 89.56 158.912 90.32 158.752 90.72C158.672 90.88 158.552 91.16 158.392 91.56L157.312 93.72C157.232 93.88 157.152 94.08 157.072 94.32C156.912 94.72 156.832 94.92 156.832 94.92C156.832 94.92 156.792 94.96 156.712 95.04C156.632 95.12 156.512 95.2 156.352 95.28C156.192 95.68 155.832 95.88 155.272 95.88C155.032 95.88 154.832 95.88 154.672 95.88C154.512 95.8 154.312 95.72 154.072 95.64C153.832 95.56 153.552 95.48 153.232 95.4C152.992 95.24 152.712 95.16 152.392 95.16C152.152 95.16 151.952 95.2 151.792 95.28C151.632 95.28 151.472 95.28 151.312 95.28C151.232 95.36 151.152 95.4 151.072 95.4C150.592 95.4 150.152 94.96 149.752 94.08C149.352 93.12 149.152 92.44 149.152 92.04V90.72C149.312 90.64 149.392 90.36 149.392 89.88C149.552 89.4 149.632 88.76 149.632 87.96C149.712 87.48 149.752 86.52 149.752 85.08C149.752 83.64 149.712 82.16 149.632 80.64C149.632 80.56 149.632 80.16 149.632 79.44C149.632 78.72 149.672 77.96 149.752 77.16C149.832 76.28 149.872 75.56 149.872 75C149.872 74.36 149.832 73.84 149.752 73.44C149.672 73.04 149.552 72.84 149.392 72.84C149.072 72.84 148.872 73.16 148.792 73.8C148.792 74.12 148.752 74.44 148.672 74.76C148.672 75.08 148.672 75.32 148.672 75.48C148.432 76.28 148.272 77.04 148.192 77.76C148.192 78.4 148.192 78.84 148.192 79.08C148.192 79.88 148.272 80.44 148.432 80.76C148.512 80.92 148.552 81.04 148.552 81.12C148.552 81.12 148.512 81.12 148.432 81.12C148.432 81.12 148.352 81.04 148.192 80.88C148.032 80.72 147.872 80.4 147.712 79.92C147.632 79.68 147.552 79.08 147.472 78.12C147.472 77.16 147.472 76.16 147.472 75.12C147.472 74.08 147.512 73.36 147.592 72.96C147.592 72.4 147.552 72.08 147.472 72C147.392 71.92 147.352 71.48 147.352 70.68C147.352 69.88 147.232 69.48 146.992 69.48C146.992 69.48 146.952 69.48 146.872 69.48C146.712 69.48 146.472 69.68 146.152 70.08C145.832 70.48 145.392 71 144.832 71.64C144.032 73.08 143.312 74.56 142.672 76.08C142.112 77.52 141.712 79.08 141.472 80.76C141.472 80.92 141.432 81.08 141.352 81.24C141.272 81.4 141.192 81.56 141.112 81.72C141.032 81.88 140.992 82 140.992 82.08C140.992 82.16 141.032 82.2 141.112 82.2C141.112 82.52 141.072 82.68 140.992 82.68C140.992 83.32 140.832 84.04 140.512 84.84C140.352 85.32 140.272 85.72 140.272 86.04C140.272 86.2 140.232 86.32 140.152 86.4C140.152 86.48 140.152 86.52 140.152 86.52C139.912 86.52 139.792 86.72 139.792 87.12C139.792 87.2 139.752 87.48 139.672 87.96C139.672 88.44 139.632 88.92 139.552 89.4C139.392 90.44 139.312 90.96 139.312 90.96C139.632 90.16 139.912 89.4 140.152 88.68C140.472 87.88 140.752 87.08 140.992 86.28C141.072 86.12 141.152 85.92 141.232 85.68L141.712 84.24C141.792 84.24 141.832 84.32 141.832 84.48C141.832 84.8 141.752 85.32 141.592 86.04C141.512 86.52 141.432 87.04 141.352 87.6C141.272 88.16 141.192 88.6 141.112 88.92C140.952 89.96 140.832 90.64 140.752 90.96C140.752 91.2 140.632 91.64 140.392 92.28C140.312 92.6 140.232 92.92 140.152 93.24C140.152 93.56 140.152 93.76 140.152 93.84C140.072 94.16 139.832 94.48 139.432 94.8C139.032 95.12 138.632 95.28 138.232 95.28C138.072 95.2 137.912 95.16 137.752 95.16C137.592 95.16 137.472 95.2 137.392 95.28C137.392 95.36 137.192 95.4 136.792 95.4C136.232 95.24 135.472 95 134.512 94.68C133.552 94.28 132.872 93.88 132.472 93.48C132.392 93.32 132.352 92.76 132.352 91.8C132.352 90.76 132.432 89.76 132.592 88.8C132.752 87.76 132.912 87.16 133.072 87C133.072 86.92 133.072 86.84 133.072 86.76L133.192 86.52C133.192 86.44 133.192 86.36 133.192 86.28C133.192 86.12 133.192 85.96 133.192 85.8C133.272 85.56 133.312 85.32 133.312 85.08C133.312 84.92 133.352 84.76 133.432 84.6C133.512 84.44 133.552 84.32 133.552 84.24C133.392 82.64 133.272 80.88 133.192 78.96C133.112 76.96 133.032 75.12 132.952 73.44C132.872 71.76 132.832 70.44 132.832 69.48C132.672 68.44 132.592 67.76 132.592 67.44C132.592 67.36 132.592 67.32 132.592 67.32C132.672 67.32 132.712 67.28 132.712 67.2C132.712 67.12 132.592 67.08 132.352 67.08C132.192 67.16 132.112 67.36 132.112 67.68C132.112 67.76 132.112 67.88 132.112 68.04C132.272 68.84 132.352 69.56 132.352 70.2C132.432 70.52 132.472 70.92 132.472 71.4C132.472 71.8 132.512 72.12 132.592 72.36C132.592 73.08 132.552 73.44 132.472 73.44C132.392 73.44 132.352 73.32 132.352 73.08C132.352 72.84 132.312 72.68 132.232 72.6C132.232 72.44 132.112 72 131.872 71.28C131.712 70.48 131.512 69.72 131.272 69C131.032 68.2 130.912 67.8 130.912 67.8C130.912 67.8 130.872 67.96 130.792 68.28C130.792 68.52 130.792 68.88 130.792 69.36C130.712 70.72 130.632 72.2 130.552 73.8C130.472 75.32 130.392 76.72 130.312 78C130.232 79.2 130.152 79.92 130.072 80.16L129.952 80.52C129.712 80.52 129.592 79.72 129.592 78.12C129.592 77 129.552 75.8 129.472 74.52C129.472 73.24 129.432 72.16 129.352 71.28C129.272 70.72 129.192 69.68 129.112 68.16C129.032 66.64 128.952 65.36 128.872 64.32C128.872 63.52 128.832 62.88 128.752 62.4C128.672 61.84 128.592 61.56 128.512 61.56ZM159.918 119.52C159.838 119.52 159.718 119.08 159.558 118.2C159.398 117.4 159.278 116.68 159.198 116.04C159.198 115.48 159.238 115.2 159.318 115.2C159.318 115.2 159.358 115.24 159.438 115.32C159.438 115.4 159.438 115.48 159.438 115.56C159.438 115.72 159.598 116.08 159.918 116.64C160.238 117.2 160.478 117.52 160.638 117.6C160.638 117.84 160.718 118.04 160.878 118.2C161.038 118.2 161.118 118.32 161.118 118.56C161.118 118.72 161.318 119 161.718 119.4C161.958 119.64 162.158 119.84 162.318 120C162.398 120.16 162.438 120.24 162.438 120.24C162.438 120.4 162.758 120.8 163.398 121.44L164.238 122.28C164.238 122.36 164.358 122.52 164.598 122.76C164.838 123 165.198 123.28 165.678 123.6C166.318 124 166.678 124.28 166.758 124.44C166.838 124.68 166.918 124.8 166.998 124.8C167.078 124.8 167.198 124.84 167.358 124.92C167.598 125.08 167.798 125.24 167.958 125.4L168.798 126C168.798 126 169.038 126.08 169.518 126.24C170.238 126.48 170.758 126.64 171.078 126.72C171.478 126.8 171.998 126.84 172.638 126.84C173.518 126.84 174.118 126.84 174.438 126.84C174.758 126.84 174.918 126.8 174.918 126.72C174.918 126.64 175.078 126.52 175.398 126.36C175.718 126.2 176.358 125.68 177.318 124.8C178.358 124 178.878 123.52 178.878 123.36C178.878 123.2 178.918 123.08 178.998 123C179.398 122.52 179.598 122.2 179.598 122.04C179.598 121.88 179.758 121.48 180.078 120.84C180.398 120.2 180.638 119.76 180.798 119.52C180.798 119.52 180.838 119.44 180.918 119.28L181.398 117.96C181.478 117.8 181.518 117.68 181.518 117.6C181.598 117.52 181.718 116.96 181.878 115.92C182.038 114.88 182.118 114.28 182.118 114.12C182.118 114.04 182.118 113.92 182.118 113.76C182.198 113.68 182.238 113.64 182.238 113.64C182.318 113.64 182.358 113.36 182.358 112.8C182.598 112.24 182.758 111.32 182.838 110.04C182.918 108.84 182.998 107.92 183.078 107.28C183.078 107.04 183.078 106.8 183.078 106.56C183.158 106.32 183.198 106.2 183.198 106.2C183.198 106.2 183.158 105.6 183.078 104.4C183.078 103.2 182.998 101.68 182.838 99.84C182.678 98.08 182.518 96.24 182.358 94.32C182.278 92.4 182.158 90.76 181.998 89.4C181.998 88.84 181.998 88.24 181.998 87.6C181.998 86.96 182.038 86.36 182.118 85.8L181.758 85.68C181.758 85.76 181.718 85.88 181.638 86.04C181.558 86.12 181.518 86.16 181.518 86.16C181.278 86.16 181.158 86.32 181.158 86.64L180.438 87.96C180.438 87.96 180.238 88.28 179.838 88.92C179.518 89.56 179.158 90.24 178.758 90.96C178.358 91.6 178.078 92 177.918 92.16C177.918 92.4 177.758 92.68 177.438 93L176.838 93.84C176.838 93.92 176.758 94.08 176.598 94.32C176.518 94.48 176.398 94.68 176.238 94.92C176.078 95.16 175.878 95.4 175.638 95.64C175.478 95.8 175.398 95.92 175.398 96C175.398 96 175.358 96.04 175.278 96.12C175.278 96.28 175.198 96.44 175.038 96.6C174.718 96.92 174.558 97.12 174.558 97.2C174.558 97.28 174.318 97.56 173.838 98.04C173.678 98.2 173.518 98.32 173.358 98.4C173.198 98.56 173.078 98.68 172.998 98.76C172.838 98.84 172.598 98.92 172.278 99C172.038 99.08 171.798 99.12 171.558 99.12C171.398 99.12 171.238 99.12 171.078 99.12C170.838 99.12 170.678 99.08 170.598 99C170.518 98.92 170.398 98.88 170.238 98.88C170.238 98.88 170.198 98.88 170.118 98.88C169.958 98.88 169.798 98.8 169.638 98.64C169.318 98.32 169.118 98.16 169.038 98.16C168.798 98.16 168.638 98 168.558 97.68C168.398 97.36 168.278 97.2 168.198 97.2C168.038 97.04 167.958 96.88 167.958 96.72C167.958 96.72 167.878 96.6 167.718 96.36C167.558 96.2 167.358 96 167.118 95.76C166.558 95.2 166.278 94.84 166.278 94.68C166.198 94.52 166.078 94.28 165.918 93.96C165.758 93.56 165.678 93.28 165.678 93.12C165.678 93.04 165.678 93 165.678 93C165.678 92.92 165.638 92.84 165.558 92.76C165.478 92.6 165.398 92.36 165.318 92.04C165.238 91.64 165.118 91.08 164.958 90.36C164.878 90.04 164.838 89.4 164.838 88.44C164.838 87.48 164.838 86.48 164.838 85.44C164.918 84.4 164.958 83.64 164.958 83.16C165.038 82.04 165.078 81.16 165.078 80.52C165.158 79.88 165.318 79.32 165.558 78.84C165.638 78.68 165.678 78.36 165.678 77.88C165.678 77.48 165.798 77.28 166.038 77.28C166.118 77.2 166.158 77.16 166.158 77.16C166.158 77.16 166.118 77.12 166.038 77.04C166.038 76.96 166.118 76.52 166.278 75.72C166.438 74.92 166.558 74.48 166.638 74.4C166.638 74.16 166.718 73.96 166.878 73.8C166.878 73.72 166.878 73.64 166.878 73.56C166.958 73.4 166.998 73.24 166.998 73.08C166.998 73 166.998 72.96 166.998 72.96L167.118 72.72C167.118 72.64 167.118 72.6 167.118 72.6C167.278 72.44 167.438 72.16 167.598 71.76C167.758 71.36 167.878 71.16 167.958 71.16C168.038 71.16 168.078 71.16 168.078 71.16C168.078 71.08 168.038 71.04 167.958 71.04C167.958 70.96 167.958 70.84 167.958 70.68C168.038 70.44 168.158 70.2 168.318 69.96C168.558 69.64 168.678 69.44 168.678 69.36C168.678 69.28 168.638 69.24 168.558 69.24L168.918 68.64C168.998 68.56 169.118 68.4 169.278 68.16C169.438 67.84 169.598 67.52 169.758 67.2C169.758 67.12 169.958 66.76 170.358 66.12C170.838 65.4 171.078 65.04 171.078 65.04C171.318 64.8 171.438 64.68 171.438 64.68C171.598 64.52 171.678 64.4 171.678 64.32C171.678 64.24 171.678 64.2 171.678 64.2C171.838 64.12 172.078 63.84 172.398 63.36C172.798 62.88 172.998 62.56 172.998 62.4C172.998 62.4 172.998 62.32 172.998 62.16C172.998 61.92 173.038 61.68 173.118 61.44C173.278 61.04 173.398 60.64 173.478 60.24C173.638 59.84 173.798 59.56 173.958 59.4C174.118 59.24 174.198 59.08 174.198 58.92C174.198 58.68 174.318 58.56 174.558 58.56C174.718 58.56 174.958 58.4 175.278 58.08C175.438 58 175.598 57.92 175.758 57.84C175.918 57.68 175.998 57.6 175.998 57.6C176.318 57.52 176.598 57.48 176.838 57.48C177.158 57.48 177.478 57.48 177.798 57.48C178.038 57.48 178.638 57.56 179.598 57.72C180.638 57.88 181.158 58.12 181.158 58.44C181.158 58.52 181.278 58.56 181.518 58.56C181.678 58.56 181.758 58.68 181.758 58.92L182.478 59.28C183.598 59.68 184.438 60.16 184.998 60.72C185.238 60.96 185.478 61.08 185.718 61.08C185.798 61.16 186.078 61.52 186.558 62.16C187.038 62.72 187.278 63.08 187.278 63.24C187.278 63.24 187.278 63.28 187.278 63.36C187.278 63.36 187.358 63.4 187.518 63.48C187.758 63.48 187.878 63.72 187.878 64.2C188.118 64.6 188.278 64.8 188.358 64.8C188.518 65.12 188.638 65.32 188.718 65.4C188.718 65.72 188.758 65.96 188.838 66.12C189.078 66.36 189.198 66.64 189.198 66.96L189.318 67.8H191.598C191.598 67.88 191.718 67.92 191.958 67.92C192.038 67.92 192.158 67.92 192.318 67.92C192.478 67.92 192.638 67.96 192.798 68.04C193.038 68.12 193.198 68.16 193.278 68.16C193.438 68.16 193.718 68.44 194.118 69C194.598 69.48 194.838 69.76 194.838 69.84C194.838 70.08 194.918 70.2 195.078 70.2C195.398 70.44 195.558 70.72 195.558 71.04C195.558 71.36 195.398 71.72 195.078 72.12C194.758 72.44 194.598 72.8 194.598 73.2L194.358 74.04C194.358 74.04 194.358 74.08 194.358 74.16L194.118 74.64C194.038 74.8 193.998 75 193.998 75.24L193.758 75.36C193.598 75.36 193.518 75.44 193.518 75.6C193.518 75.6 193.518 75.64 193.518 75.72C193.518 75.88 193.478 76.12 193.398 76.44C193.318 76.76 193.238 76.96 193.158 77.04C193.078 77.12 193.038 77.16 193.038 77.16C193.038 77.24 193.078 77.28 193.158 77.28C193.158 77.68 193.078 77.96 192.918 78.12C192.918 78.2 192.918 78.24 192.918 78.24C192.918 78.32 192.918 78.36 192.918 78.36C192.918 78.44 192.918 78.48 192.918 78.48C192.918 78.56 192.878 78.68 192.798 78.84C192.718 78.92 192.638 79.04 192.558 79.2C192.558 79.76 192.398 80.32 192.078 80.88C192.078 81.2 192.038 81.48 191.958 81.72C191.958 81.88 191.918 82.12 191.838 82.44L191.358 84.36C191.278 84.68 191.158 85 190.998 85.32C190.918 85.56 190.838 85.8 190.758 86.04C190.758 86.36 190.718 86.56 190.638 86.64C190.638 86.64 190.638 86.72 190.638 86.88C190.638 86.96 190.598 87.04 190.518 87.12C190.518 87.12 190.518 87.16 190.518 87.24C190.438 87.8 190.318 88.28 190.158 88.68C189.998 89.08 189.878 89.52 189.798 90C189.718 90.56 189.638 91.04 189.558 91.44C189.478 91.84 189.438 92.12 189.438 92.28C189.438 92.76 189.558 93.16 189.798 93.48C189.878 93.56 189.918 93.64 189.918 93.72C189.918 93.72 189.878 93.72 189.798 93.72C189.798 93.72 189.678 93.68 189.438 93.6C189.278 93.44 189.118 93.24 188.958 93C188.718 92.68 188.598 92.08 188.598 91.2C188.598 90.32 188.638 89.4 188.718 88.44C188.878 87.48 188.958 86.76 188.958 86.28L189.318 84.72C189.318 84.16 189.478 83.24 189.798 81.96C190.118 80.68 190.358 79.76 190.518 79.2C190.518 79.12 190.518 79.08 190.518 79.08C190.518 79.08 190.478 79.12 190.398 79.2C190.318 79.28 190.278 79.36 190.278 79.44C190.198 79.6 190.078 79.72 189.918 79.8C189.838 79.88 189.798 79.96 189.798 80.04C189.798 80.04 189.798 80.08 189.798 80.16C189.798 80.24 189.678 80.4 189.438 80.64C189.278 80.88 189.198 81.08 189.198 81.24C189.118 81.4 189.038 81.48 188.958 81.48C188.958 81.48 188.918 81.52 188.838 81.6C188.678 81.92 188.518 82.24 188.358 82.56C188.278 82.8 188.198 83.04 188.118 83.28C188.038 83.52 187.958 83.76 187.878 84C187.798 84.24 187.678 84.44 187.518 84.6C187.358 84.84 187.278 85.04 187.278 85.2C187.278 85.36 187.198 85.6 187.038 85.92C186.398 88.48 186.078 91.12 186.078 93.84C186.078 94.32 186.118 95.48 186.198 97.32C186.278 99.24 186.478 101.76 186.798 104.88C187.198 108 187.398 110.84 187.398 113.4C187.318 113.56 187.278 113.76 187.278 114C187.278 114.32 187.238 114.64 187.158 114.96C187.158 116.08 186.998 117 186.678 117.72C186.678 117.88 186.638 118.12 186.558 118.44C186.558 118.76 186.558 118.96 186.558 119.04C186.558 119.28 186.478 119.76 186.318 120.48C186.158 121.28 185.998 122 185.838 122.64C185.758 123.36 185.718 123.72 185.718 123.72C185.478 123.96 185.358 124.44 185.358 125.16C185.278 125.48 185.198 125.96 185.118 126.6C185.118 127.24 185.038 127.72 184.878 128.04V128.52C185.038 128.52 185.118 128.44 185.118 128.28C185.118 128.28 185.118 128.12 185.118 127.8C185.278 127.24 185.438 126.6 185.598 125.88C185.758 125.24 185.878 124.84 185.958 124.68C185.958 124.44 186.038 124 186.198 123.36C186.198 122.88 186.278 122.4 186.438 121.92C186.438 121.84 186.438 121.68 186.438 121.44C186.518 121.28 186.558 121.12 186.558 120.96C186.638 120.88 186.678 120.76 186.678 120.6C186.678 120.44 186.718 120.32 186.798 120.24C186.798 120.16 186.798 119.96 186.798 119.64C186.798 119.32 186.878 119.04 187.038 118.8C187.358 118.08 187.518 117.48 187.518 117C187.518 116.52 187.518 116.24 187.518 116.16C187.518 115.28 187.638 114.4 187.878 113.52C187.878 113.52 187.878 113.44 187.878 113.28C187.958 113.2 187.998 113.12 187.998 113.04C187.998 112.48 188.038 112.16 188.118 112.08C188.118 112.08 188.118 112.04 188.118 111.96L188.358 111.36C188.358 111.28 188.358 111.2 188.358 111.12C188.598 110.24 188.718 109.4 188.718 108.6C188.798 108.12 188.878 107.24 188.958 105.96C189.118 104.68 189.238 103.84 189.318 103.44C189.398 103.36 189.438 103.16 189.438 102.84C189.438 102.52 189.478 102.2 189.558 101.88C189.558 101.56 189.598 101.16 189.678 100.68C189.758 100.28 189.838 99.96 189.918 99.72C190.158 98.6 190.278 97.44 190.278 96.24C190.278 96.24 190.318 96.28 190.398 96.36C190.478 96.6 190.518 97.44 190.518 98.88C190.438 99.44 190.398 100.2 190.398 101.16C190.398 102.12 190.358 103.04 190.278 103.92C190.118 106.08 189.998 108.32 189.918 110.64C189.838 113.04 189.718 115.16 189.558 117C189.558 117.24 189.518 117.56 189.438 117.96C189.438 118.44 189.438 118.88 189.438 119.28C189.278 121.52 189.198 123.24 189.198 124.44C189.198 125.72 189.118 126.64 188.958 127.2C188.798 127.68 188.718 128 188.718 128.16C188.718 128.4 188.638 128.72 188.478 129.12C188.478 129.28 188.438 129.44 188.358 129.6C188.358 129.84 188.358 130 188.358 130.08L187.998 130.44C187.918 130.52 187.798 130.72 187.638 131.04C187.638 131.6 187.318 132.12 186.678 132.6C186.678 132.92 186.558 133.12 186.318 133.2C186.158 133.2 186.038 133.24 185.958 133.32V133.56C185.878 133.64 185.798 133.68 185.718 133.68H185.478C185.318 133.76 185.238 133.84 185.238 133.92C185.238 134 185.118 134.04 184.878 134.04C184.798 134.12 184.718 134.16 184.638 134.16C184.638 134.24 184.558 134.32 184.398 134.4C184.318 134.48 184.078 134.52 183.678 134.52H180.678C180.198 134.52 179.878 134.48 179.718 134.4C179.638 134.4 179.518 134.36 179.358 134.28C179.198 134.2 179.038 134.12 178.878 134.04C178.478 133.88 178.198 133.76 178.038 133.68C177.878 133.68 177.758 133.68 177.678 133.68C177.598 133.52 177.438 133.44 177.198 133.44C176.798 133.44 176.598 133.36 176.598 133.2C176.598 133.2 176.278 133.2 175.638 133.2C175.558 133.2 175.478 133.2 175.398 133.2L174.798 133.32C174.718 133.32 174.638 133.32 174.558 133.32C173.998 133.32 173.278 133.24 172.398 133.08C171.598 132.92 171.038 132.64 170.718 132.24C170.638 132.16 170.318 131.88 169.758 131.4C169.198 131 168.638 130.56 168.078 130.08C167.598 129.68 167.318 129.48 167.238 129.48C167.158 129.24 167.078 129.12 166.998 129.12C166.998 129.12 166.998 129.16 166.998 129.24C166.918 129.24 166.638 129 166.158 128.52C165.758 128.12 165.278 127.6 164.718 126.96C164.158 126.4 163.758 125.96 163.518 125.64C163.438 125.48 163.118 124.96 162.558 124.08C161.998 123.2 161.438 122.32 160.878 121.44C160.318 120.56 160.038 120.04 160.038 119.88C160.038 119.64 159.998 119.52 159.918 119.52ZM185.238 67.2C185.238 67.28 185.358 67.44 185.598 67.68C185.758 67.84 185.918 67.92 186.078 67.92C186.078 67.44 185.798 67.2 185.238 67.2ZM167.838 91.08C167.838 93 168.078 94.04 168.558 94.2C168.798 94.28 168.998 94.32 169.158 94.32C169.958 94.32 170.678 94.12 171.318 93.72C171.958 93.24 172.558 92.72 173.118 92.16C173.278 92 173.438 91.84 173.598 91.68C173.758 91.44 173.918 91.28 174.078 91.2C174.398 90.88 174.558 90.6 174.558 90.36C174.638 90.36 174.758 90.2 174.918 89.88C174.998 89.72 175.078 89.56 175.158 89.4C175.238 89.24 175.318 89.12 175.398 89.04C175.718 88.8 175.998 88.48 176.238 88.08C176.558 87.68 176.718 87.4 176.718 87.24C176.718 87.24 176.718 87.2 176.718 87.12C176.798 87.04 176.878 86.96 176.958 86.88C177.278 86.8 177.438 86.72 177.438 86.64C177.438 86.64 177.398 86.64 177.318 86.64C177.318 86.4 177.478 86.12 177.798 85.8C178.278 85.32 178.758 84.64 179.238 83.76C179.798 82.88 180.238 82.12 180.558 81.48C180.718 81.32 180.918 81 181.158 80.52C181.478 80.04 181.638 79.72 181.638 79.56C181.958 79.24 182.278 78.64 182.598 77.76C182.998 76.88 183.278 76.2 183.438 75.72C183.598 75.16 183.678 74.88 183.678 74.88C183.678 74.8 183.678 74.68 183.678 74.52C183.758 74.28 183.798 74.04 183.798 73.8C183.798 73.64 183.798 73.44 183.798 73.2C183.878 72.96 183.918 72.8 183.918 72.72C183.998 72.64 184.118 72.24 184.278 71.52C184.278 71.44 184.278 71.36 184.278 71.28L184.398 70.56C184.398 70.48 184.398 70.4 184.398 70.32C184.478 70.16 184.518 69.88 184.518 69.48C184.438 69.16 184.158 68.96 183.678 68.88C183.278 68.72 182.838 68.64 182.358 68.64C181.958 68.64 181.678 68.68 181.518 68.76L180.918 69.12C180.358 69.12 179.638 69.68 178.758 70.8C177.878 71.84 177.038 73 176.238 74.28C175.518 75.56 175.038 76.4 174.798 76.8C174.638 76.8 174.438 76.4 174.198 75.6C174.198 75.36 174.318 74.92 174.558 74.28C174.798 73.64 175.078 73.12 175.398 72.72C175.478 72.64 175.518 72.48 175.518 72.24C175.758 72.24 175.878 72.16 175.878 72C175.878 71.76 175.918 71.64 175.998 71.64C176.158 71.64 176.238 71.56 176.238 71.4C176.238 71.16 176.318 71.04 176.478 71.04C176.638 70.88 176.718 70.76 176.718 70.68C176.718 70.52 177.158 70 178.038 69.12C178.678 68.48 178.998 68.12 178.998 68.04C178.758 68.2 178.318 68.56 177.678 69.12C177.038 69.6 176.438 70.12 175.878 70.68C175.318 71.16 175.038 71.48 175.038 71.64C175.038 71.96 174.758 72.32 174.198 72.72C174.038 72.88 173.958 73.04 173.958 73.2C173.878 73.52 173.758 73.76 173.598 73.92C173.038 74.48 172.758 74.84 172.758 75C172.758 75 172.718 75.08 172.638 75.24C172.638 75.4 172.558 75.56 172.398 75.72C172.078 76.2 171.918 76.48 171.918 76.56C171.918 76.64 171.718 77.16 171.318 78.12C170.918 79 170.678 79.48 170.598 79.56C170.518 79.56 170.478 79.72 170.478 80.04C170.318 80.36 170.238 80.52 170.238 80.52C170.078 80.68 169.918 80.96 169.758 81.36C169.678 81.68 169.598 81.96 169.518 82.2C169.518 82.28 169.438 82.56 169.278 83.04C169.198 83.2 169.158 83.4 169.158 83.64C169.158 83.8 169.158 83.92 169.158 84L169.038 84.12C168.878 84.12 168.798 84.24 168.798 84.48C168.798 84.56 168.758 84.8 168.678 85.2C168.598 85.6 168.518 86.04 168.438 86.52C168.038 87.88 167.838 88.8 167.838 89.28C167.838 89.68 167.838 90.28 167.838 91.08ZM165.438 125.88C165.438 125.8 165.358 125.76 165.198 125.76C165.198 125.84 165.238 125.92 165.318 126C165.398 126 165.438 125.96 165.438 125.88ZM181.758 128.64C181.758 128.72 181.758 128.76 181.758 128.76C181.838 128.68 181.878 128.56 181.878 128.4C181.878 128.4 181.878 128.36 181.878 128.28C181.878 128.28 181.838 128.32 181.758 128.4C181.758 128.48 181.758 128.56 181.758 128.64Z" fill="white"/>
</svg>
