<svg width="132" height="126" viewBox="0 0 132 126" fill="none" xmlns="http://www.w3.org/2000/svg">
<path d="M0.120098 54.48C0.040098 54.4 9.78708e-05 54.2 9.78708e-05 53.88C9.78708e-05 53.4 0.160098 52.48 0.480098 51.12C0.800098 49.76 1.2801 47.96 1.9201 45.72C2.6401 43.4 3.3601 41.12 4.0801 38.88C4.8801 36.64 5.5601 34.88 6.1201 33.6C6.3601 33.04 6.6401 32.48 6.9601 31.92C7.2801 31.36 7.4801 30.88 7.5601 30.48C7.7201 29.76 7.8801 29.32 8.0401 29.16C8.3601 28.92 8.5201 28.72 8.5201 28.56C8.5201 28.16 8.8401 27.44 9.4801 26.4C10.0401 25.6 10.3201 25.12 10.3201 24.96C10.4001 24.8 10.4401 24.72 10.4401 24.72C10.4401 24.48 10.3601 24.24 10.2001 24C10.0401 23.76 9.8801 23.44 9.7201 23.04C9.5601 22.56 9.4401 22.12 9.3601 21.72C9.2801 21 9.0401 20.04 8.6401 18.84C8.2401 17.56 7.8001 16.36 7.3201 15.24C6.8401 14.04 6.5201 13.2 6.3601 12.72C5.9601 11.76 5.7601 10.84 5.7601 9.96C5.7601 9.24 5.8801 8.6 6.1201 8.04C6.3601 7.48 6.8401 6.8 7.5601 6C8.2801 5.2 8.8001 4.8 9.1201 4.8C9.3601 4.8 9.5601 4.68 9.7201 4.44C10.2001 3.64 11.4001 3.12 13.3201 2.88C14.2001 2.88 14.9601 2.72 15.6001 2.39999C15.7601 2.32 16.0001 2.28 16.3201 2.28C16.9601 2.28 17.2801 2.44 17.2801 2.76C17.2801 2.84 17.2401 2.96 17.1601 3.12C17.1601 3.36 16.9601 3.68 16.5601 4.07999C16.2401 4.4 15.9201 5.36 15.6001 6.96C15.3601 8.56 15.2001 10.4 15.1201 12.48C15.1201 13.2 15.1201 13.84 15.1201 14.4C15.1201 15.36 15.1601 15.84 15.2401 15.84C15.4001 15.84 15.5201 15.76 15.6001 15.6C15.7601 15.44 15.9601 15.28 16.2001 15.12C16.8401 14.24 17.9201 12.96 19.4401 11.28C20.9601 9.6 22.6801 7.92 24.6001 6.24C26.6001 4.47999 28.5201 2.99999 30.3601 1.8C32.2001 0.599997 33.7201 -2.86102e-06 34.9201 -2.86102e-06C36.2001 -2.86102e-06 37.0801 0.519998 37.5601 1.56C38.1201 2.6 38.4401 3.64 38.5201 4.67999C38.6001 5.48 38.6801 6 38.7601 6.24C38.8401 6.48 39.1201 6.72 39.6001 6.96C40.3201 7.6 40.6801 8.24 40.6801 8.88C40.6801 9.28 40.7201 9.64 40.8001 9.96C40.8801 10.2 41.1601 10.52 41.6401 10.92C43.5601 12.36 44.5601 13.24 44.6401 13.56C44.8001 13.8 44.8801 14.04 44.8801 14.28C44.8801 14.52 44.8401 14.8 44.7601 15.12C44.6801 15.36 44.6401 15.64 44.6401 15.96C44.6401 16.2 44.6401 16.32 44.6401 16.32C44.7201 16.56 45.2401 16.68 46.2001 16.68C46.6801 16.68 47.2401 16.72 47.8801 16.8C48.5201 16.8 49.0001 16.88 49.3201 17.04C50.0401 17.28 50.7601 17.44 51.4801 17.52C52.2801 17.52 53.0401 17.52 53.7601 17.52C54.8001 17.52 55.6801 17.4 56.4001 17.16C57.1201 16.84 58.0001 16.48 59.0401 16.08C59.3601 15.92 59.6401 15.8 59.8801 15.72C60.2001 15.64 60.5601 15.6 60.9601 15.6C62.4801 15.6 63.7201 16.28 64.6801 17.64C65.7201 18.92 66.3601 20.28 66.6001 21.72C66.6801 22.12 66.7601 22.48 66.8401 22.8C67.0001 23.12 67.2401 23.44 67.5601 23.76C68.7601 24.96 69.3601 27.44 69.3601 31.2C69.3601 32 69.3201 32.88 69.2401 33.84C69.1601 34.64 69.0801 35.48 69.0001 36.36C69.0001 37.24 69.0001 37.88 69.0001 38.28C69.0001 38.68 69.0001 39.24 69.0001 39.96C69.0001 40.68 68.9201 41.32 68.7601 41.88C68.6001 42.44 68.4801 43.08 68.4001 43.8C68.4001 44.52 68.4001 45.08 68.4001 45.48C68.3201 46.04 68.1201 47.08 67.8001 48.6C67.5601 50.12 67.2001 51.56 66.7201 52.92C66.3201 54.28 65.9201 54.96 65.5201 54.96C65.1201 54.96 64.9201 54.84 64.9201 54.6C64.9201 54.52 64.9201 54.4 64.9201 54.24C65.0001 54.08 65.1201 53.56 65.2801 52.68C65.3601 52.28 65.4401 51.36 65.5201 49.92C65.6801 48.4 65.8001 46.72 65.8801 44.88C66.0401 42.96 66.1601 41.2 66.2401 39.6C66.2401 38.8 66.2001 37.8 66.1201 36.6C66.1201 35.4 66.1201 34.36 66.1201 33.48C66.1201 32.52 66.0801 32.04 66.0001 32.04C65.8401 32.04 65.5201 32.36 65.0401 33C64.5601 33.64 64.2801 34.08 64.2001 34.32C64.1201 34.56 64.0401 35.16 63.9601 36.12C63.9601 37.08 63.9601 38.12 63.9601 39.24C63.8801 42.68 63.3201 45.8 62.2801 48.6C61.3201 51.4 59.9201 54.24 58.0801 57.12C57.7601 57.44 57.4401 57.92 57.1201 58.56C56.8801 59.12 56.7201 59.6 56.6401 60C56.0801 62 55.2001 63.52 54.0001 64.56C52.0001 67.12 49.8401 69.64 47.5201 72.12C45.2001 74.6 42.6801 76.72 39.9601 78.48C38.6001 79.36 37.9201 79.88 37.9201 80.04C37.9201 80.04 37.9601 80.04 38.0401 80.04C38.2801 80.04 38.8401 79.84 39.7201 79.44C40.6001 78.96 41.4801 78.52 42.3601 78.12C43.4001 77.72 43.9201 77.52 43.9201 77.52C43.9201 77.76 43.5601 78.16 42.8401 78.72C42.1201 79.2 41.2401 79.64 40.2001 80.04C39.4001 80.44 38.8401 80.76 38.5201 81C38.5201 81.16 38.8001 81.68 39.3601 82.56C39.9201 83.36 40.6801 84.4 41.6401 85.68C42.6001 86.96 43.6001 88.16 44.6401 89.28C46.1601 90.96 47.7601 92.52 49.4401 93.96C51.1201 95.48 52.7601 96.64 54.3601 97.44C55.1601 97.84 56.0801 98.24 57.1201 98.64C58.2401 99.12 58.9601 99.36 59.2801 99.36C59.4401 99.36 59.5201 99.36 59.5201 99.36C59.6001 99.36 59.6401 99.32 59.6401 99.24C59.6401 98.76 58.1201 97 55.0801 93.96C52.3601 91.24 51.0001 89.72 51.0001 89.4C51.0801 89.4 51.2001 89.44 51.3601 89.52C51.6001 89.68 51.8801 89.92 52.2001 90.24C52.4401 90.56 52.8001 90.92 53.2801 91.32C53.8401 91.72 54.3201 92.08 54.7201 92.4C55.1201 92.72 55.6401 93.08 56.2801 93.48C56.9201 93.88 57.4801 94.28 57.9601 94.68C58.6001 95.16 59.5201 95.8 60.7201 96.6C61.9201 97.48 63.1601 98.24 64.4401 98.88C65.7201 99.52 66.8001 99.84 67.6801 99.84C67.7601 99.84 67.8001 99.84 67.8001 99.84L68.0401 99.72C68.1201 99.72 68.1601 99.72 68.1601 99.72C68.2401 99.64 68.3201 99.6 68.4001 99.6C68.5601 99.6 68.7601 99.76 69.0001 100.08C69.0801 100.24 69.1201 100.4 69.1201 100.56C69.1201 100.8 69.0401 101.04 68.8801 101.28C68.4001 101.92 67.9201 102.4 67.4401 102.72C66.9601 103.04 66.4801 103.24 66.0001 103.32C65.2001 103.48 64.8001 103.68 64.8001 103.92C64.8001 104.24 64.6001 104.56 64.2001 104.88C63.8001 105.2 63.4001 105.44 63.0001 105.6C62.3601 105.84 62.0001 106.2 61.9201 106.68C61.8401 107.4 61.4801 108.04 60.8401 108.6C60.2001 109.24 59.5201 109.56 58.8001 109.56C58.6401 109.56 58.4801 109.56 58.3201 109.56C58.1601 109.64 58.0801 109.68 58.0801 109.68C57.9201 109.68 57.7601 109.6 57.6001 109.44C57.2001 109.2 56.8801 109.08 56.6401 109.08C56.4001 109.08 56.1201 109.36 55.8001 109.92C55.1601 111.12 54.5601 112.2 54.0001 113.16C53.5201 114.2 52.5201 114.72 51.0001 114.72C50.7601 114.72 50.4401 114.52 50.0401 114.12C49.5601 113.72 49.3201 113.52 49.3201 113.52C49.1601 113.52 48.9601 113.48 48.7201 113.4C48.5601 113.4 48.3201 113.4 48.0001 113.4C45.2801 113 43.7201 111.08 43.3201 107.64C43.1601 106.12 43.0001 104.92 42.8401 104.04C42.6801 103.24 42.4001 102.44 42.0001 101.64C41.6001 100.92 41.0001 99.96 40.2001 98.76C39.1601 97.24 38.0801 95.52 36.9601 93.6C35.9201 91.76 34.8401 89.72 33.7201 87.48C32.7601 85.88 32.1601 84.88 31.9201 84.48C31.6801 84.08 31.4401 83.88 31.2001 83.88C31.1201 83.88 31.0801 83.88 31.0801 83.88C29.8801 84.2 28.6001 84.4 27.2401 84.48C25.9601 84.64 24.6801 84.72 23.4001 84.72C21.3201 84.72 19.5601 84.56 18.1201 84.24C16.6801 83.92 15.0801 83.24 13.3201 82.2C9.0801 79.64 6.1601 76.56 4.5601 72.96C2.9601 69.28 2.1601 65 2.1601 60.12C2.1601 57.32 2.4001 54.6 2.8801 51.96C3.4401 49.32 4.2801 46.04 5.4001 42.12C5.5601 41.56 5.6401 41.16 5.6401 40.92C5.6401 40.76 5.6001 40.68 5.5201 40.68C5.2801 40.68 4.9201 41.24 4.4401 42.36C4.0401 43.4 3.6001 44.68 3.1201 46.2C2.6401 47.72 2.2001 49.16 1.8001 50.52C1.4801 51.8 1.2401 52.72 1.0801 53.28C0.840098 54.24 0.640098 54.72 0.480098 54.72C0.240098 54.72 0.120098 54.64 0.120098 54.48ZM30.7201 3.96C30.4001 4.28 30.2401 4.52 30.2401 4.67999C30.3201 4.67999 30.6801 4.47999 31.3201 4.07999C31.9601 3.6 32.3601 3.32 32.5201 3.24C32.7601 3.24 33.2801 3.08 34.0801 2.76C34.8801 2.36 35.2801 2.08 35.2801 1.91999C35.2801 1.76 35.2001 1.68 35.0401 1.68C34.6401 1.68 34.0001 1.88 33.1201 2.28C32.2401 2.68 31.4401 3.24 30.7201 3.96ZM22.9201 9.84C21.6401 10.72 20.4001 11.72 19.2001 12.84C18.0001 13.88 17.0001 14.8 16.2001 15.6C15.4801 16.32 15.1201 16.8 15.1201 17.04C15.1201 17.2 15.1201 17.4 15.1201 17.64C15.2001 17.8 15.2401 18 15.2401 18.24V19.08L16.2001 18.24C16.4401 18.08 16.7601 17.84 17.1601 17.52C17.6401 17.2 18.0401 16.92 18.3601 16.68C19.4801 15.96 20.5601 14.96 21.6001 13.68C22.7201 12.4 23.8001 11.12 24.8401 9.84C25.3201 9.2 25.6801 8.68 25.9201 8.28C26.1601 7.8 26.2801 7.52 26.2801 7.43999C26.2801 7.52 25.9201 7.8 25.2001 8.28C24.4801 8.68 23.7201 9.2 22.9201 9.84ZM34.4401 15.96C33.3201 15.96 31.8001 16.64 29.8801 18C27.9601 19.28 25.9601 20.84 23.8801 22.68C21.8801 24.52 20.1601 26.32 18.7201 28.08C17.3601 29.76 16.6801 31 16.6801 31.8C16.6801 32.04 16.7601 32.16 16.9201 32.16C17.0801 32.16 17.3601 31.88 17.7601 31.32C18.2401 30.76 18.4801 30.44 18.4801 30.36C18.4801 30.36 18.4801 30.32 18.4801 30.24C18.5601 30.08 18.6801 29.92 18.8401 29.76C19.0001 29.6 19.2001 29.4 19.4401 29.16C19.6801 28.84 19.9201 28.52 20.1601 28.2C21.2001 26.92 22.4801 25.56 24.0001 24.12C25.6001 22.6 27.2401 21.2 28.9201 19.92C30.6801 18.64 32.3201 17.68 33.8401 17.04C34.6401 16.88 35.0401 16.64 35.0401 16.32C35.0401 16.08 34.8401 15.96 34.4401 15.96ZM18.4801 32.76C17.9201 33.4 17.5601 34.04 17.4001 34.68C17.3201 35.24 17.2801 35.64 17.2801 35.88C17.2801 36.28 17.4001 36.48 17.6401 36.48C17.8001 36.48 18.0401 36.12 18.3601 35.4C18.8401 34.2 19.7601 32.84 21.1201 31.32C22.4801 29.72 23.9201 28.24 25.4401 26.88C26.9601 25.44 28.2801 24.4 29.4001 23.76C29.8801 23.44 30.5201 23 31.3201 22.44C32.2001 21.8 33.0801 21.08 33.9601 20.28C34.2801 19.96 34.4401 19.72 34.4401 19.56C34.4401 19.32 34.2401 19.2 33.8401 19.2C33.6001 19.2 32.9601 19.52 31.9201 20.16C30.8801 20.8 29.9201 21.44 29.0401 22.08C28.2401 22.72 27.8401 23.12 27.8401 23.28C27.8401 23.36 27.6001 23.6 27.1201 24C26.7201 24.32 26.2001 24.76 25.5601 25.32C24.2001 26.6 23.0001 27.8 21.9601 28.92C20.9201 29.96 19.7601 31.24 18.4801 32.76ZM18.0001 37.56C18.0001 37.56 18.0001 37.64 18.0001 37.8C18.0001 37.96 18.0001 38.24 18.0001 38.64C18.1601 39.36 18.3201 39.8 18.4801 39.96C18.5601 40.04 18.6001 40.24 18.6001 40.56C18.6001 41.28 18.9201 42.56 19.5601 44.4C20.2001 46.24 21.0401 48.32 22.0801 50.64C23.1201 52.96 24.2001 55.32 25.3201 57.72C26.4401 60.12 27.4801 62.32 28.4401 64.32C29.4801 66.24 30.2801 67.68 30.8401 68.64L32.1601 71.28C32.4001 71.76 32.7201 72.28 33.1201 72.84C33.5201 73.32 33.7601 73.56 33.8401 73.56C36.3201 71.88 38.8401 69.72 41.4001 67.08C44.0401 64.36 46.4001 61.44 48.4801 58.32C50.6401 55.2 52.2401 52.24 53.2801 49.44C53.9201 47.6 54.3601 45.88 54.6001 44.28C54.8401 42.6 54.9601 41.28 54.9601 40.32C54.9601 39.52 54.9201 38.8 54.8401 38.16C54.8401 37.84 54.8001 37.6 54.7201 37.44C54.7201 37.28 54.7201 37.2 54.7201 37.2C54.6401 37.44 54.6001 37.68 54.6001 37.92C54.6001 38.08 54.4801 38.56 54.2401 39.36C54.0801 40.16 53.9601 40.6 53.8801 40.68C53.8801 40.76 53.8401 40.88 53.7601 41.04C53.7601 41.12 53.7601 41.16 53.7601 41.16C53.6801 41.8 53.2801 42.96 52.5601 44.64C51.8401 46.24 51.0001 48 50.0401 49.92C49.0801 51.76 48.2001 53.4 47.4001 54.84C46.6001 56.2 46.0801 56.92 45.8401 57C45.6001 57.24 45.4801 57.36 45.4801 57.36C45.4801 57.52 45.2001 58 44.6401 58.8C44.1601 59.52 43.5601 60.32 42.8401 61.2C42.1201 62.08 41.4401 62.88 40.8001 63.6C40.2401 64.24 39.8801 64.56 39.7201 64.56C39.7201 64.4 39.8801 64.16 40.2001 63.84C41.0001 63.04 42.0001 61.64 43.2001 59.64C44.4801 57.56 45.7201 55.28 46.9201 52.8C48.2001 50.32 49.3201 47.92 50.2801 45.6C51.2401 43.28 51.9201 41.4 52.3201 39.96C52.8801 37.88 53.1601 35.6 53.1601 33.12C53.1601 32.96 53.1201 32.2 53.0401 30.84C53.0401 29.4 52.5201 27.84 51.4801 26.16C51.0001 25.36 50.4801 24.8 49.9201 24.48C49.4401 24.08 48.7601 23.88 47.8801 23.88C47.7201 23.88 47.5201 23.92 47.2801 24C47.1201 24 46.9201 24 46.6801 24C46.2001 24.08 45.7601 24.16 45.3601 24.24C44.9601 24.24 44.6001 24.24 44.2801 24.24C43.5601 24.24 43.0001 24.16 42.6001 24C42.2801 23.84 42.0001 23.4 41.7601 22.68C41.6801 22.52 41.5601 22.36 41.4001 22.2C41.3201 22.04 41.2401 21.96 41.1601 21.96C40.6001 22.2 40.0001 22.44 39.3601 22.68C38.8001 22.92 38.1601 23.12 37.4401 23.28C36.2401 23.6 35.4401 23.88 35.0401 24.12C34.4801 24.52 33.5601 25.16 32.2801 26.04C31.0801 26.92 29.9601 27.72 28.9201 28.44C27.9601 29.16 27.4401 29.56 27.3601 29.64C27.2801 29.8 26.9201 30.12 26.2801 30.6C25.7201 31.08 25.3601 31.32 25.2001 31.32L25.9201 30.6C26.3201 30.2 26.5201 29.92 26.5201 29.76C26.4401 29.76 25.9601 30.12 25.0801 30.84C24.2801 31.48 23.4001 32.28 22.4401 33.24C21.4801 34.2 20.6801 35 20.0401 35.64C18.9201 36.92 18.2401 37.56 18.0001 37.56ZM14.2801 36.36C14.1201 36.36 13.8401 36.72 13.4401 37.44C13.0401 38.16 12.6401 38.92 12.2401 39.72C11.8401 40.44 11.6401 40.92 11.6401 41.16C11.7201 41.16 11.8401 41.04 12.0001 40.8C12.1601 40.56 12.3601 40.24 12.6001 39.84C12.7601 39.6 12.9601 39.28 13.2001 38.88C13.4401 38.4 13.6401 38 13.8001 37.68C14.2001 37.04 14.4001 36.64 14.4001 36.48C14.4001 36.4 14.3601 36.36 14.2801 36.36ZM6.3601 39C6.3601 38.84 6.3601 38.76 6.3601 38.76C6.2801 38.76 6.1601 38.88 6.0001 39.12C5.9201 39.28 5.8401 39.52 5.7601 39.84C6.1601 39.68 6.3601 39.4 6.3601 39ZM7.2001 58.68C7.0401 59.64 6.9601 60.6 6.9601 61.56C6.9601 63 7.2001 64.56 7.6801 66.24C8.2401 67.84 9.4401 69.64 11.2801 71.64C13.8401 74.44 17.4401 75.84 22.0801 75.84C22.3201 75.84 22.8001 75.84 23.5201 75.84C24.2401 75.76 25.0001 75.68 25.8001 75.6C26.6001 75.52 27.0801 75.4 27.2401 75.24C27.2401 75.16 27.0401 74.64 26.6401 73.68C26.4801 73.28 26.0801 72.44 25.4401 71.16C24.8001 69.8 24.1201 68.32 23.4001 66.72C22.6801 65.12 22.0401 63.68 21.4801 62.4C21.0001 61.12 20.7601 60.32 20.7601 60C20.7601 60 21.0001 60.48 21.4801 61.44C21.9601 62.4 22.5201 63.52 23.1601 64.8C25.2401 68.8 26.6801 71.48 27.4801 72.84C28.2801 74.2 28.8401 74.88 29.1601 74.88C29.2401 74.88 29.2801 74.88 29.2801 74.88C29.2801 74.64 28.9601 73.8 28.3201 72.36C27.7601 70.92 27.0801 69.28 26.2801 67.44C25.4801 65.52 24.8401 64 24.3601 62.88C24.1201 62.56 23.9201 62.2 23.7601 61.8C23.6801 61.4 23.6001 61.12 23.5201 60.96C23.4401 60.8 23.3201 60.56 23.1601 60.24C23.0801 59.92 22.9601 59.56 22.8001 59.16C22.4801 58.6 22.0801 57.56 21.6001 56.04C21.1201 54.52 20.5601 53 19.9201 51.48C19.7601 51.08 19.6001 50.72 19.4401 50.4C19.3601 50 19.2801 49.76 19.2001 49.68C19.0401 49.36 18.7601 48.68 18.3601 47.64C18.0401 46.6 17.8401 45.88 17.7601 45.48C17.1201 43.32 16.2801 41.2 15.2401 39.12C15.1601 39.12 14.8401 39.64 14.2801 40.68C13.8001 41.72 13.2801 42.88 12.7201 44.16C12.1601 45.44 11.7601 46.44 11.5201 47.16C10.8801 49.24 10.3601 51.24 9.9601 53.16C9.5601 55.08 9.3601 57.16 9.3601 59.4C9.3601 60.76 9.3601 61.92 9.3601 62.88C9.3601 63.76 9.3201 64.2 9.2401 64.2C8.9201 64.2 8.6801 63.76 8.5201 62.88C8.3601 61.92 8.2001 60.96 8.0401 60C7.9601 59.04 7.9201 58.48 7.9201 58.32C7.9201 57.44 7.8401 57 7.6801 57C7.5201 57 7.3601 57.56 7.2001 58.68ZM4.3201 55.68C4.0801 55.92 3.9201 56.48 3.8401 57.36C3.8401 58.24 3.8401 58.84 3.8401 59.16C3.8401 60.28 3.8801 61.6 3.9601 63.12C4.1201 64.56 4.3601 65.92 4.6801 67.2C4.9201 68.56 5.0801 69.24 5.1601 69.24C5.2401 69.24 5.2801 69.08 5.2801 68.76C5.2801 68.6 5.2401 68.32 5.1601 67.92C5.1601 67.44 5.0801 66.76 4.9201 65.88C4.6801 64.36 4.5601 63.04 4.5601 61.92C4.5601 61.6 4.5601 61.08 4.5601 60.36C4.6401 59.56 4.7201 58.44 4.8001 57C4.8801 56.04 4.9201 55.4 4.9201 55.08C4.9201 54.92 4.9201 54.84 4.9201 54.84C4.9201 54.76 4.9201 54.72 4.9201 54.72C4.9201 54.72 4.8801 54.76 4.8001 54.84C4.8001 54.84 4.8001 54.88 4.8001 54.96C4.8001 55.12 4.6401 55.36 4.3201 55.68ZM43.5601 70.56C41.8001 71.6 40.9201 72.2 40.9201 72.36C40.9201 72.36 40.9601 72.36 41.0401 72.36C41.5201 72.36 42.2401 72.08 43.2001 71.52C44.2401 70.88 45.2001 70.2 46.0801 69.48C46.9601 68.76 47.5601 68.24 47.8801 67.92L48.8401 66.6L47.6401 67.44C47.3201 67.68 46.7601 68.16 45.9601 68.88C45.1601 69.52 44.3601 70.08 43.5601 70.56ZM12.2401 77.4C12.1601 77.32 12.0801 77.28 12.0001 77.28C12.0001 77.36 12.0401 77.44 12.1201 77.52C12.2801 77.84 12.5601 78 12.9601 78C13.1201 77.92 13.2001 77.88 13.2001 77.88C13.2001 77.8 13.1601 77.76 13.0801 77.76C13.0001 77.76 12.8801 77.72 12.7201 77.64C12.5601 77.56 12.4001 77.48 12.2401 77.4ZM25.9201 81.84C25.9201 81.84 25.9201 81.88 25.9201 81.96C25.9201 82.04 26.0801 82.08 26.4001 82.08L27.2401 81.72C27.3201 81.72 27.3601 81.72 27.3601 81.72C27.3601 81.64 27.1601 81.6 26.7601 81.6C26.4401 81.6 26.1601 81.68 25.9201 81.84ZM63.2832 65.88C63.2032 65.88 63.0832 65.68 62.9232 65.28C62.9232 64.96 62.9232 64.28 62.9232 63.24C62.9232 62.2 62.9232 61.12 62.9232 60C63.0032 58.88 63.0432 58.08 63.0432 57.6C63.1232 56.88 63.1632 56.16 63.1632 55.44C63.2432 54.72 63.3632 54 63.5232 53.28C63.6832 52.8 63.7632 52.36 63.7632 51.96C63.7632 51.88 63.7232 51.72 63.6432 51.48C63.6432 51.16 63.6432 50.92 63.6432 50.76C63.6432 50.52 63.7632 50.4 64.0032 50.4V49.32C64.1632 49.16 64.2432 48.8 64.2432 48.24C64.2432 48 64.3232 47.52 64.4832 46.8C64.7232 46.08 65.0032 45.4 65.3232 44.76C65.6432 44.04 66.0032 43.68 66.4032 43.68C66.5632 43.68 66.7632 43.84 67.0032 44.16C67.2432 44.4 67.4432 44.6 67.6032 44.76C67.6032 45.88 67.7232 46.44 67.9632 46.44C68.0432 46.44 68.0832 46.56 68.0832 46.8C68.0832 46.88 68.5632 47 69.5232 47.16C69.8432 47.24 70.1232 47.36 70.3632 47.52C70.6832 47.6 70.8832 47.64 70.9632 47.64C70.9632 47.72 71.0832 47.76 71.3232 47.76C71.6432 47.76 71.9632 47.6 72.2832 47.28C72.5232 47.04 72.7232 46.92 72.8832 46.92C73.0432 46.92 73.2432 46.92 73.4832 46.92C73.8832 47 74.0832 47.12 74.0832 47.28C74.1632 47.44 74.2032 47.92 74.2032 48.72C74.2032 49.6 74.3232 50.24 74.5632 50.64C74.8032 51.04 74.9232 51.28 74.9232 51.36C74.9232 51.44 74.9232 51.48 74.9232 51.48C74.8432 51.8 74.6832 52.16 74.4432 52.56C74.2832 52.96 74.1232 53.16 73.9632 53.16C73.9632 53.16 73.9232 53.12 73.8432 53.04C73.6832 53.04 73.4432 53.2 73.1232 53.52C72.8032 53.84 72.5232 54.16 72.2832 54.48C72.0432 54.88 71.8432 55.12 71.6832 55.2C71.6832 55.36 71.5632 55.68 71.3232 56.16C71.0832 56.64 70.9632 56.92 70.9632 57L70.7232 57.6C70.6432 57.68 70.6032 57.76 70.6032 57.84L70.2432 58.44C70.0032 58.84 69.7232 59.56 69.4032 60.6C69.1632 61.64 69.0432 62.36 69.0432 62.76C68.8832 62.84 68.7632 63.12 68.6832 63.6C68.6832 64.08 68.6432 64.36 68.5632 64.44C68.4832 64.52 68.4432 64.76 68.4432 65.16C68.3632 65.72 68.2832 66.32 68.2032 66.96C68.1232 67.6 68.0032 68.2 67.8432 68.76V70.2C67.8432 71 67.7632 71.4 67.6032 71.4V71.64C67.6832 71.72 67.7232 71.96 67.7232 72.36C67.7232 72.76 67.7232 73.16 67.7232 73.56C67.8032 75.08 67.9232 75.92 68.0832 76.08C68.1632 76.16 68.2832 76.2 68.4432 76.2C68.5232 76.2 68.6832 76.16 68.9232 76.08C69.1632 75.92 70.0432 74.92 71.5632 73.08C71.9632 72.6 72.3632 72.16 72.7632 71.76C73.1632 71.28 73.4432 70.96 73.6032 70.8C73.9232 70.48 74.4432 69.84 75.1632 68.88C75.8832 67.92 76.2832 67.32 76.3632 67.08C76.5232 67.08 76.6032 67.12 76.6032 67.2C76.6032 67.28 76.5232 67.44 76.3632 67.68C76.2832 67.68 76.2032 67.72 76.1232 67.8C76.1232 67.8 76.1632 67.84 76.2432 67.92C76.2432 68 76.1632 68.2 76.0032 68.52C75.8432 68.76 75.6832 68.88 75.5232 68.88C75.5232 69.12 75.0832 69.88 74.2032 71.16C73.4032 72.44 72.7232 73.52 72.1632 74.4C72.0032 74.72 71.8432 74.96 71.6832 75.12C71.5232 75.2 71.4032 75.28 71.3232 75.36C71.3232 75.44 71.1232 75.68 70.7232 76.08C70.5632 76.24 70.4032 76.36 70.2432 76.44C70.1632 76.52 70.1232 76.6 70.1232 76.68C70.1232 76.76 70.1632 76.8 70.2432 76.8C70.4032 76.8 70.8832 76.48 71.6832 75.84C72.4832 75.12 73.2832 74.2 74.0832 73.08C74.2432 72.92 74.4032 72.76 74.5632 72.6C74.7232 72.36 74.8032 72.2 74.8032 72.12C74.9632 71.96 75.0432 71.8 75.0432 71.64C75.0432 71.64 75.0832 71.56 75.1632 71.4C75.3232 71.24 75.5232 71.04 75.7632 70.8C76.1632 70.4 76.3632 70.12 76.3632 69.96C76.3632 69.96 76.4032 69.92 76.4832 69.84C76.5632 69.68 76.6432 69.52 76.7232 69.36C76.8032 69.28 77.0432 69 77.4432 68.52C77.8432 68.04 78.0832 67.8 78.1632 67.8C78.1632 67.64 78.2032 67.48 78.2832 67.32C78.3632 67.16 78.4832 66.96 78.6432 66.72C79.0432 65.92 79.6832 64.96 80.5632 63.84C81.5232 62.72 82.0032 62.12 82.0032 62.04C82.0032 61.8 82.0432 61.64 82.1232 61.56C82.2832 61.48 82.4432 61.16 82.6032 60.6C82.8432 60.04 82.9632 59.64 82.9632 59.4C82.9632 59.24 82.9232 59.12 82.8432 59.04C82.7632 58.96 82.6832 58.36 82.6032 57.24C82.5232 56.12 82.4832 55.08 82.4832 54.12C82.4832 53.4 82.4832 52.68 82.4832 51.96C82.4832 50.92 82.4432 50.08 82.3632 49.44C82.3632 48.72 82.3632 48.36 82.3632 48.36C82.3632 48.44 82.2832 48.64 82.1232 48.96C82.0432 49.04 82.0032 49.2 82.0032 49.44C82.0032 49.6 81.9632 49.72 81.8832 49.8C81.8032 49.88 81.7232 50 81.6432 50.16C81.5632 50.4 81.5232 50.6 81.5232 50.76C81.5232 50.76 81.4432 50.92 81.2832 51.24C81.2032 51.56 81.1232 51.92 81.0432 52.32C80.8832 53.28 80.7632 53.76 80.6832 53.76V54.24C80.6832 54.56 80.6432 54.72 80.5632 54.72C80.5632 54.64 80.5632 54.6 80.5632 54.6C80.5632 54.6 80.5232 54.64 80.4432 54.72C80.4432 54.8 80.4432 54.84 80.4432 54.84C80.4432 54.92 80.4832 55 80.5632 55.08C80.5632 55.16 80.5632 55.28 80.5632 55.44C80.5632 55.6 80.4832 55.72 80.3232 55.8C80.3232 56.04 80.2432 56.24 80.0832 56.4C80.0032 56.4 79.9632 56.32 79.9632 56.16C79.9632 56.08 79.9632 55.92 79.9632 55.68C80.0432 55.44 80.1232 54.68 80.2032 53.4C80.2832 52.84 80.4032 51.96 80.5632 50.76C80.7232 49.56 80.9632 48.44 81.2832 47.4C81.6032 46.36 81.8832 45.84 82.1232 45.84C82.2832 45.28 82.6032 45 83.0832 45C83.3232 45 83.6032 45.04 83.9232 45.12C84.2432 45.2 84.6832 45.4 85.2432 45.72C85.8832 46.12 86.4032 46.32 86.8032 46.32C87.1232 46.4 87.4432 46.48 87.7632 46.56C88.1632 46.56 88.4432 46.64 88.6032 46.8C88.6832 46.8 88.7632 46.84 88.8432 46.92C88.9232 46.92 89.0432 46.92 89.2032 46.92C89.8432 47 90.5232 47.16 91.2432 47.4C92.0432 47.64 92.6832 48 93.1632 48.48C93.4032 48.72 93.6032 48.92 93.7632 49.08C93.9232 49.16 94.0032 49.2 94.0032 49.2C94.1632 49.2 94.2832 49.32 94.3632 49.56C94.4432 49.8 94.4832 49.96 94.4832 50.04C94.5632 50.36 94.6432 50.72 94.7232 51.12C94.8832 51.44 94.9632 51.76 94.9632 52.08C95.0432 52.08 95.0832 52.12 95.0832 52.2C95.0832 52.36 94.9632 52.68 94.7232 53.16C94.5632 53.64 94.2832 54.24 93.8832 54.96C93.5632 55.6 93.2832 56.04 93.0432 56.28L92.8032 56.52C92.8032 56.6 92.7232 56.76 92.5632 57C92.4832 57.16 92.4032 57.4 92.3232 57.72C92.1632 57.88 92.0432 58.08 91.9632 58.32C91.8832 58.56 91.8432 58.68 91.8432 58.68C91.8432 58.84 91.7632 59.08 91.6032 59.4C91.4432 59.72 91.1632 60.4 90.7632 61.44C90.4432 62.4 90.2432 63.04 90.1632 63.36C90.1632 63.36 90.0032 63.68 89.6832 64.32C89.5232 64.48 89.4432 64.68 89.4432 64.92C89.4432 65.08 89.4832 65.16 89.5632 65.16L89.3232 66C89.1632 66.64 89.0432 67.2 88.9632 67.68C88.8832 68.16 88.8432 68.48 88.8432 68.64C88.8432 68.8 88.8432 68.88 88.8432 68.88C88.9232 68.88 88.9632 69 88.9632 69.24C88.9632 69.24 88.9232 69.24 88.8432 69.24C88.6032 69.24 88.4432 69 88.3632 68.52C88.2832 68.04 88.2432 67.64 88.2432 67.32C88.2432 66.76 88.3232 66.04 88.4832 65.16C88.5632 64.28 88.6032 63.76 88.6032 63.6C88.6832 63.44 88.7632 63.28 88.8432 63.12V62.4C88.9232 62.32 88.9632 62.24 88.9632 62.16C88.9632 62.08 88.9632 62.04 88.9632 62.04C88.9632 61.72 89.0432 61.52 89.2032 61.44C89.2832 61.36 89.3232 61.16 89.3232 60.84C89.3232 60.84 89.3232 60.76 89.3232 60.6C89.3232 60.44 89.4032 60.28 89.5632 60.12C89.6432 60.04 89.6832 59.92 89.6832 59.76C89.6832 59.6 89.6832 59.52 89.6832 59.52C89.6032 59.52 89.4032 59.88 89.0832 60.6C88.8432 61.24 88.7232 61.68 88.7232 61.92C88.7232 62 88.6832 62.12 88.6032 62.28C88.6032 62.44 88.5632 62.68 88.4832 63C88.4832 63 88.4432 63.08 88.3632 63.24L88.0032 64.56C87.9232 64.64 87.8832 64.72 87.8832 64.8C87.8832 64.8 87.8832 64.88 87.8832 65.04C87.8832 65.12 87.8432 65.28 87.7632 65.52C87.7632 65.68 87.7232 65.88 87.6432 66.12C87.5632 66.36 87.5232 66.52 87.5232 66.6C87.4432 66.84 87.3632 67.24 87.2832 67.8C87.2832 68.36 87.2432 69.16 87.1632 70.2C87.0832 70.92 87.0032 71.68 86.9232 72.48C86.9232 73.2 86.9232 73.76 86.9232 74.16C86.9232 74.88 86.9632 75.72 87.0432 76.68C87.1232 77.56 87.2032 78.24 87.2832 78.72C87.2832 78.88 87.2832 79.08 87.2832 79.32C87.3632 79.56 87.4032 79.8 87.4032 80.04C87.4832 80.2 87.5232 80.4 87.5232 80.64C87.5232 80.88 87.5232 81.04 87.5232 81.12C87.6832 81.28 87.7632 81.48 87.7632 81.72C87.7632 82.04 87.8832 82.64 88.1232 83.52C88.4432 84.48 88.7632 85.4 89.0832 86.28C89.4832 87.16 89.8432 87.6 90.1632 87.6C90.2432 87.6 90.2832 87.6 90.2832 87.6C90.3632 87.68 90.4032 87.76 90.4032 87.84C90.4032 87.84 90.3632 87.84 90.2832 87.84C90.2832 87.92 90.2032 87.96 90.0432 87.96C89.4832 87.96 88.8432 87.56 88.1232 86.76C87.4832 86.04 87.1632 85.52 87.1632 85.2C87.1632 85.04 87.1232 84.96 87.0432 84.96C87.0432 84.96 87.0032 84.92 86.9232 84.84C86.8432 84.76 86.7632 84.64 86.6832 84.48C86.1232 83.28 85.8032 82.48 85.7232 82.08C85.7232 81.6 85.5632 81.28 85.2432 81.12C84.2032 80.72 83.5232 79.16 83.2032 76.44C83.1232 76.04 83.0832 74.88 83.0832 72.96C83.0832 71.04 83.1232 69.32 83.2032 67.8V64.2L82.9632 64.92C82.8032 65.48 82.7232 65.76 82.7232 65.76L82.1232 66.6C81.7232 67.24 81.5232 67.6 81.5232 67.68C81.5232 67.84 81.3632 68.12 81.0432 68.52C80.5632 69.16 80.1632 69.84 79.8432 70.56C79.5232 71.28 79.2832 71.88 79.1232 72.36C78.4832 73.88 78.0432 74.8 77.8032 75.12C77.7232 75.2 77.6832 75.24 77.6832 75.24V75.36C77.6832 75.36 77.5632 75.64 77.3232 76.2C77.0832 76.76 76.8032 77.32 76.4832 77.88C76.2432 78.44 76.0832 78.72 76.0032 78.72C76.0032 78.72 75.9632 78.8 75.8832 78.96C75.8032 79.04 75.7232 79.2 75.6432 79.44C75.4832 80.08 75.2432 80.56 74.9232 80.88C74.6032 81.2 74.3632 81.44 74.2032 81.6C74.1232 81.68 74.0832 81.8 74.0832 81.96C74.0832 82.04 74.0832 82.08 74.0832 82.08C73.5232 82.8 73.0032 83.36 72.5232 83.76C72.0432 84.16 71.4032 84.36 70.6032 84.36C70.2032 84.36 69.6832 84.12 69.0432 83.64C68.4032 83.24 68.0832 82.88 68.0832 82.56C68.0832 82.4 68.0432 82.32 67.9632 82.32C67.8032 82.32 67.6832 82.16 67.6032 81.84C67.6032 81.6 67.4832 81.48 67.2432 81.48C66.8432 81.48 66.4032 81.08 65.9232 80.28C65.4432 79.4 65.1632 78.72 65.0832 78.24C65.0832 77.6 64.9632 77 64.7232 76.44C64.4032 75.64 64.2432 75.12 64.2432 74.88C64.1632 74.4 64.1232 73.36 64.1232 71.76C64.1232 70.16 64.1632 68.56 64.2432 66.96C64.3232 65.36 64.4032 64.32 64.4832 63.84C64.4832 63.76 64.4832 63.68 64.4832 63.6L64.7232 63.12C64.7232 63.04 64.7232 62.96 64.7232 62.88C64.7232 62.56 64.8032 61.92 64.9632 60.96C65.0432 60.64 65.0832 60.32 65.0832 60C65.1632 59.68 65.2032 59.44 65.2032 59.28C65.3632 59.2 65.4832 58.92 65.5632 58.44C65.6432 57.88 65.6832 57.52 65.6832 57.36C65.6832 56.88 65.7632 56.4 65.9232 55.92C66.0032 55.76 66.0432 55.52 66.0432 55.2C66.0432 54.96 66.0032 54.64 65.9232 54.24C65.9232 53.76 65.8832 53.32 65.8032 52.92C65.8032 52.84 65.7232 52.64 65.5632 52.32C65.4032 52.08 65.2832 51.96 65.2032 51.96C65.1232 51.96 65.0832 52.04 65.0832 52.2C65.0032 52.36 64.9632 52.56 64.9632 52.8C64.9632 52.96 64.9232 53.2 64.8432 53.52C64.8432 53.6 64.7632 53.96 64.6032 54.6C64.5232 55.16 64.4032 55.76 64.2432 56.4C63.9232 58.24 63.6832 59.8 63.5232 61.08C63.4432 62.28 63.4032 63.36 63.4032 64.32C63.4032 64.72 63.3632 65.08 63.2832 65.4C63.2832 65.72 63.2832 65.88 63.2832 65.88ZM92.9232 51.36C92.9232 51.6 92.9232 51.72 92.9232 51.72C93.0032 51.72 93.0432 51.68 93.0432 51.6V51.24C93.0432 51.24 93.0032 51.24 92.9232 51.24C92.9232 51.24 92.9232 51.28 92.9232 51.36ZM86.3232 60C86.0832 61.84 85.9232 63.16 85.8432 63.96C85.7632 64.76 85.7232 65.56 85.7232 66.36C85.7232 68.28 85.8032 69.24 85.9632 69.24C86.0432 69.24 86.0832 69 86.0832 68.52C86.0832 68.36 86.0832 68.24 86.0832 68.16C86.0832 66.8 86.4032 64.64 87.0432 61.68C87.2032 60.88 87.3232 60.12 87.4032 59.4C87.4832 58.68 87.6032 58.24 87.7632 58.08C87.7632 58 87.7632 57.92 87.7632 57.84L87.8832 57.36C87.8832 57.28 87.8832 57.2 87.8832 57.12C87.9632 57.04 88.0032 56.92 88.0032 56.76V56.28C88.0832 56.04 88.2032 55.6 88.3632 54.96C88.6032 54.24 88.7232 53.76 88.7232 53.52C88.8032 53.44 88.8432 53.32 88.8432 53.16C88.8432 52.92 88.8432 52.76 88.8432 52.68C89.0032 52.52 89.0832 52.36 89.0832 52.2C89.0832 52.04 88.8832 51.96 88.4832 51.96C87.8432 51.96 87.4032 53.04 87.1632 55.2C87.1632 55.36 87.1232 55.52 87.0432 55.68C87.0432 55.76 87.0432 55.84 87.0432 55.92C86.8832 56.4 86.7632 56.88 86.6832 57.36C86.6032 57.76 86.5232 58.16 86.4432 58.56C86.4432 58.8 86.4032 59.08 86.3232 59.4C86.3232 59.64 86.3232 59.84 86.3232 60ZM84.5232 75.72C84.4432 75.72 84.4032 76.04 84.4032 76.68C84.4032 77.24 84.4432 77.88 84.5232 78.6C84.6032 79.32 84.7232 79.76 84.8832 79.92C85.2032 80.48 85.4832 80.76 85.7232 80.76C85.8032 80.68 85.8432 80.64 85.8432 80.64C85.8432 80.56 85.8032 80.44 85.7232 80.28C85.6432 80.2 85.5632 79.88 85.4832 79.32C85.4032 78.68 85.3232 77.76 85.2432 76.56C85.1632 76 84.9232 75.72 84.5232 75.72ZM98.3279 47.52C98.0079 47.36 97.8079 46.96 97.7279 46.32C97.6479 45.68 97.6079 45.2 97.6079 44.88C97.6079 44.48 97.6479 44.08 97.7279 43.68C98.1279 42.96 98.6079 42.6 99.1679 42.6H99.5279C100.168 42.6 100.648 42.44 100.968 42.12C101.128 41.96 101.488 41.88 102.048 41.88C102.448 41.88 102.728 41.92 102.888 42C102.968 42 103.048 42 103.128 42L103.608 42.12C103.688 42.12 103.768 42.12 103.848 42.12L104.688 42.6C105.168 43.08 105.928 43.32 106.968 43.32C107.288 43.32 107.568 43.36 107.808 43.44C108.048 43.44 108.168 43.44 108.168 43.44C108.168 43.68 108.728 43.92 109.848 44.16C110.648 44.32 111.328 44.64 111.888 45.12C112.448 45.6 112.728 46.04 112.728 46.44C112.728 46.68 112.608 47 112.368 47.4C112.128 47.8 111.928 48 111.768 48C111.528 48.32 111.328 48.48 111.168 48.48C109.968 48.88 109.088 49.8 108.528 51.24C107.968 52.6 107.648 53.8 107.568 54.84C107.328 55.24 107.168 55.8 107.088 56.52C107.008 57.08 106.888 57.64 106.728 58.2C106.648 58.76 106.528 59.32 106.368 59.88C106.208 60.44 106.008 61.36 105.768 62.64C105.608 63.92 105.528 64.68 105.528 64.92C105.528 65 105.528 65.04 105.528 65.04L105.408 65.16C105.328 65.16 105.288 64.84 105.288 64.2C105.288 63.48 105.368 62.8 105.528 62.16C105.528 62.08 105.528 61.92 105.528 61.68C105.608 61.44 105.648 61.16 105.648 60.84C105.808 60.36 105.968 59.56 106.128 58.44C106.208 58.04 106.248 57.6 106.248 57.12C106.328 56.56 106.408 56.16 106.488 55.92C106.648 55.36 106.728 54.76 106.728 54.12C106.728 53.4 106.648 53.04 106.488 53.04C106.488 53.04 106.448 53.08 106.368 53.16C106.368 53.24 106.368 53.32 106.368 53.4C106.368 53.48 106.368 53.64 106.368 53.88C106.368 54.04 106.328 54.2 106.248 54.36C106.008 55.16 105.768 55.96 105.528 56.76C105.288 57.48 105.088 58.24 104.928 59.04C104.928 59.28 104.888 59.48 104.808 59.64C104.808 59.8 104.808 59.88 104.808 59.88C104.728 59.88 104.688 59.44 104.688 58.56C104.688 57.6 104.728 57.08 104.808 57C104.808 57 104.808 56.92 104.808 56.76C104.888 56.6 104.928 56.44 104.928 56.28C105.008 56.12 105.048 55.96 105.048 55.8C105.048 55.56 105.128 55.36 105.288 55.2V54.84C105.048 54.84 104.928 55.08 104.928 55.56C104.848 55.72 104.728 56.12 104.568 56.76C104.408 57.4 104.328 57.84 104.328 58.08C104.168 58.72 104.088 59.08 104.088 59.16C104.088 59.24 104.048 59.32 103.968 59.4C103.968 59.48 103.968 59.52 103.968 59.52C103.968 59.68 103.928 59.88 103.848 60.12C103.848 60.28 103.848 60.48 103.848 60.72C103.848 60.88 103.808 61.08 103.728 61.32C103.648 61.48 103.608 61.72 103.608 62.04C103.528 62.2 103.448 62.4 103.368 62.64C103.368 62.88 103.368 63 103.368 63C103.368 63 103.368 63.2 103.368 63.6C103.368 63.68 103.328 63.76 103.248 63.84C103.248 63.92 103.288 64 103.368 64.08C103.368 64.08 103.368 64.4 103.368 65.04C103.368 65.68 103.408 66.44 103.488 67.32C103.488 68.2 103.488 69 103.488 69.72C103.488 70.44 103.528 70.84 103.608 70.92C103.608 71.16 103.648 71.68 103.728 72.48C103.808 73.2 103.928 73.92 104.088 74.64C104.248 75.28 104.408 75.6 104.568 75.6C104.648 75.6 104.728 75.56 104.808 75.48C104.968 75.4 105.168 75.32 105.408 75.24C105.568 75.16 106.008 74.76 106.728 74.04C107.528 73.32 108.088 72.8 108.408 72.48C108.408 72.4 108.528 72.24 108.768 72C109.008 71.76 109.208 71.52 109.368 71.28C109.688 70.88 110.248 70.2 111.048 69.24C111.848 68.28 112.328 67.56 112.488 67.08C112.568 66.92 112.648 66.8 112.728 66.72C112.808 66.56 112.848 66.44 112.848 66.36L112.968 66.24C113.288 66.08 113.648 65.56 114.048 64.68C114.448 63.72 114.808 62.8 115.128 61.92C115.448 60.96 115.688 60.28 115.848 59.88C116.008 59.48 116.168 59.2 116.328 59.04C116.328 58.72 116.488 58.24 116.808 57.6C117.128 56.8 117.288 56.32 117.288 56.16C117.528 55.6 117.688 55.08 117.768 54.6C117.848 54.12 117.888 53.76 117.888 53.52C117.888 53.2 117.848 52.96 117.768 52.8V52.32C117.848 52.32 117.888 52.24 117.888 52.08C117.888 51.76 117.928 51.56 118.008 51.48V51.36C118.008 51.36 118.008 51.32 118.008 51.24C118.008 51.08 118.088 50.84 118.248 50.52C118.408 50.12 118.568 49.88 118.728 49.8C118.968 49.56 119.208 49.44 119.448 49.44C119.608 49.44 119.768 49.48 119.928 49.56C120.088 49.64 120.288 49.72 120.528 49.8C120.848 49.88 121.088 49.96 121.248 50.04C121.488 50.04 121.728 50.04 121.968 50.04C122.128 50.04 122.248 50 122.328 49.92C122.648 49.76 123.128 49.68 123.768 49.68C124.568 49.68 124.968 49.76 124.968 49.92C124.968 50 125.128 50.04 125.448 50.04C125.768 50.04 126.048 50.16 126.288 50.4C126.368 50.4 126.568 50.48 126.888 50.64C127.208 50.72 127.448 50.76 127.608 50.76C127.848 51.16 128.208 51.36 128.688 51.36C129.408 51.52 130.008 51.8 130.488 52.2C130.888 52.52 131.088 52.84 131.088 53.16C131.088 53.24 131.048 53.4 130.968 53.64C130.968 53.8 130.568 54.24 129.768 54.96C128.808 55.76 128.048 56.64 127.488 57.6C126.928 58.56 126.568 59.4 126.408 60.12C126.328 60.76 126.128 61.44 125.808 62.16C125.808 62.64 125.728 63.04 125.568 63.36C125.568 63.44 125.528 63.6 125.448 63.84C125.448 64 125.448 64.16 125.448 64.32C125.208 64.8 125.088 65.12 125.088 65.28C125.088 65.44 125.008 65.68 124.848 66V66.96C124.848 67.12 124.808 67.24 124.728 67.32C124.728 67.4 124.688 67.56 124.608 67.8C124.528 67.96 124.488 68.16 124.488 68.4C124.408 68.56 124.368 68.76 124.368 69C124.368 69.24 124.328 69.4 124.248 69.48C124.168 69.56 124.128 69.68 124.128 69.84V70.2C124.128 70.28 124.088 70.4 124.008 70.56V71.64C123.848 71.8 123.768 72.08 123.768 72.48C123.768 72.8 123.768 73.16 123.768 73.56C123.768 73.88 123.728 74.16 123.648 74.4C123.648 74.56 123.648 74.64 123.648 74.64C123.568 74.64 123.528 74.08 123.528 72.96C123.528 71.84 123.528 70.88 123.528 70.08C123.528 69.92 123.528 69.8 123.528 69.72L123.648 69C123.648 68.84 123.648 68.72 123.648 68.64C123.728 68.48 123.768 68.32 123.768 68.16C123.768 68 123.768 67.88 123.768 67.8C123.928 67.72 124.008 67.32 124.008 66.6C124.088 66.28 124.128 66.04 124.128 65.88C124.128 65.64 124.128 65.44 124.128 65.28C124.208 64.64 124.288 64.12 124.368 63.72C124.448 63.32 124.488 63.08 124.488 63C124.408 62.92 124.368 62.88 124.368 62.88C124.368 63.04 124.288 63.36 124.128 63.84C123.568 65.6 123.168 66.88 122.928 67.68C122.688 68.48 122.568 68.96 122.568 69.12C122.568 69.12 122.568 69.16 122.568 69.24C122.568 69.24 122.488 69.28 122.328 69.36C122.328 69.6 122.288 70 122.208 70.56C122.128 71.04 122.048 71.36 121.968 71.52C121.968 72.08 121.968 72.36 121.968 72.36C121.968 72.6 121.928 72.76 121.848 72.84C121.848 72.92 121.808 73.04 121.728 73.2C121.648 73.36 121.608 73.52 121.608 73.68C121.528 73.84 121.408 74.32 121.248 75.12C121.168 75.92 121.128 76.4 121.128 76.56C120.888 77.2 120.768 77.68 120.768 78C120.528 78.72 120.408 79.48 120.408 80.28C120.248 80.36 120.168 80.56 120.168 80.88L118.968 92.16L120.048 86.88V93.84C120.048 94.32 120.008 94.76 119.928 95.16C119.928 95.64 119.928 95.92 119.928 96V97.68C119.928 98.4 119.888 99.12 119.808 99.84C119.808 100.64 119.808 101.04 119.808 101.04V101.16C119.808 101.24 119.808 101.56 119.808 102.12C119.888 102.76 119.928 103.52 119.928 104.4C119.928 106 119.928 107.08 119.928 107.64C120.008 108.2 120.088 108.48 120.168 108.48C120.408 108.72 120.608 108.88 120.768 108.96C120.928 109.04 121.008 109.2 121.008 109.44C121.088 109.76 121.208 110.32 121.368 111.12C121.368 111.6 121.408 111.88 121.488 111.96C121.488 112.28 121.528 112.48 121.608 112.56C121.768 113.2 121.888 113.64 121.968 113.88C122.128 114.12 122.368 114.56 122.688 115.2C122.768 115.28 122.928 115.6 123.168 116.16C123.488 116.72 123.688 117.2 123.768 117.6C123.848 117.76 123.888 117.92 123.888 118.08L124.008 119.28C124.088 119.44 124.128 119.6 124.128 119.76C124.128 120.48 124.168 121.12 124.248 121.68C124.328 122.32 124.408 122.68 124.488 122.76C124.648 122.84 124.728 123.04 124.728 123.36C124.728 123.52 124.808 123.6 124.968 123.6C125.048 123.76 125.088 124.04 125.088 124.44C125.088 124.92 125.048 125.24 124.968 125.4C124.808 125.56 124.608 125.64 124.368 125.64C124.288 125.64 124.208 125.6 124.128 125.52C124.048 125.52 123.928 125.52 123.768 125.52C123.688 125.52 123.608 125.52 123.528 125.52C123.448 125.52 123.368 125.52 123.288 125.52C123.288 125.52 123.248 125.48 123.168 125.4C123.088 125.4 123.048 125.36 123.048 125.28C122.968 125.12 122.848 125.04 122.688 125.04C122.448 125.04 122.248 124.96 122.088 124.8C122.088 124.8 122.008 124.8 121.848 124.8C121.608 124.8 121.208 124.84 120.648 124.92C120.328 125 120.008 125.04 119.688 125.04C119.368 125.04 119.128 125.04 118.968 125.04C118.648 124.96 118.288 124.88 117.888 124.8C117.488 124.72 117.288 124.64 117.288 124.56L117.168 124.32C116.768 124.32 116.168 123.56 115.368 122.04C114.888 121.08 114.528 120.52 114.288 120.36C114.128 120.2 114.008 120.12 113.928 120.12C113.848 120.12 113.768 120.16 113.688 120.24C113.448 120.24 113.208 120.16 112.968 120C112.888 119.92 112.728 119.88 112.488 119.88C112.008 120.12 111.528 120.24 111.048 120.24C110.328 120.24 109.768 120.04 109.368 119.64C108.888 119.16 108.648 118.56 108.648 117.84C108.648 117.68 108.648 117.52 108.648 117.36C108.648 116.4 109.008 115.56 109.728 114.84L110.448 114.12V105.24C110.528 103.88 110.568 102.68 110.568 101.64C110.568 100.68 110.568 100.2 110.568 100.2C110.648 100.12 110.728 100.08 110.808 100.08C110.888 100.08 111.008 100 111.168 99.84C111.648 99.84 111.928 100.4 112.008 101.52C112.088 102.64 112.128 103.36 112.128 103.68C112.128 104 112.168 104.24 112.248 104.4V105.84C112.408 106.16 112.488 106.44 112.488 106.68C112.488 106.92 112.488 107.12 112.488 107.28C112.568 106.4 112.648 105.4 112.728 104.28C112.888 103.24 113.168 102.36 113.568 101.64C113.648 101.4 113.728 101.04 113.808 100.56C113.888 100.16 113.968 99.76 114.048 99.36C114.048 98.48 114.128 97.64 114.288 96.84C114.288 96.68 114.288 96.44 114.288 96.12C114.368 95.8 114.408 95.52 114.408 95.28L116.328 72.72C116.408 72.4 116.448 72.12 116.448 71.88C116.448 71.64 116.448 71.48 116.448 71.4C116.528 71.32 116.568 71.04 116.568 70.56C116.728 70.32 116.808 70.12 116.808 69.96C116.808 69.72 116.848 69.52 116.928 69.36C116.928 69.28 116.928 69.2 116.928 69.12L117.048 68.4C117.048 68.32 117.048 68.24 117.048 68.16C117.048 68 117.048 67.84 117.048 67.68C117.128 67.52 117.168 67.4 117.168 67.32C117.248 67.32 117.288 67.2 117.288 66.96V66.48C117.288 66.4 117.328 66.36 117.408 66.36C117.488 66.28 117.528 66.16 117.528 66C117.528 65.6 117.608 65 117.768 64.2C117.768 63.96 117.728 63.84 117.648 63.84C117.648 63.84 117.568 64 117.408 64.32C117.328 64.56 117.208 64.88 117.048 65.28L116.448 67.08C116.208 67.8 115.968 68.48 115.728 69.12C115.488 69.76 115.368 70.12 115.368 70.2C115.208 70.6 114.848 71.4 114.288 72.6C113.728 73.72 113.168 74.8 112.608 75.84C112.048 76.8 111.608 77.36 111.288 77.52L111.048 78.12C110.888 78.44 110.488 78.96 109.848 79.68C109.208 80.32 108.528 80.92 107.808 81.48C107.088 82.04 106.528 82.32 106.128 82.32C105.888 82.32 105.688 82.32 105.528 82.32C105.368 82.24 105.288 82.2 105.288 82.2C105.288 82.12 105.248 82.08 105.168 82.08C105.088 82.08 105.048 82.12 105.048 82.2C104.888 82.2 104.768 82.16 104.688 82.08C104.688 81.92 104.568 81.84 104.328 81.84C104.168 81.76 104.048 81.68 103.968 81.6C103.728 81.6 103.368 81.4 102.888 81C102.408 80.6 102.168 80.32 102.168 80.16C102.168 80.08 102.128 80 102.048 79.92C101.888 79.6 101.808 79.44 101.808 79.44C101.648 79.36 101.448 78.96 101.208 78.24C100.968 77.44 100.728 76.6 100.488 75.72C100.328 74.84 100.248 74.24 100.248 73.92V72.24C100.248 71.36 100.288 70.84 100.368 70.68C100.288 70.68 100.248 70.68 100.248 70.68C100.248 70.6 100.288 70.56 100.368 70.56C100.528 70.24 100.608 69.88 100.608 69.48C100.608 69.08 100.608 68.28 100.608 67.08C100.688 65.88 100.728 65.2 100.728 65.04C100.888 64.96 100.968 64.8 100.968 64.56C100.968 64.32 101.008 64.04 101.088 63.72C101.088 63 101.128 62.64 101.208 62.64C101.208 62.48 101.208 62.32 101.208 62.16C101.208 62 101.248 61.8 101.328 61.56C101.648 60.12 101.848 59.4 101.928 59.4C101.848 59.32 101.808 59.24 101.808 59.16V59.04C101.808 59.04 101.808 59 101.808 58.92C101.888 58.76 101.928 58.64 101.928 58.56C101.928 58.4 101.968 58.16 102.048 57.84C102.128 57.68 102.168 57.52 102.168 57.36L102.528 56.64C102.608 56.4 102.648 56.16 102.648 55.92V54.84C102.648 54.68 102.688 54.48 102.768 54.24V53.64C102.688 53.64 102.608 53.76 102.528 54C102.528 54.24 102.528 54.4 102.528 54.48C102.448 54.64 102.248 55.16 101.928 56.04C101.608 56.92 101.328 57.84 101.088 58.8C100.848 59.68 100.728 60.24 100.728 60.48C100.728 60.56 100.728 60.6 100.728 60.6L100.608 60.72C100.528 60.8 100.488 60.92 100.488 61.08C100.488 61.24 100.448 61.4 100.368 61.56C100.208 62.12 100.048 62.8 99.8879 63.6C99.7279 64.4 99.6079 64.8 99.5279 64.8V65.04C99.5279 65.04 99.4879 65.16 99.4079 65.4C99.3279 65.64 99.2479 65.96 99.1679 66.36C99.0879 66.68 99.0079 66.96 98.9279 67.2C98.8479 67.36 98.8079 67.44 98.8079 67.44V67.92C98.6479 68.24 98.4479 68.4 98.2079 68.4C97.8079 68.4 97.6079 68.24 97.6079 67.92C97.5279 67.6 97.4879 67.28 97.4879 66.96C97.4879 65.6 97.5279 64.2 97.6079 62.76C97.6879 61.24 97.8879 59.84 98.2079 58.56V55.68C98.2079 54.16 98.2479 53.36 98.3279 53.28V52.92C98.3279 52.92 98.4079 52.8 98.5679 52.56C98.7279 52.4 98.8079 52.16 98.8079 51.84C98.8079 51.6 98.7279 51.28 98.5679 50.88C98.5679 50.72 98.5679 50.56 98.5679 50.4L98.4479 49.08C98.4479 48.92 98.4479 48.76 98.4479 48.6C98.4479 47.88 98.4079 47.52 98.3279 47.52ZM106.848 52.32C106.848 52.4 106.848 52.44 106.848 52.44C106.928 52.44 106.968 52.4 106.968 52.32V52.2C106.888 52.2 106.848 52.2 106.848 52.2V52.32ZM124.488 62.4C124.488 62.56 124.488 62.68 124.488 62.76C124.568 62.76 124.648 62.76 124.728 62.76C124.728 62.76 124.728 62.72 124.728 62.64V62.16C124.728 62.08 124.728 62.04 124.728 62.04C124.648 62.04 124.568 62.08 124.488 62.16C124.488 62.16 124.488 62.24 124.488 62.4ZM104.928 76.68C104.768 76.68 104.688 76.72 104.688 76.8C104.688 76.88 104.728 76.96 104.808 77.04C105.128 77.04 105.568 76.92 106.128 76.68C106.688 76.44 107.048 76.16 107.208 75.84C107.448 75.44 107.648 75.24 107.808 75.24C107.888 75.24 107.928 75.28 107.928 75.36C107.928 75.36 107.968 75.36 108.048 75.36C108.288 75.36 109.368 73.84 111.288 70.8C111.608 70.32 111.808 69.96 111.888 69.72C112.048 69.4 112.128 69.24 112.128 69.24C112.128 69.24 112.048 69.32 111.888 69.48C111.808 69.56 111.648 69.8 111.408 70.2C110.368 71.8 109.168 73.28 107.808 74.64C106.448 76 105.488 76.68 104.928 76.68ZM117.528 73.44C117.528 73.28 117.528 73.2 117.528 73.2C117.448 73.2 117.368 73.28 117.288 73.44H117.528ZM118.728 93.96L118.608 95.28C118.608 95.36 118.608 95.4 118.608 95.4C118.608 95.4 118.608 95.36 118.608 95.28C118.688 95.28 118.728 95.08 118.728 94.68V93.96ZM122.328 122.88C122.328 122.96 122.328 123.04 122.328 123.12C122.328 123.2 122.328 123.24 122.328 123.24C122.408 123.32 122.448 123.36 122.448 123.36C122.528 123.36 122.568 123.28 122.568 123.12L122.328 122.88Z" fill="white"/>
</svg>
